<svg width="168" height="168" viewBox="0 0 168 168" fill="none" xmlns="http://www.w3.org/2000/svg">
<g clip-path="url(#clip0_6_65)">
<path d="M176.036 -10.321H-7.80859V178.279H176.036V-10.321Z" fill="#FEFEFE"/>
<path d="M167.952 117.662H0.0151367V167.862H167.952V117.662Z" fill="#FFBE00"/>
<path d="M167.952 0.127991H0.0151367V115.228H167.952V0.127991Z" fill="#FFBE00"/>
<path d="M83.9025 91.5074C128.977 91.5074 165.517 76.979 165.517 59.0573C165.517 41.1356 128.977 26.6072 83.9025 26.6072C38.8279 26.6072 2.2876 41.1356 2.2876 59.0573C2.2876 76.979 38.8279 91.5074 83.9025 91.5074Z" fill="#005B9A"/>
<path d="M144.189 60.3878C144.189 61.6858 143.994 63.3407 143.572 65.3526C143.15 67.4619 142.663 69.052 142.143 70.1228C141.526 71.4208 140.91 72.0698 140.358 72.0698C139.741 72.0698 139.189 71.291 138.767 69.701C138.15 67.4619 136.819 59.7388 134.774 46.5641L141.689 39.2303C142.111 38.776 142.435 38.5489 142.565 38.5489C142.695 38.5489 142.793 38.7436 142.89 39.1654C143.572 42.1184 143.961 45.6555 144.124 49.7442C144.189 50.9773 144.189 54.5143 144.189 60.3878Z" fill="#FEFEFE"/>
<path d="M130.716 77.9108L127.924 75.2499C127.697 75.0227 127.469 75.0227 127.21 75.2499L124.807 77.7161L122.243 75.2499C121.983 75.0227 121.756 75.0227 121.529 75.2499L119.029 77.781C118.737 78.073 118.737 78.3002 118.964 78.5273L121.691 81.1883C121.886 81.383 122.08 81.383 122.275 81.1883L124.807 78.6896L127.372 81.1883C127.567 81.383 127.762 81.383 127.956 81.1883L130.683 78.4949C130.911 78.2677 130.911 78.1055 130.716 77.9108Z" fill="#FEFEFE"/>
<path d="M131.528 59.9335C131.528 55.5852 130.359 51.9507 127.957 49.0302C127.729 48.7057 127.535 48.5435 127.405 48.5435C127.275 48.5435 127.113 48.7382 126.885 49.0627L122.633 55.2607C122.405 55.5852 122.405 55.8772 122.633 56.0719C124.126 57.4024 125.327 58.7004 126.301 59.901C126.561 60.258 126.691 60.55 126.691 60.8096C126.691 61.2964 126.236 61.556 125.327 61.556H120.133V71.9724H121.951C125.717 71.9724 128.314 70.934 129.742 68.9221C130.943 67.1698 131.528 64.1844 131.528 59.9335Z" fill="#FEFEFE"/>
<path d="M121.496 72.0049H120.23C119.613 72.0049 119.029 71.8102 118.542 71.4532V73.4651C118.542 75.1201 118.055 77.0022 117.146 79.079C116.334 80.8962 115.425 82.3565 114.484 83.3949C114.127 83.7518 113.672 83.9465 113.088 83.9465H102.31C101.044 83.9465 100.427 83.4273 100.427 82.3889C100.427 81.8048 100.686 81.383 101.238 81.1234C103.251 80.1823 105.718 78.6571 108.705 76.6452C112.536 74.0168 114.484 72.1347 114.484 71.0314C114.484 70.1228 112.763 68.046 109.322 64.8334L112.99 57.2726C113.218 56.8183 113.51 56.7534 113.834 57.1103C115.295 58.6355 116.302 59.609 116.854 60.0308C118.12 61.0692 119.418 61.556 120.652 61.556H121.496V72.0049Z" fill="#FEFEFE"/>
<path d="M100.849 60.4527C100.849 61.7507 100.654 63.3732 100.232 65.3526C99.8098 67.4619 99.3553 69.0195 98.8035 70.0903C98.1866 71.3883 97.5698 72.0373 97.0179 72.0373C96.4011 72.0373 95.8817 71.2585 95.4272 69.6685C94.8104 67.4619 93.4793 59.8361 91.4341 46.7587L98.349 39.5224C98.771 39.0681 99.0956 38.8409 99.2255 38.8409C99.3553 38.8409 99.4527 39.0356 99.5501 39.4575C100.232 42.378 100.654 45.8826 100.784 49.9064C100.849 51.1395 100.849 54.6441 100.849 60.4527Z" fill="#FEFEFE"/>
<path d="M85.3637 43.7409C85.5909 43.9356 85.5909 44.1627 85.3637 44.3899L82.2796 47.4402C82.0523 47.6673 81.8251 47.6673 81.5978 47.4402L78.4813 44.4223C78.2216 44.1952 78.254 43.9031 78.5462 43.6111L81.4355 40.6906C81.6628 40.431 81.9225 40.431 82.2147 40.6906L85.3637 43.7409Z" fill="#FEFEFE"/>
<path d="M88.5775 59.6739C88.5775 63.8599 87.9932 66.8129 86.792 68.5327C85.3636 70.5446 82.7665 71.5506 79.0006 71.5506H77.1826V61.2639H82.3769C83.2859 61.2639 83.7404 61.0368 83.7404 60.5176C83.7404 60.258 83.6105 59.9659 83.3508 59.6414C82.3769 58.4408 81.1757 57.1752 79.6824 55.8448C79.4551 55.6501 79.4551 55.358 79.6824 55.0335L83.9352 48.9329C84.1624 48.5759 84.3247 48.4137 84.4546 48.4137C84.5844 48.4137 84.7792 48.5759 85.0065 48.868C87.4088 51.7885 88.5775 55.358 88.5775 59.6739Z" fill="#FEFEFE"/>
<path d="M78.6432 71.5506V61.3288H76.8902C75.9163 61.3288 75.2345 60.8745 74.8449 59.9984C74.4878 58.6679 74.293 57.8567 74.1957 57.5322C73.9359 56.656 73.4814 56.2341 72.7672 56.2341C71.9556 56.2341 71.4362 56.656 71.2414 57.4997C71.0142 58.3759 70.8194 59.2196 70.6895 59.9984C70.3649 60.8745 69.7481 61.3288 68.8391 61.3288C67.9625 61.3288 67.3457 60.8745 67.0211 59.9984C66.7614 58.7977 66.599 57.954 66.4692 57.4997C66.2744 56.5911 65.7874 56.1692 65.0408 56.1692C64.2616 56.1692 63.7747 56.5911 63.5149 57.4997C63.1903 58.7328 62.9955 59.5765 62.8981 60.0308C62.541 60.9394 61.9242 61.3937 61.0477 61.3937C60.0088 61.3937 59.2946 60.9394 58.9375 59.9984C58.6129 58.6355 58.3856 57.7918 58.2882 57.4348C58.061 56.5262 57.5415 56.0719 56.7949 56.0719C56.1131 56.0719 55.5937 56.5587 55.2041 57.5971C54.9769 58.4083 54.7821 59.2196 54.5224 59.9984C54.0679 60.9394 53.2887 61.3937 52.12 61.3937H50.3994V71.6155H52.1849C53.7757 71.6155 55.269 70.5771 56.6325 68.5003C57.6389 70.5122 59.0024 71.5506 60.723 71.5506C61.8917 71.5506 63.1578 70.5122 64.5538 68.5003C64.9109 69.3115 65.4628 69.993 66.177 70.5771C66.9237 71.2261 67.7353 71.5506 68.5144 71.5506C69.7156 71.5506 71.0791 70.5446 72.54 68.5976C73.9035 70.5446 75.3644 71.5506 76.8577 71.5506H78.6432Z" fill="#FEFEFE"/>
<path d="M51.5358 71.5506H50.0424C49.0036 71.5506 47.9647 71.0314 46.9908 69.9605C46.9908 72.6539 46.374 75.0877 45.1403 77.1969C43.1925 80.6366 39.9461 82.3565 35.4011 82.3565C31.7651 82.3565 28.8758 81.5777 26.7656 79.9876C24.3308 78.2353 23.0972 75.5744 23.0972 72.0698C23.0972 70.3175 23.4543 68.2407 24.136 65.9043C24.9152 63.1136 25.8566 61.7182 26.863 61.7182C27.8045 61.7182 28.259 62.5619 28.259 64.1844C28.259 64.5738 28.2265 65.093 28.0967 65.8069C27.9993 66.5208 27.9343 67.04 27.9343 67.4294C27.9343 70.6744 30.7262 72.2969 36.3426 72.2969C40.5954 72.2969 42.7055 70.8042 42.7055 67.7864C42.7055 67.5592 42.7055 67.3321 42.7055 67.1374L40.92 42.5727C40.92 42.2806 40.9849 42.0859 41.1797 41.9561L48.0946 37.5429C48.3218 37.3807 48.4517 37.3158 48.4842 37.3807C48.5166 37.4456 48.5491 37.6078 48.5491 37.8999V58.8626C48.5491 60.4851 49.2958 61.2639 50.7566 61.2639H51.5358V71.5506Z" fill="#FEFEFE"/>
<path d="M138.475 158.322L145.617 127.202L136.982 127.105L132.177 147.581H132.079L120.425 127.3L112.569 127.235L104.81 158.29L112.763 158.355L116.562 142.519C116.724 141.87 116.854 141.188 116.984 140.507C117.081 139.826 117.146 139.306 117.211 138.755H117.373C117.406 138.917 117.503 139.047 117.6 139.274C117.698 139.501 117.795 139.728 117.893 139.955C118.022 140.215 118.152 140.442 118.25 140.669C118.347 140.929 118.477 141.124 118.574 141.318L128.086 158.322H138.475Z" fill="#004EAF"/>
<path d="M104.388 134.504H94.6483L90.2332 153.617H82.4093L86.792 134.504H76.9229L78.5785 127.43H106.043L104.388 134.504Z" fill="#004EAF"/>
<path d="M64.4568 158.29H55.1071L59.1651 139.469H58.9703C58.7431 139.923 58.4833 140.41 58.2236 140.864C57.9639 141.318 57.7042 141.773 57.4445 142.162C57.1848 142.584 56.9251 142.941 56.7303 143.265C56.503 143.622 56.3082 143.882 56.1459 144.076L47.5754 158.29H38.5179L37.9985 144.044C37.966 142.454 37.7387 140.799 37.6413 139.241H37.4141L31.3108 158.419H21.7988L31.6679 127.3H42.9979L45.2055 148.62C45.4652 148.62 45.7899 147.776 45.9197 147.549C46.147 147.127 46.3417 146.737 46.569 146.316C46.8287 145.926 47.056 145.504 47.3157 145.115C47.5754 144.726 47.8026 144.401 48.0623 144.109L58.1912 127.3L71.9884 127.17L64.4568 158.29Z" fill="#004EAF"/>
<path d="M89.9411 154.915L89.1295 158.355H81.3057L82.0848 154.915H89.9411Z" fill="#E62E21"/>
<path d="M90.233 153.617L89.9408 154.915H82.0845L82.3767 153.617H90.233Z" fill="#FFBE00"/>
</g>
<defs>
<clipPath id="clip0_6_65">
<rect width="168" height="168" fill="white"/>
</clipPath>
</defs>
</svg>
