<svg width="162" height="186" viewBox="0 0 162 186" fill="none" xmlns="http://www.w3.org/2000/svg">
<g clip-path="url(#clip0_3_503)">
<path fill-rule="evenodd" clip-rule="evenodd" d="M77.9204 141.378L83.3831 138.941V169.225L77.9204 171.648V141.378Z" fill="#211E1F"/>
<path fill-rule="evenodd" clip-rule="evenodd" d="M107.895 141.378L113.364 138.832V169.176L107.895 171.732V141.378Z" fill="#211E1F"/>
<path fill-rule="evenodd" clip-rule="evenodd" d="M96.5117 164.714C96.5117 164.714 99.7196 166.449 101.259 169.479C101.259 169.479 88.9597 177.289 87.7362 174.457C87.7362 174.457 85.4636 172.529 96.5117 164.714ZM92.3685 178.869C81.936 183.078 83.8837 173.318 83.8837 173.318C83.8837 169.961 92.3976 161.305 92.3976 161.305V155.952C92.3976 155.952 105.511 163.838 105.511 168.276V170.943C105.511 170.943 105.529 172.521 102.594 173.809L92.3673 178.87L92.3685 178.869Z" fill="#211E1F"/>
<path fill-rule="evenodd" clip-rule="evenodd" d="M139.918 159.715V165.819L97.1299 186V179.882L125.954 166.305V162.864C115.521 167.071 117.477 157.307 117.477 157.307C117.477 153.95 125.983 145.297 125.983 145.297V139.94C125.983 139.94 139.1 147.827 139.1 152.272V154.937C139.1 154.937 139.12 156.519 136.173 157.801L128.472 161.849V165.117L139.915 159.716L139.918 159.715ZM125.955 152.027L125.979 158.486C125.979 158.486 118.734 160.463 121.443 156.614L125.956 152.026L125.955 152.027ZM128.385 157.335V150.012C128.385 150.012 133.017 150.524 133.578 152.673C133.578 152.673 134.756 154.79 128.385 157.335Z" fill="#211E1F"/>
<path fill-rule="evenodd" clip-rule="evenodd" d="M52.2282 174.635C49.1821 176.036 34.4067 183.002 34.4067 183.002C34.4067 183.002 24.8538 187.659 22.6369 179.606C22.6369 179.606 19.7677 171.044 27.0897 167.551L43.8268 159.622V165.675L28.3511 173.147C25.0775 174.705 26.0305 177.276 26.0305 177.276C26.7004 179.991 30.9334 178.642 30.9334 178.642L49.6194 169.772L49.5815 141.379L55.0455 139.016V170.249C55.0455 170.249 55.2705 173.234 52.2256 174.635" fill="#211E1F"/>
<path fill-rule="evenodd" clip-rule="evenodd" d="M72.0304 172.213L55.1392 180.148V174.007L72.3312 165.909L72.3148 163.671C72.3148 163.671 56.5851 173.08 57.3612 163.762C57.3612 163.762 56.4145 154.739 62.9642 153.289C62.9642 153.289 72.6004 151.609 76.2646 164.44C76.2646 164.44 77.2037 170.37 72.0304 172.212M67.7823 160.092L60.9116 162.768C60.9116 162.768 59.8852 159.79 62.4637 158.829C62.4637 158.829 66.8192 157.466 67.7823 160.092Z" fill="#211E1F"/>
<path fill-rule="evenodd" clip-rule="evenodd" d="M84.7495 103.713C128.311 91.6579 161.106 72.755 157.979 61.503C156.188 55.0454 142.954 52.5108 123.771 53.8002L123.421 54.0815L122.448 54.8985C135.201 54.7072 143.735 56.9353 145.041 61.6423C147.666 71.1109 120.071 87.0193 83.4173 97.1655C46.7568 107.308 14.8955 107.853 12.2678 98.3828C11.0178 93.8784 16.6132 87.9136 26.7702 81.8068C27.2492 81.518 27.7308 81.2267 28.2124 80.9442C28.6484 80.2741 29.1097 79.6167 29.5951 78.9238C29.4106 79.0138 28.5903 79.466 28.4057 79.5534C9.57435 88.7496 -1.68227 98.3549 0.206049 105.163C3.3305 116.415 41.1892 115.766 84.7508 103.713" fill="#54C3CF"/>
<path fill-rule="evenodd" clip-rule="evenodd" d="M80.1322 32.9644C42.3671 59.1128 17.2741 88.1733 24.0931 97.8635C28.9997 104.833 49.0798 99.8864 74.0186 86.8318V85.574C55.0507 94.9032 40.1451 98.132 36.3027 92.6776C30.5644 84.5201 51.6848 60.0653 83.464 38.0603C115.247 16.0579 145.676 4.8261 151.417 12.9785C155.987 19.4703 143.665 36.4542 122.23 53.9865L121.114 54.8972L122.504 54.8947C150.048 32.7934 166.572 11.2368 160.883 3.1566C154.061 -6.52981 117.902 6.81734 80.1322 32.9644Z" fill="#F8A61F"/>
</g>
<defs>
<clipPath id="clip0_3_503">
<rect width="162" height="186" fill="white"/>
</clipPath>
</defs>
</svg>
