<svg width="199" height="94" viewBox="0 0 199 94" fill="none" xmlns="http://www.w3.org/2000/svg">
<g clip-path="url(#clip0_6_88)">
<path fill-rule="evenodd" clip-rule="evenodd" d="M150.737 -0.0149841C174.755 -0.0149841 194.286 19.4934 194.286 43.5136C194.286 67.5768 174.755 87.0852 150.737 87.0852C126.676 87.0852 107.188 67.5768 107.188 43.5136C107.188 19.4934 126.676 -0.0149841 150.737 -0.0149841ZM146.848 9.78217C165.096 9.78217 179.883 24.7357 179.883 43.1698C179.883 61.6469 165.096 76.6005 146.848 76.6005C128.556 76.6005 113.769 61.6469 113.769 43.1698C113.769 24.7357 128.556 9.78217 146.848 9.78217Z" fill="#9C0E74"/>
<path fill-rule="evenodd" clip-rule="evenodd" d="M147.019 10.6845C164.882 10.6845 179.37 25.2514 179.37 43.1698C179.37 61.1313 164.882 75.6551 147.019 75.6551C129.155 75.6551 114.709 61.1313 114.709 43.1698C114.709 25.2514 129.155 10.6845 147.019 10.6845ZM150.437 19.8371C163.814 19.8371 174.669 30.1499 174.669 42.8691C174.669 55.5882 163.814 65.858 150.437 65.858C137.061 65.858 126.206 55.5882 126.206 42.8691C126.206 30.1499 137.061 19.8371 150.437 19.8371Z" fill="url(#paint0_linear_6_88)"/>
<path fill-rule="evenodd" clip-rule="evenodd" d="M91.29 20.5676C91.3755 17.9035 93.1705 16.8722 94.8372 16.8722C95.4355 16.8293 96.7176 16.8293 97.2305 16.8293C97.145 23.1029 97.3587 29.2476 97.2732 35.5212C97.0168 40.8495 92.3585 45.748 87.23 46.4785C87.1873 44.5879 87.3155 42.2245 87.2728 40.3338C89.1532 38.701 90.7772 37.4119 91.2473 34.5759C91.2473 30.1499 91.29 24.9935 91.29 20.5676Z" fill="#575758"/>
<path fill-rule="evenodd" clip-rule="evenodd" d="M69.3661 20.9973C69.3661 17.9465 70.9474 16.8293 72.956 16.8722L75.4775 16.9152V25.9819C75.3493 30.4078 71.2893 34.7477 67.1438 35.4353C61.759 36.2517 57.4853 34.6188 55.8613 32.6852C54.3228 33.9743 52.6133 35.4353 49.7927 35.4782C46.7584 35.5212 43.724 35.5642 40.6897 35.6071C38.6811 35.5642 37.0998 35.3923 35.5186 34.8766C35.5613 35.6501 35.5186 37.1541 35.4331 38.3142C34.7493 42.2675 31.5013 46.2207 26.4156 46.3926L17.3982 46.4785C12.398 46.4785 7.73964 42.0526 7.69691 35.6501C7.73964 32.8141 7.65417 30.3648 7.69691 27.4858C7.73964 25.4233 9.32091 23.9193 11.0731 23.8763H13.6801L13.7228 35.3063C13.7228 38.5291 16.3725 40.5487 18.4238 40.4627C20.7744 40.4627 22.0565 40.5057 24.407 40.5057C27.4841 40.2479 29.4927 38.2713 29.4927 35.4782C29.3217 25.3373 29.5782 15.8409 29.4499 5.70003C29.4499 3.20777 31.1594 1.78977 32.9971 1.7468H35.604V24.349C35.6895 27.3569 37.4845 29.3765 40.2624 29.5484C43.2967 29.5913 45.1771 29.5484 48.2114 29.5913C50.8611 29.6343 52.7415 27.3569 52.8697 25.724C52.9125 23.5755 52.827 22.0286 52.8697 19.9231C52.9125 18.1184 54.8783 16.6574 56.2887 16.7003C56.9725 16.7003 58.1691 16.6144 58.9811 16.6144C58.9383 19.2356 58.9811 22.0286 58.9383 24.5209C59.0238 27.3569 60.776 29.0327 62.1436 29.2046C63.3402 29.2476 64.1095 29.2476 65.2207 29.2476C67.4857 29.1616 69.2807 27.228 69.3661 25.4233C69.4089 23.5755 69.3661 20.9973 69.3661 20.9973Z" fill="#575758"/>
<path fill-rule="evenodd" clip-rule="evenodd" d="M80.264 5.27034C80.3494 2.64917 82.1444 1.61789 83.8111 1.61789C84.4094 1.61789 85.6915 1.61789 86.2044 1.61789C86.1189 7.7626 86.3753 29.2476 86.2898 35.3923H80.1357C80.1357 31.0093 80.264 9.65327 80.264 5.27034Z" fill="#575758"/>
<path fill-rule="evenodd" clip-rule="evenodd" d="M52.998 11.5439L58.8956 11.458V5.18439H56.6306C54.451 5.18439 52.9552 6.21567 52.998 8.62199V11.5439Z" fill="#575758"/>
<path fill-rule="evenodd" clip-rule="evenodd" d="M73.2551 40.162L67.3574 40.2049V46.4785H69.6225C71.8021 46.4785 73.2551 45.4473 73.2124 43.0839L73.2551 40.162Z" fill="#575758"/>
<path fill-rule="evenodd" clip-rule="evenodd" d="M65.7761 40.162L59.8784 40.2049V46.4785H62.1862C64.3658 46.4785 65.8188 45.4473 65.7761 43.0839V40.162Z" fill="#575758"/>
<path fill-rule="evenodd" clip-rule="evenodd" d="M45.5619 11.5439L51.4596 11.458V5.18439H49.1946C47.015 5.18439 45.5192 6.21567 45.5619 8.62199V11.5439Z" fill="#575758"/>
<path fill-rule="evenodd" clip-rule="evenodd" d="M26.1167 60.5727H30.134V56.2327H28.5954C27.0996 56.2327 26.1167 56.9632 26.1167 58.5961V60.5727Z" fill="#575758"/>
<path fill-rule="evenodd" clip-rule="evenodd" d="M7.74 79.3936H11.7145V69.5964C13.7659 69.4245 14.7916 70.0691 15.5608 71.2293C17.5267 74.1942 18.0823 76.8583 18.5097 79.3506H23.3389C21.8004 73.9364 20.9029 70.4128 17.313 67.9636C19.7918 68.0065 21.6295 65.2994 21.7149 62.6782C21.8431 59.7993 20.2192 56.7054 16.1164 56.4906H10.7743C8.72295 56.4906 7.78274 57.6078 7.69727 59.7563L7.74 79.3936ZM11.7145 66.2018V60.186L14.6206 60.143C16.3301 60.186 17.3558 61.4321 17.3985 63.065C17.4413 64.483 16.7147 65.9869 14.7061 66.2018H11.7145Z" fill="#575758"/>
<path fill-rule="evenodd" clip-rule="evenodd" d="M42.2285 77.9326C40.0489 80.21 37.0573 80.167 34.6641 77.5459C32.57 75.2255 32.8264 68.4792 33.9375 65.815C35.9889 60.8735 40.7754 62.5493 42.143 64.44C43.2969 62.5064 44.7072 62.8501 46.4594 62.8501L46.4167 80.8545C46.5022 84.55 44.0234 86.6555 39.8352 86.4406C37.6129 86.3117 35.3051 85.4094 33.2965 84.507C33.7239 83.4327 34.1512 82.3155 34.5359 81.1983C35.7325 81.7139 36.9291 82.2725 38.1685 82.6163C40.0916 83.089 42.143 83.089 42.2285 80.3819V77.9326ZM39.8352 66.2877C41.2455 66.2877 42.3994 68.5222 42.3994 71.2293C42.3994 73.9793 41.2455 76.1708 39.8352 76.1708C38.4676 76.1708 37.3137 73.9793 37.3137 71.2293C37.3137 68.5222 38.4676 66.2877 39.8352 66.2877Z" fill="#575758"/>
<path fill-rule="evenodd" clip-rule="evenodd" d="M72.6573 79.3935L68.3836 79.3506L68.4263 60.3149L63.0415 60.4008L63.0842 56.6194H75.6916C78.1703 56.6624 78.1703 58.4672 78.1703 60.2719H72.7L72.6573 79.3935Z" fill="#575758"/>
<path fill-rule="evenodd" clip-rule="evenodd" d="M81.418 72.2605C84.1531 72.2176 87.2302 72.3035 90.0081 72.2605C90.0508 70.4988 90.1363 67.4909 88.8969 65.2994C87.6575 63.4517 85.6489 62.5493 83.5121 62.6782C81.418 62.8071 79.623 63.4517 78.2982 65.6002C76.7597 68.9948 76.9306 72.8191 77.999 75.913C78.9392 78.0615 80.9051 79.3506 83.4266 79.6514C85.5634 79.9092 87.9994 79.2217 90.0935 78.1904C89.5807 76.9443 89.1961 75.913 88.6832 74.7098C85.478 76.6005 81.4607 77.0302 81.418 72.2605ZM81.4607 69.6823H85.9053C85.9481 68.1354 85.9053 66.0729 83.7685 66.0299C81.5889 66.0299 81.3752 68.1784 81.4607 69.6823Z" fill="#575758"/>
<path fill-rule="evenodd" clip-rule="evenodd" d="M50.4766 58.1234C50.5193 56.2757 51.8441 55.2874 52.9553 55.2874C53.3399 55.2874 54.2374 55.2444 54.5366 55.2444L54.5793 64.2681C56.9726 61.9907 62.6138 61.518 62.7848 67.1041L62.742 79.3076L58.853 79.3506V67.7916C58.853 64.6548 54.5366 66.1158 54.5793 68.651L54.622 79.3506H50.4766C50.4766 76.2138 50.4766 61.2172 50.4766 58.1234Z" fill="#575758"/>
<path fill-rule="evenodd" clip-rule="evenodd" d="M26.1167 64.5259C26.2022 63.2368 27.4843 62.5923 28.5954 62.5493C29.0228 62.5493 29.8775 62.5493 30.2194 62.5493V79.3076L26.1594 79.3506C26.1594 77.1591 26.1167 66.7174 26.1167 64.5259Z" fill="#575758"/>
<path fill-rule="evenodd" clip-rule="evenodd" d="M93.0854 58.0375C93.1282 56.1898 94.4103 55.2014 95.5642 55.2014C95.9488 55.2014 96.8036 55.2014 97.1454 55.2014L97.1882 79.3076L93.0854 79.3506C93.0854 76.2138 93.0854 61.1743 93.0854 58.0375Z" fill="#575758"/>
</g>
<defs>
<linearGradient id="paint0_linear_6_88" x1="114.692" y1="43.1776" x2="179.357" y2="43.1776" gradientUnits="userSpaceOnUse">
<stop stop-color="#9B367C"/>
<stop offset="0.478431" stop-color="#B06398"/>
<stop offset="1" stop-color="#CAAFC4"/>
</linearGradient>
<clipPath id="clip0_6_88">
<rect width="199" height="94" fill="white"/>
</clipPath>
</defs>
</svg>
