<svg version="1.2" xmlns="http://www.w3.org/2000/svg" viewBox="0 0 1927 2200" width="1927" height="2200">
	<defs>
		<clipPath clipPathUnits="userSpaceOnUse" id="cp1">
			<path d="m0 0h1927v2200h-1927z"/>
		</clipPath>
	</defs>
	<style>
		.s0 { fill: #002a63 } 
		.s1 { fill: #f26322 } 
	</style>
	<g id="Page 1" clip-path="url(#cp1)">
		<path id="Path 1" class="s0" d="m962.9 27.6l1.14 0.19c306.17 557.17 613.11 1113.98 918.96 1671.31-139.19-0.06-278.4 0.09-417.6-0.08-167.69-306.21-334.63-612.89-501.73-919.46-3.11 3.63-4.86 8.13-7.25 12.21-165.09 302.35-329.71 604.96-495.07 907.17-139.14 0.43-278.31-0.09-417.45 0.27 1.48-4.19 3.68-8.02 5.81-11.86 304.5-553.18 608.52-1106.66 913.19-1659.75zm-953.4 1859.07c16.65-42.05 59.75-71.88 105.06-72.04 58.32-0.03 116.63-0.17 174.94 0.06 0.21 25.6 0.25 51.21-0.02 76.81-58.33 0.27-116.69-0.12-175.02 0.19-20.13 0.48-37.52 19.16-36.46 39.31 0 19.5 16.98 36.77 36.4 37.5 27.83 0.37 55.66-0.08 83.52 0.21 37.66 1.08 73.85 22.39 93.52 54.48 19.46 30.6 22.91 70.69 8.93 104.16-13.35 33.21-42.95 59.3-77.62 68.32-18.9 5.48-38.77 3.52-58.17 3.87-48.08-0.21-96.21 0.44-144.29-0.31-0.02-25.52-0.31-51.06 0.15-76.58 57.79-0.36 115.58 0 173.37-0.17 20.61 0.37 38.96-18.54 38.07-39.13 0.12-19.39-16.63-36.97-36.05-37.68-27.79-0.46-55.6 0.04-83.39-0.25-38.63-0.96-75.63-23.27-95.19-56.46-18.46-30.4-21.42-69.48-7.75-102.29zm338.08-71.98c25.61-0.06 51.25-0.42 76.86 0.18 0.06 51.21-0.31 102.46 0.16 153.69 51.27-0.02 102.57 0.46 153.82-0.25 0-51.21-0.29-102.46 0.14-153.66 25.52-0.13 51.04-0.07 76.56-0.05 0.51 128.23 0.23 256.48 0.13 384.71-25.58 0.38-51.23 0.48-76.81-0.04-0.17-51.02-0.11-102.04-0.02-153.06-51.23-0.81-103.11-1.63-154.15 0.41 0.27 50.9 0.23 101.82 0.02 152.73-25.58 0.25-51.23 0.53-76.81-0.12-0.06-128.19-0.25-256.38 0.1-384.54zm557.65 0.27c71.29 127.92 141.81 256.39 211.85 385.04h-95.54c-38.89-70.1-76.64-140.85-115.48-210.98-1.73 1.21-3 2.79-3.85 4.81-37.52 68.73-74.79 137.61-112.61 206.17h-95.75c70-128.6 141.17-256.56 211.38-385.04zm135-0.04c102.58-0.67 205.25-0.27 307.85-0.21 0.25 25.58 0.25 51.21 0 76.79-38.46 0.77-77.16-0.96-115.48 0.87 0.32 102.32 0.25 204.67 0.05 307-25.61 0.21-51.25 0.55-76.82-0.16-0.14-102.44-0.02-204.88-0.06-307.31-38.5-0.86-77.04 0.31-115.54-0.59 0.06-25.48 0.1-50.93 0-76.39zm346.73-0.21c83.29-0.11 166.64-0.4 249.94 0.16 0.06 25.48 0.08 50.98-0.02 76.48-57.63 0.73-115.3-0.12-172.92 0.42-0.4 25.56-0.5 51.19 0.04 76.77 51.13 0.33 102.29-0.17 153.42 0.23 0.41 25.56 0.58 51.19-0.09 76.75-51.12 0.23-102.25-0.27-153.37 0.23-0.31 25.56-0.69 51.21 0.21 76.75 57.54 0.44 115.16-0.65 172.66 0.52 0.21 25.65 0.11 51.31 0.02 76.98h-250.02c-0.1-128.42-0.37-256.88 0.13-385.29zm288.77-0.13c25.5 0.09 51.02-0.16 76.52 0.13 0.44 102.56-0.1 205.17 0.27 307.75 57.81 0.29 115.65-0.17 173.46 0.23 0.6 25.52 0.25 51.1 0.17 76.64-83.5 0.44-167.07 0.27-250.59 0.09-0.21-128.27-0.54-256.61 0.17-384.84z"/>
		<path id="Path 2" class="s1" d="m939.98 1198.42c99.9-10.25 201.31 45.5 249.79 132.73 39.75 69.45 44.13 157.56 11.92 230.79-25.38 58.62-73.13 107.16-131.44 133.33-67.19 30.88-147.81 30.77-214.85-0.44-60.67-27.5-109.75-79.27-133.98-141.29-26.9-67.77-23.42-146.94 9.81-211.89 39.33-78.9 120.83-135.25 208.75-143.23zm-43.15 886.31c28.5-5 58.36 14.85 64.71 43.06 7.94 28.79-10.62 61.25-39.33 69.21-30.65 10.27-66.48-10.73-72.9-42.27-8.25-31.4 15.34-66.08 47.52-70z"/>
	</g>
</svg>