<?xml version="1.0" encoding="UTF-8" standalone="no"?>
<svg xmlns="http://www.w3.org/2000/svg" version="1.1" viewBox="0.00 0.00 1200.00 1190.00">
  <path fill="#28348a" d="   M 608.33 294.92   L 435.02 290.64   Q 434.57 290.63 434.36 291.03   L 378.53 401.32   Q 378.27 401.84 377.67 401.85   Q 356.08 401.90 192.12 401.81   Q 190.53 401.81 189.73 401.63   A 1.67 1.67 0.0 0 1 188.41 400.00   L 188.41 362.76   Q 188.41 362.23 188.93 362.35   Q 197.94 364.49 201.77 365.24   Q 261.49 376.93 315.86 356.79   C 367.80 337.54 409.34 297.67 428.65 245.92   C 438.92 218.39 442.42 188.77 438.98 159.44   C 434.01 117.18 416.76 78.34 392.36 43.56   A 0.43 0.42 -33.3 0 1 392.49 42.94   L 425.09 24.12   Q 425.64 23.80 426.10 24.24   Q 454.91 51.95 469.20 88.97   Q 478.24 112.37 482.10 138.70   A 1.12 1.12 0.0 0 0 483.21 139.66   L 654.53 138.26   Q 655.07 138.25 655.10 137.71   Q 655.84 122.08 651.36 107.23   Q 643.71 81.90 622.01 67.30   C 603.61 54.92 580.60 49.53 558.63 48.09   Q 558.13 48.06 557.92 47.60   Q 549.27 28.52 541.02 5.77   A 0.37 0.37 0.0 0 1 541.35 5.27   Q 587.51 2.84 633.19 12.60   C 703.31 27.59 768.25 62.58 819.99 112.44   Q 858.36 149.42 883.55 194.88   Q 909.12 241.03 917.34 292.82   A 0.59 0.58 -3.7 0 1 916.75 293.49   L 713.75 290.61   Q 713.41 290.60 713.26 290.91   L 661.73 400.07   A 0.66 0.66 0.0 0 1 661.13 400.45   L 560.13 400.45   Q 559.50 400.45 559.77 399.88   L 608.54 295.25   A 0.24 0.23 13.1 0 0 608.33 294.92   Z"></path>
  <path fill="#28348a" d="   M 325.97 80.72   Q 350.63 61.56 354.56 58.83   C 356.69 57.34 359.07 55.20 361.57 57.67   C 397.79 93.58 415.85 143.30 409.86 194.01   Q 405.57 230.29 386.78 260.56   C 362.72 299.34 324.00 326.52 279.05 335.28   Q 237.45 343.40 193.89 332.64   Q 191.19 331.98 190.39 331.15   A 1.34 1.32 -68.2 0 1 190.03 330.29   Q 189.88 326.60 190.37 323.10   Q 190.58 321.59 194.56 288.56   Q 194.86 286.08 195.59 284.68   Q 196.31 283.30 197.81 283.71   Q 206.35 286.02 211.18 287.11   C 267.14 299.75 326.18 273.70 349.17 219.98   Q 362.07 189.82 356.63 156.64   C 352.52 131.57 340.62 107.84 324.67 87.93   C 323.83 86.88 323.09 85.45 322.60 84.41   Q 322.39 83.95 322.69 83.56   Q 323.25 82.83 325.97 80.72   Z"></path>
  <path fill="#28348a" d="   M 273.92 203.41   C 291.02 182.70 286.23 156.08 267.94 137.92   A 0.49 0.49 0.0 0 1 267.92 137.24   Q 280.36 123.45 297.70 106.23   Q 298.09 105.84 298.49 106.22   C 314.68 122.12 327.46 144.49 329.31 167.37   Q 332.25 203.76 307.38 230.37   C 280.75 258.86 239.50 265.61 203.93 250.75   A 0.58 0.58 0.0 0 1 203.62 249.97   L 220.76 212.30   A 0.46 0.46 0.0 0 1 221.39 212.08   C 228.94 215.91 237.61 218.28 245.99 217.72   Q 263.03 216.61 273.92 203.41   Z"></path>
  <path fill="#28348a" d="   M 634.82 584.92   L 460.73 584.92   Q 460.42 584.92 460.44 585.23   Q 461.93 605.41 469.61 623.73   Q 479.80 648.03 502.79 660.02   Q 515.36 666.57 530.65 669.77   Q 544.13 672.59 556.14 673.85   A 1.20 1.19 80.1 0 1 557.09 674.52   L 577.28 716.17   A 0.41 0.41 0.0 0 1 576.94 716.76   Q 501.53 721.54 431.23 696.59   C 365.09 673.11 306.38 630.48 261.52 575.31   C 227.56 533.54 202.07 484.50 192.09 431.74   A 0.45 0.44 -5.8 0 1 192.53 431.21   L 400.96 431.21   Q 401.57 431.21 401.83 430.65   L 453.92 320.32   A 0.66 0.66 0.0 0 1 454.52 319.94   L 557.43 320.32   Q 558.40 320.32 558.00 321.21   L 508.41 430.17   A 0.33 0.33 0.0 0 0 508.71 430.64   L 682.21 431.27   Q 682.78 431.27 683.04 430.77   Q 690.33 416.31 696.31 402.81   Q 699.10 396.51 720.26 348.75   Q 726.43 334.82 734.04 320.03   Q 734.24 319.63 734.69 319.63   Q 751.43 319.51 770.50 319.80   Q 770.53 319.80 921.68 321.76   Q 922.18 321.77 922.24 322.26   L 926.59 359.61   Q 926.64 360.10 926.16 360.00   Q 917.15 358.05 907.28 356.50   C 831.92 344.66 755.26 371.54 709.15 433.48   Q 702.96 441.80 698.14 450.16   Q 664.21 509.08 675.95 576.73   Q 677.60 586.23 680.54 596.17   Q 691.34 632.61 713.59 663.71   Q 716.22 667.40 724.13 678.15   Q 724.57 678.76 723.89 679.06   C 713.83 683.48 706.23 689.30 695.69 696.97   Q 693.52 698.55 691.68 697.33   Q 691.28 697.07 689.23 694.79   Q 678.35 682.72 667.94 667.86   Q 645.29 635.53 637.90 597.94   Q 636.58 591.22 635.46 585.46   Q 635.36 584.92 634.82 584.92   Z"></path>
  <path fill="#28348a" d="   M 788.99 633.63   A 0.90 0.89 -42.0 0 1 788.93 634.71   Q 786.70 637.27 784.13 639.14   Q 777.13 644.20 755.36 660.61   Q 753.13 662.29 751.27 662.60   Q 750.80 662.68 750.44 662.36   Q 748.71 660.85 746.73 658.67   C 718.78 627.86 703.08 588.39 702.97 546.78   C 702.83 495.12 727.73 444.87 769.94 415.14   Q 799.50 394.32 835.25 387.94   C 862.28 383.12 889.79 384.64 917.37 390.64   Q 920.64 391.35 922.39 392.28   C 924.05 393.16 924.24 394.44 924.13 396.26   Q 922.97 415.17 919.32 435.26   Q 918.85 437.86 916.17 437.14   C 871.38 425.23 822.98 431.38 788.50 463.99   C 759.25 491.65 746.55 533.34 755.34 572.68   Q 761.67 600.99 780.11 623.52   Q 781.12 624.75 784.62 628.57   Q 788.14 632.41 788.99 633.63   Z"></path>
  <path fill="#28348a" d="   M 890.35 511.18   C 876.29 506.59 858.62 504.00 845.63 513.22   Q 834.16 521.36 830.83 535.38   C 826.46 553.79 831.74 572.03 845.20 585.58   A 1.34 1.33 -54.6 0 1 845.45 587.11   Q 844.12 589.80 842.55 591.30   Q 829.02 604.31 824.05 609.30   Q 822.60 610.75 818.01 615.00   Q 816.20 616.68 814.45 615.11   Q 802.21 604.11 793.65 589.40   C 762.61 536.11 800.29 474.11 857.04 464.00   Q 884.40 459.13 909.87 469.86   A 0.71 0.71 0.0 0 1 910.29 470.69   Q 909.47 474.03 908.15 477.15   Q 908.04 477.42 894.83 506.11   Q 893.86 508.23 892.43 510.44   A 1.81 1.80 25.2 0 1 890.35 511.18   Z"></path>
  <path fill="#28348a" d="   M 1199.42 669.26   Q 1199.81 669.14 1199.83 669.55   Q 1199.92 670.96 1199.26 672.25   Q 1193.04 684.36 1184.55 693.06   Q 1179.10 698.65 1168.64 706.40   C 1140.02 727.59 1121.23 739.51 1080.63 766.64   C 1062.61 778.67 1047.34 788.76 1032.03 801.76   Q 1031.32 802.36 1030.08 802.31   Q 1029.49 802.28 1029.72 801.73   Q 1031.05 798.48 1033.44 794.70   Q 1038.64 786.48 1042.81 781.30   C 1046.83 776.30 1051.67 772.00 1057.19 767.73   Q 1075.37 753.65 1103.60 735.09   Q 1140.40 710.89 1160.23 697.73   Q 1169.96 691.27 1181.94 682.83   C 1186.32 679.74 1191.13 674.86 1194.04 672.31   Q 1196.58 670.09 1199.42 669.26   Z"></path>
  <path fill="#28348a" d="   M 1151.91 778.59   C 1147.78 775.00 1143.13 772.02 1139.56 769.39   A 2.35 2.35 0.0 0 1 1138.66 766.98   Q 1139.14 764.88 1141.57 760.09   Q 1145.69 751.95 1150.86 743.98   Q 1151.34 743.25 1152.18 743.45   Q 1159.59 745.16 1164.42 751.47   C 1168.18 756.38 1167.96 760.37 1165.70 765.71   Q 1162.86 772.42 1157.71 778.21   Q 1154.99 781.27 1151.91 778.59   Z"></path>
  <path fill="#28348a" d="   M 319.56 767.40   Q 319.84 770.36 319.47 772.23   Q 317.38 782.79 315.47 802.51   Q 313.99 817.73 310.91 847.94   C 308.92 867.53 304.43 886.16 292.76 901.59   Q 292.12 902.43 291.97 901.39   Q 291.89 900.82 292.08 899.77   Q 295.59 880.73 297.04 864.00   Q 300.26 826.62 300.95 817.75   Q 301.83 806.33 305.00 797.50   Q 309.00 786.37 314.89 773.88   Q 316.98 769.45 319.06 767.23   A 0.29 0.29 0.0 0 1 319.56 767.40   Z"></path>
  <path fill="#28348a" d="   M 1155.56 790.00   A 0.42 0.42 0.0 0 0 1156.22 789.93   C 1159.63 784.42 1163.80 777.78 1168.06 773.42   A 2.32 2.30 -57.8 0 1 1170.49 772.86   Q 1177.61 775.42 1182.44 781.54   C 1186.25 786.39 1186.16 791.13 1183.23 796.72   C 1181.64 799.75 1173.88 812.12 1169.41 810.78   Q 1168.20 810.41 1167.29 809.71   Q 1164.23 807.36 1155.04 799.78   A 0.67 0.66 -58.0 0 0 1154.02 800.02   C 1151.39 805.69 1145.95 814.92 1140.44 816.56   A 1.38 1.35 -41.8 0 1 1139.56 816.52   Q 1137.87 815.83 1134.69 813.72   Q 1128.93 809.90 1123.20 805.06   A 1.06 1.06 0.0 0 1 1122.91 803.82   Q 1127.03 794.45 1134.22 783.71   Q 1136.86 779.78 1138.35 778.36   A 0.90 0.88 -57.9 0 1 1139.22 778.15   C 1146.54 780.26 1150.57 784.72 1155.56 790.00   Z"></path>
  <path fill="#28348a" d="   M 690.32 830.31   Q 682.34 825.49 675.30 820.70   Q 672.00 818.45 673.18 815.07   Q 677.69 802.16 685.73 791.70   A 1.50 1.50 0.0 0 1 687.13 791.12   Q 693.95 791.99 698.62 796.77   C 703.90 802.16 706.35 807.57 703.23 814.96   Q 700.78 820.77 696.02 826.27   Q 693.85 828.79 690.85 830.33   A 0.54 0.54 0.0 0 1 690.32 830.31   Z"></path>
  <path fill="#28348a" d="   M 172.66 928.42   Q 171.79 929.68 171.00 930.50   A 0.37 0.37 0.0 0 1 170.37 930.17   Q 173.26 914.64 174.73 899.56   Q 178.29 862.95 179.37 847.73   Q 180.41 832.95 185.79 819.89   Q 190.11 809.43 194.15 800.92   Q 195.45 798.20 196.97 796.69   Q 198.92 794.76 198.45 797.46   Q 196.87 806.50 195.69 817.03   Q 191.14 857.41 189.96 871.74   C 188.26 892.24 184.20 911.80 172.66 928.42   Z"></path>
  <path fill="#28348a" d="   M 539.60 919.82   Q 540.59 914.93 542.01 899.25   Q 544.35 873.38 546.55 847.50   C 547.01 842.05 548.01 836.66 549.84 831.16   Q 555.26 814.83 562.64 801.37   Q 563.49 799.81 564.00 799.51   Q 565.51 798.61 565.30 800.41   Q 564.74 805.18 563.91 809.80   Q 563.13 814.17 562.57 819.18   Q 560.62 836.66 556.55 878.50   Q 554.68 897.77 549.27 912.79   Q 545.26 923.94 538.43 932.99   Q 537.18 934.65 537.44 932.59   Q 538.16 926.90 539.60 919.82   Z"></path>
  <path fill="#28348a" d="   M 748.84 913.95   C 749.60 917.96 749.69 923.82 751.14 927.66   Q 754.40 936.29 763.81 939.58   Q 776.13 943.89 790.58 944.57   Q 818.57 945.90 856.49 942.90   Q 882.24 940.86 908.45 934.95   Q 925.81 931.03 942.44 923.70   Q 955.36 918.01 964.53 907.55   Q 970.84 900.36 973.34 897.61   Q 977.39 893.16 982.57 891.30   C 986.63 889.83 990.93 891.51 995.55 893.54   Q 1001.16 896.00 1004.87 891.13   C 1008.52 886.31 1009.70 879.52 1010.09 873.77   C 1010.78 863.77 1011.08 852.99 1012.92 842.56   Q 1013.83 837.42 1015.61 832.15   Q 1019.88 819.55 1025.74 808.25   Q 1026.89 806.04 1028.80 804.77   A 0.56 0.56 0.0 0 1 1029.67 805.27   Q 1029.45 808.30 1029.18 809.80   Q 1026.56 823.94 1026.42 824.73   C 1024.35 836.93 1023.45 848.50 1021.91 860.03   Q 1019.55 877.55 1012.86 893.39   Q 1009.07 902.35 1001.50 909.21   C 994.69 915.36 987.70 913.01 980.15 910.16   Q 975.12 908.26 971.43 911.38   Q 968.87 913.54 966.90 916.90   C 957.38 933.19 945.27 945.85 928.06 953.55   Q 919.02 957.59 906.75 961.48   Q 845.45 980.93 781.62 978.66   C 774.58 978.41 767.21 977.53 760.25 975.80   C 750.88 973.47 742.63 966.97 740.91 957.11   Q 739.81 950.81 740.20 946.03   Q 741.03 935.70 744.15 922.17   Q 745.35 917.00 748.25 913.78   A 0.34 0.34 0.0 0 1 748.84 913.95   Z"></path>
  <path fill="#28348a" d="   M 686.47 908.56   Q 688.00 909.77 690.70 909.89   Q 697.69 910.22 708.42 909.37   Q 715.87 908.78 719.70 907.44   C 723.75 906.02 727.60 904.57 730.18 904.83   A 1.40 1.39 -84.9 0 1 731.42 906.32   Q 730.84 914.02 726.03 920.54   C 721.60 926.54 717.67 931.49 714.24 937.01   C 703.74 953.90 692.69 971.26 673.36 978.09   C 665.20 980.97 654.91 981.75 647.42 977.29   C 636.48 970.77 632.78 955.35 632.50 943.33   Q 632.17 928.81 633.22 916.75   Q 634.83 898.22 639.39 870.32   Q 640.80 861.70 642.27 857.77   Q 650.60 835.64 652.67 830.17   Q 653.38 828.31 654.29 826.99   Q 655.51 825.21 655.49 827.37   Q 655.44 832.66 654.21 839.95   Q 650.41 862.47 648.63 874.16   Q 646.58 887.68 645.74 897.76   Q 644.43 913.42 647.59 925.06   Q 649.84 933.35 656.26 939.15   C 668.00 949.73 685.82 943.94 698.27 937.51   Q 706.53 933.25 711.96 925.40   A 0.41 0.40 13.5 0 0 711.57 924.77   C 699.92 926.31 690.11 927.54 679.92 926.40   Q 675.85 925.95 674.52 924.96   C 669.88 921.52 672.81 914.33 675.36 910.11   Q 679.68 902.95 686.14 897.28   Q 689.63 894.21 699.44 887.34   Q 710.31 879.72 720.68 874.61   A 0.37 0.37 0.0 0 0 720.70 873.95   Q 717.87 872.31 715.74 870.00   A 1.29 1.28 23.9 0 1 715.40 869.13   Q 715.40 867.03 716.37 864.64   Q 720.21 855.18 730.64 841.41   Q 733.95 837.04 738.45 837.79   Q 748.64 839.48 754.96 844.25   Q 758.08 846.60 759.46 849.04   C 761.43 852.53 759.79 857.47 757.80 860.79   C 754.50 866.30 750.55 871.80 745.36 875.24   Q 743.64 876.37 739.88 877.81   Q 711.22 888.71 686.47 907.76   Q 685.96 908.16 686.47 908.56   Z"></path>
  <path fill="#28348a" d="   M 1173.99 830.79   A 0.75 0.75 0.0 0 1 1175.10 831.48   C 1174.73 839.31 1170.93 847.60 1166.33 854.83   Q 1161.78 861.98 1154.33 865.02   Q 1151.19 866.30 1144.01 867.19   Q 1139.57 867.75 1135.93 871.69   Q 1129.91 878.23 1119.88 891.14   Q 1116.33 895.70 1109.92 901.92   Q 1104.35 907.30 1097.09 906.33   C 1089.82 905.37 1082.09 904.63 1075.03 906.19   Q 1062.21 909.03 1051.33 917.33   Q 1039.01 926.74 1029.05 938.56   Q 1025.08 943.26 1018.45 951.47   Q 1011.33 960.28 1007.69 964.21   C 995.49 977.35 981.54 988.41 965.78 997.02   Q 955.92 1002.41 951.20 1004.70   Q 949.86 1005.35 946.87 1005.64   Q 946.39 1005.69 946.37 1005.21   Q 946.28 1003.06 947.95 1001.93   Q 971.79 985.81 987.82 971.08   Q 1003.58 956.60 1014.04 942.54   Q 1018.86 936.07 1028.27 922.77   Q 1042.29 902.95 1062.43 887.69   C 1074.63 878.45 1091.00 870.66 1106.53 873.07   Q 1108.23 873.34 1111.52 873.76   C 1118.30 874.64 1123.18 872.78 1127.60 867.13   Q 1131.15 862.59 1136.51 856.50   C 1140.43 852.05 1147.40 845.79 1153.85 846.00   Q 1157.85 846.12 1160.94 845.88   Q 1164.89 845.58 1167.04 841.78   Q 1167.53 840.92 1171.51 833.49   Q 1172.51 831.62 1173.99 830.79   Z"></path>
  <path fill="#28348a" d="   M 858.78 869.76   A 0.72 0.71 41.9 0 0 859.96 869.70   Q 865.84 860.21 871.84 852.57   A 1.20 1.18 25.6 0 1 873.07 852.15   Q 881.95 854.34 887.17 862.01   Q 891.16 867.88 888.29 874.69   Q 884.52 883.65 876.71 890.24   C 875.44 891.31 873.70 891.46 872.20 890.56   Q 869.74 889.08 867.52 887.23   Q 862.79 883.26 858.71 880.02   A 0.67 0.67 0.0 0 0 857.70 880.24   Q 853.19 889.08 847.58 894.68   Q 843.96 898.29 840.40 895.82   Q 833.35 890.92 826.89 885.34   A 1.79 1.77 29.7 0 1 826.36 883.44   Q 826.98 881.57 828.03 879.54   Q 834.08 867.80 841.52 857.82   A 0.90 0.90 0.0 0 1 842.57 857.52   Q 852.31 861.32 858.78 869.76   Z"></path>
  <path fill="#28348a" d="   M 394.33 876.10   C 397.63 871.11 401.72 864.22 406.49 858.94   A 1.17 1.16 -66.5 0 1 407.46 858.55   C 413.15 858.98 418.00 863.18 421.42 867.55   C 428.15 876.16 420.75 886.06 415.35 892.61   Q 413.44 894.93 410.65 896.65   C 409.33 897.45 408.29 897.57 406.95 896.77   Q 404.62 895.39 404.10 894.96   Q 399.69 891.30 393.55 886.29   A 0.84 0.84 0.0 0 0 392.27 886.55   C 389.29 892.21 385.56 898.17 380.59 902.06   C 377.75 904.28 374.58 901.95 371.82 899.76   Q 371.77 899.72 361.77 891.86   A 2.24 2.23 -62.9 0 1 361.01 889.48   Q 361.29 888.51 361.93 887.19   Q 367.79 875.05 376.09 863.95   Q 376.27 863.70 376.57 863.78   C 383.68 865.72 388.85 870.21 393.58 876.13   Q 393.98 876.63 394.33 876.10   Z"></path>
  <path fill="#28348a" d="   M 101.99 973.72   Q 115.46 964.01 123.30 949.05   Q 128.03 940.03 128.59 930.04   C 129.19 919.40 128.15 907.75 127.70 898.52   Q 127.50 894.49 129.10 888.82   Q 131.21 881.32 136.13 868.88   Q 137.98 864.21 140.64 860.69   Q 142.75 857.91 143.09 861.38   Q 143.48 865.36 143.29 870.77   C 142.63 889.63 142.71 898.15 140.96 912.24   Q 134.50 964.22 98.98 1000.47   C 83.58 1016.19 63.78 1026.66 41.31 1025.41   Q 6.89 1023.49 0.98 990.05   Q 0.06 984.81 0.56 975.76   C 1.83 952.57 10.86 929.76 22.51 909.68   Q 23.25 908.41 24.72 908.23   L 25.08 908.19   Q 26.50 908.03 25.96 909.35   Q 19.06 926.21 16.19 934.15   C 9.25 953.34 8.13 975.60 29.83 985.49   Q 39.97 990.12 52.56 990.06   Q 79.46 989.94 101.99 973.72   Z"></path>
  <path fill="#28348a" d="   M 259.67 882.91   C 259.89 894.73 256.08 906.78 249.21 916.45   Q 245.03 922.34 241.14 924.89   Q 231.24 931.37 228.79 933.28   C 221.56 938.92 214.94 947.29 210.44 956.39   Q 208.90 959.50 204.96 966.77   Q 197.71 980.17 182.66 984.61   Q 171.64 987.86 160.82 989.78   Q 157.61 990.34 155.21 988.28   A 0.64 0.64 0.0 0 1 155.14 987.39   Q 157.57 984.43 160.78 982.30   Q 171.12 975.45 185.89 964.89   Q 193.42 959.51 199.56 953.55   C 206.69 946.62 208.52 936.03 213.91 927.81   Q 221.85 915.71 234.89 908.12   C 242.78 903.53 250.48 899.76 253.82 890.60   Q 255.38 886.33 256.15 884.42   C 256.82 882.75 257.56 882.46 259.18 882.44   A 0.49 0.48 -0.6 0 1 259.67 882.91   Z"></path>
  <path fill="#28348a" d="   M 605.10 905.87   C 607.11 903.11 608.14 899.73 610.59 893.54   C 611.01 892.47 611.64 891.94 612.74 892.05   A 1.34 1.33 3.5 0 1 613.95 893.41   Q 613.48 914.58 599.71 930.71   Q 597.34 933.50 591.61 937.21   Q 584.49 941.81 582.99 943.00   Q 575.01 949.32 569.58 957.59   Q 564.90 964.73 560.81 973.38   Q 553.57 988.72 537.99 994.03   C 531.96 996.08 522.51 998.17 514.51 999.54   Q 512.76 999.84 510.74 999.09   A 1.24 1.23 86.9 0 1 510.05 998.47   Q 508.98 996.23 511.65 994.38   Q 534.88 978.23 536.27 977.26   Q 546.30 970.29 553.54 963.55   C 560.14 957.40 562.65 946.40 567.37 938.66   Q 574.50 926.96 586.77 919.31   Q 598.26 912.13 598.35 912.07   Q 602.54 909.37 605.10 905.87   Z"></path>
  <path fill="#28348a" d="   M 517.86 894.18   A 0.37 0.36 -13.2 0 1 518.35 894.48   Q 518.61 896.83 517.21 901.23   Q 512.20 917.00 503.60 930.08   Q 497.78 938.93 488.71 944.93   Q 473.97 954.67 454.61 961.34   Q 433.35 968.67 408.96 972.89   Q 367.21 980.11 323.79 977.90   C 315.06 977.46 305.92 976.22 298.32 972.17   C 288.40 966.88 285.28 956.82 286.11 945.71   Q 287.27 930.16 291.13 917.93   Q 291.90 915.50 293.94 913.61   A 0.56 0.56 0.0 0 1 294.88 913.95   C 295.38 917.83 295.34 921.33 296.60 925.22   C 299.57 934.41 310.68 939.05 319.23 940.96   Q 334.26 944.31 351.53 944.42   C 383.34 944.63 414.73 941.12 446.33 933.89   Q 466.62 929.25 486.58 921.36   Q 498.97 916.46 507.60 907.22   C 510.36 904.26 512.22 899.61 514.37 896.89   Q 515.93 894.92 517.86 894.18   Z"></path>
  <path fill="#28348a" d="   M 72.25 905.18   Q 83.01 906.65 89.28 915.97   Q 92.96 921.45 91.03 927.51   Q 88.18 936.46 81.42 943.95   Q 78.35 947.36 74.37 944.95   Q 73.92 944.68 64.31 938.96   Q 61.16 937.09 58.88 934.61   Q 58.09 933.74 58.38 932.07   C 59.70 924.47 63.32 917.39 67.23 910.98   Q 69.15 907.84 71.38 905.49   A 1.01 0.99 24.8 0 1 72.25 905.18   Z"></path>
  <path fill="#28348a" d="   M 595.67 996.92   Q 597.37 994.66 600.25 995.54   Q 607.61 997.80 612.39 1004.51   C 619.05 1013.87 612.88 1022.61 606.87 1030.37   Q 605.19 1032.54 602.34 1033.96   A 2.14 2.13 46.1 0 1 600.34 1033.92   Q 592.15 1029.34 584.63 1023.70   C 583.69 1023.01 583.24 1021.56 583.61 1020.38   Q 587.58 1007.67 595.67 996.92   Z"></path>
  <path fill="#28348a" d="   M 237.10 1013.40   A 0.45 0.45 0.0 0 0 237.83 1013.34   Q 242.73 1005.19 247.53 998.96   C 249.14 996.88 249.97 994.87 253.13 996.06   C 258.66 998.15 264.17 1002.54 266.59 1008.13   C 270.14 1016.33 261.74 1026.98 256.15 1032.40   Q 254.82 1033.69 253.19 1034.71   Q 252.76 1034.98 252.28 1034.78   Q 248.86 1033.37 247.50 1032.26   Q 244.46 1029.78 236.86 1023.54   A 0.82 0.82 0.0 0 0 235.61 1023.79   Q 233.14 1028.42 229.41 1033.65   C 227.58 1036.23 225.04 1039.22 221.99 1040.15   C 219.99 1040.76 218.11 1039.24 216.38 1037.91   Q 210.14 1033.11 204.20 1028.43   A 0.71 0.69 -60.6 0 1 203.98 1027.61   Q 209.82 1013.77 219.50 1001.27   Q 219.83 1000.84 220.34 1001.01   Q 224.67 1002.42 228.54 1005.22   Q 232.63 1008.18 237.10 1013.40   Z"></path>
  <path fill="#28348a" d="   M 523.22 1115.04   C 525.75 1109.39 529.20 1095.93 538.81 1099.94   Q 539.26 1100.12 539.34 1100.59   Q 539.62 1102.10 539.14 1103.49   A 0.88 0.87 3.4 0 1 538.48 1104.07   C 537.04 1104.34 534.98 1103.50 533.23 1103.92   C 530.48 1104.57 527.06 1107.71 528.73 1110.81   C 530.05 1113.26 532.51 1113.73 534.72 1112.17   Q 536.70 1110.78 539.26 1106.76   Q 540.05 1105.53 540.97 1104.81   Q 542.07 1103.95 541.69 1105.29   Q 540.22 1110.60 537.51 1114.99   C 534.16 1120.43 530.44 1125.42 524.38 1127.08   C 519.88 1128.30 515.62 1127.54 513.15 1123.13   Q 511.08 1119.44 511.45 1115.31   Q 513.37 1093.98 514.40 1088.92   Q 515.87 1081.71 519.77 1075.40   Q 520.31 1074.52 520.17 1075.55   Q 520.16 1075.61 517.63 1092.97   Q 516.56 1100.38 516.58 1106.79   Q 516.59 1109.72 517.80 1113.70   Q 517.97 1114.26 518.54 1114.40   L 522.52 1115.39   Q 523.01 1115.51 523.22 1115.04   Z"></path>
  <path fill="#28348a" d="   M 643.36 1112.06   Q 646.27 1107.61 649.82 1105.05   Q 650.23 1104.76 650.73 1104.70   Q 654.56 1104.24 655.85 1103.36   Q 660.12 1100.45 661.97 1097.31   Q 663.69 1094.41 663.38 1097.76   C 662.99 1102.06 660.73 1104.79 657.47 1107.56   Q 654.81 1109.82 652.33 1110.24   C 647.77 1111.01 644.61 1115.00 642.96 1118.97   Q 639.86 1126.43 638.65 1129.19   Q 638.40 1129.75 638.36 1129.80   Q 637.52 1130.74 637.64 1129.48   Q 638.27 1122.93 638.31 1120.81   C 638.38 1117.13 634.49 1115.09 631.88 1117.88   Q 631.38 1118.42 626.30 1124.79   Q 624.89 1126.55 622.06 1127.27   C 613.47 1129.46 611.78 1118.92 612.37 1113.07   Q 612.98 1107.04 614.41 1095.26   Q 615.27 1088.17 616.16 1085.34   Q 617.56 1080.88 620.16 1076.01   Q 621.38 1073.71 620.98 1076.28   Q 618.50 1092.04 617.47 1103.02   C 617.13 1106.63 617.07 1110.96 619.47 1113.66   Q 621.97 1116.47 626.42 1115.55   C 629.10 1114.99 632.28 1111.16 634.60 1109.34   C 637.17 1107.33 640.61 1109.94 642.14 1112.09   A 0.74 0.74 0.0 0 0 643.36 1112.06   Z"></path>
  <path fill="#28348a" d="   M 585.17 1111.29   Q 588.49 1113.03 591.66 1115.66   A 1.32 1.31 15.7 0 1 592.14 1116.51   Q 593.03 1122.45 591.49 1128.00   C 588.29 1139.64 581.22 1151.89 568.42 1154.24   C 552.89 1157.10 549.93 1139.82 552.68 1128.90   Q 556.16 1115.11 563.30 1102.32   Q 563.91 1101.22 563.88 1102.48   Q 563.81 1104.78 562.97 1107.51   C 560.70 1114.88 553.58 1125.02 556.73 1134.50   C 558.58 1140.08 563.07 1142.31 569.01 1142.07   C 577.26 1141.74 585.03 1136.80 587.63 1128.77   A 2.01 1.99 23.9 0 0 586.72 1126.43   C 583.93 1124.83 580.68 1123.48 579.98 1121.37   Q 579.34 1119.44 579.78 1116.98   C 581.17 1109.33 586.62 1103.08 592.23 1097.91   Q 593.04 1097.17 592.45 1096.25   C 591.13 1094.19 591.62 1093.84 592.60 1091.52   Q 594.28 1087.55 596.70 1084.00   A 0.54 0.54 0.0 0 1 597.30 1083.78   Q 601.82 1085.08 605.41 1087.68   A 1.34 1.33 -67.5 0 1 605.94 1088.97   Q 604.85 1095.72 599.14 1098.63   Q 589.87 1103.35 584.87 1109.95   A 0.90 0.90 0.0 0 0 585.17 1111.29   Z"></path>
  <path fill="#28348a" d="   M 489.34 1099.86   Q 491.45 1096.57 493.79 1091.76   A 1.19 1.19 0.0 0 1 495.02 1091.11   Q 498.73 1091.65 502.10 1092.88   C 503.84 1093.51 504.96 1094.73 504.59 1096.74   Q 503.50 1102.62 499.21 1105.65   Q 497.64 1106.76 492.58 1108.21   Q 486.31 1110.01 482.06 1112.79   Q 475.56 1117.04 473.71 1124.22   C 469.01 1142.47 469.45 1164.81 467.86 1185.80   Q 467.74 1187.39 467.13 1189.02   Q 466.89 1189.69 466.74 1189.00   Q 465.90 1185.17 465.74 1176.76   Q 465.39 1157.75 467.20 1140.00   Q 468.15 1130.75 471.09 1122.12   Q 475.60 1108.89 487.50 1101.52   Q 488.79 1100.72 489.34 1099.86   Z"></path>
  <path fill="#28348a" d="   M 449.19 1111.50   C 449.11 1117.80 452.46 1123.93 455.48 1129.71   Q 456.15 1131.00 454.89 1130.28   Q 451.83 1128.53 449.64 1125.58   Q 444.75 1119.02 444.85 1111.45   Q 444.94 1103.88 450.00 1097.44   Q 452.27 1094.55 455.37 1092.88   Q 456.65 1092.19 455.95 1093.46   C 452.78 1099.17 449.27 1105.21 449.19 1111.50   Z"></path>
  <path fill="#28348a" d="   M 689.07 1111.43   C 689.16 1118.41 685.39 1125.92 679.63 1130.02   Q 677.66 1131.43 678.70 1129.24   C 681.76 1122.82 684.73 1117.76 684.65 1111.49   C 684.56 1105.22 681.46 1100.24 678.23 1093.90   Q 677.13 1091.74 679.14 1093.10   C 685.01 1097.04 688.97 1104.45 689.07 1111.43   Z"></path>
</svg>
