<?xml version="1.0" encoding="UTF-8" standalone="no"?>
<svg xmlns="http://www.w3.org/2000/svg" version="1.1" viewBox="0.00 0.00 200.00 256.00">
  <g stroke-width="2.00" fill="none" stroke-linecap="butt">
    <path stroke="#80ad90" vector-effect="non-scaling-stroke" d="   M 92.89 68.84   C 92.73 68.89 92.76 68.89 92.67 68.83   C 89.68 66.77 86.37 66.59 83.19 68.43   C 80.02 70.27 78.52 73.23 78.82 76.85   C 78.83 76.96 78.84 76.93 78.73 77.05   C 78.61 77.17 78.64 77.15 78.53 77.14   C 74.91 76.86 71.96 78.36 70.13 81.54   C 68.29 84.72 68.48 88.03 70.55 91.02   C 70.61 91.11 70.61 91.08 70.57 91.24   C 70.52 91.39 70.54 91.37 70.44 91.42   C 67.16 92.98 65.36 95.75 65.36 99.43   C 65.37 103.10 67.18 105.87 70.47 107.42   C 70.57 107.47 70.55 107.44 70.59 107.60   C 70.63 107.76 70.64 107.73 70.57 107.82   C 68.51 110.81 68.34 114.12 70.18 117.30   C 72.02 120.48 74.98 121.97 78.60 121.67   C 78.71 121.66 78.68 121.65 78.79 121.77   C 78.91 121.88 78.90 121.85 78.89 121.96   C 78.60 125.58 80.10 128.54 83.29 130.37   C 86.47 132.20 89.78 132.01 92.76 129.95   C 92.85 129.88 92.82 129.89 92.98 129.93   C 93.14 129.97 93.11 129.95 93.16 130.05   C 94.72 133.33 97.50 135.14 101.17 135.13   C 104.84 135.13 107.62 133.31 109.17 130.03   C 109.21 129.93 109.19 129.95 109.35 129.91   C 109.51 129.86 109.48 129.86 109.57 129.92   C 112.56 131.98 115.87 132.16 119.04 130.32   C 122.22 128.48 123.72 125.52 123.42 121.90   C 123.41 121.79 123.39 121.82 123.51 121.70   C 123.63 121.58 123.60 121.60 123.71 121.60   C 127.33 121.89 130.28 120.39 132.11 117.21   C 133.94 114.03 133.76 110.72 131.69 107.73   C 131.63 107.64 131.63 107.67 131.67 107.51   C 131.72 107.36 131.70 107.38 131.80 107.33   C 135.08 105.77 136.88 102.99 136.88 99.32   C 136.87 95.65 135.06 92.88 131.77 91.33   C 131.67 91.28 131.69 91.30 131.65 91.15   C 131.61 90.99 131.60 91.02 131.67 90.93   C 133.73 87.94 133.90 84.63 132.06 81.45   C 130.22 78.27 127.26 76.78 123.64 77.08   C 123.53 77.09 123.56 77.10 123.45 76.98   C 123.33 76.87 123.34 76.90 123.35 76.79   C 123.64 73.17 122.14 70.21 118.95 68.38   C 115.77 66.55 112.46 66.74 109.48 68.80   C 109.39 68.87 109.42 68.86 109.26 68.82   C 109.10 68.78 109.12 68.80 109.08 68.70   C 107.52 65.42 104.74 63.61 101.07 63.62   C 97.39 63.62 94.62 65.44 93.07 68.72   C 93.02 68.82 93.05 68.80 92.89 68.84"></path>
    <path stroke="#80ad90" vector-effect="non-scaling-stroke" d="   M 101.04 66.51   C 97.69 66.51 94.81 69.71 95.54 72.99   Q 96.10 75.50 98.48 84.34   A 0.73 0.73 0.0 0 0 99.20 84.88   Q 100.09 84.86 101.06 84.86   Q 102.02 84.86 102.91 84.88   A 0.73 0.73 0.0 0 0 103.64 84.33   Q 105.99 75.49 106.55 72.98   C 107.27 69.69 104.38 66.50 101.04 66.51"></path>
    <path stroke="#80ad90" vector-effect="non-scaling-stroke" d="   M 84.63 71.01   C 81.73 72.69 80.84 76.90 83.12 79.37   Q 84.86 81.26 91.34 87.72   A 0.73 0.73 0.0 0 0 92.24 87.82   Q 93.00 87.36 93.84 86.88   Q 94.67 86.39 95.45 85.96   A 0.73 0.73 0.0 0 0 95.80 85.12   Q 93.41 76.30 92.63 73.85   C 91.61 70.64 87.51 69.33 84.63 71.01"></path>
    <path stroke="#80ad90" vector-effect="non-scaling-stroke" d="   M 117.49 70.92   C 114.62 69.25 110.54 70.56 109.52 73.75   Q 108.75 76.19 106.37 84.98   A 0.73 0.73 0.0 0 0 106.73 85.81   Q 107.50 86.24 108.33 86.72   Q 109.16 87.20 109.92 87.66   A 0.73 0.73 0.0 0 0 110.81 87.55   Q 117.26 81.13 119.00 79.25   C 121.26 76.78 120.37 72.59 117.49 70.92"></path>
    <path stroke="#80ad90" vector-effect="non-scaling-stroke" d="   M 72.62 83.05   C 70.95 85.95 72.30 90.05 75.52 91.06   Q 77.98 91.82 86.85 94.16   A 0.73 0.73 0.0 0 0 87.69 93.80   Q 88.11 93.02 88.59 92.18   Q 89.07 91.34 89.53 90.57   A 0.73 0.73 0.0 0 0 89.42 89.67   Q 82.90 83.21 81.00 81.48   C 78.50 79.21 74.28 80.13 72.62 83.05"></path>
    <path stroke="#80ad90" vector-effect="non-scaling-stroke" d="   M 129.48 82.89   C 127.80 80.01 123.62 79.13 121.16 81.40   Q 119.28 83.14 112.88 89.60   A 0.73 0.73 0.0 0 0 112.77 90.50   Q 113.23 91.25 113.72 92.08   Q 114.20 92.91 114.63 93.68   A 0.73 0.73 0.0 0 0 115.46 94.03   Q 124.24 91.63 126.67 90.85   C 129.86 89.83 131.16 85.75 129.48 82.89"></path>
    <path stroke="#80ad90" vector-effect="non-scaling-stroke" d="   M 112.70 99.37   A 11.61 11.61 0.0 0 0 101.09 87.76   A 11.61 11.61 0.0 0 0 89.48 99.37   A 11.61 11.61 0.0 0 0 101.09 110.98   A 11.61 11.61 0.0 0 0 112.70 99.37"></path>
    <path stroke="#80ad90" vector-effect="non-scaling-stroke" d="   M 68.29 99.47   C 68.30 102.81 71.51 105.69 74.79 104.95   Q 77.30 104.38 86.14 101.98   A 0.73 0.73 0.0 0 0 86.69 101.25   Q 86.67 100.37 86.66 99.40   Q 86.66 98.43 86.67 97.54   A 0.73 0.73 0.0 0 0 86.13 96.82   Q 77.27 94.48 74.75 93.93   C 71.46 93.21 68.28 96.11 68.29 99.47"></path>
    <path stroke="#80ad90" vector-effect="non-scaling-stroke" d="   M 133.94 99.31   C 133.94 95.99 130.76 93.12 127.50 93.84   Q 125.00 94.40 116.21 96.75   A 0.73 0.73 0.0 0 0 115.67 97.48   Q 115.68 98.36 115.68 99.32   Q 115.68 100.28 115.67 101.16   A 0.73 0.73 0.0 0 0 116.21 101.89   Q 125.00 104.24 127.50 104.79   C 130.77 105.52 133.94 102.65 133.94 99.31"></path>
    <path stroke="#80ad90" vector-effect="non-scaling-stroke" d="   M 72.71 115.84   C 74.38 118.73 78.60 119.63 81.08 117.35   Q 82.98 115.61 89.46 109.12   A 0.73 0.73 0.0 0 0 89.56 108.21   Q 89.10 107.45 88.62 106.62   Q 88.13 105.78 87.70 105.00   A 0.73 0.73 0.0 0 0 86.86 104.64   Q 78.01 107.03 75.56 107.81   C 72.34 108.83 71.02 112.93 72.71 115.84"></path>
    <path stroke="#80ad90" vector-effect="non-scaling-stroke" d="   M 129.56 115.74   C 131.21 112.86 129.89 108.79 126.70 107.79   Q 124.26 107.02 115.47 104.68   A 0.73 0.73 0.0 0 0 114.64 105.03   Q 114.21 105.81 113.73 106.64   Q 113.25 107.47 112.80 108.23   A 0.73 0.73 0.0 0 0 112.91 109.13   Q 119.35 115.55 121.24 117.28   C 123.71 119.53 127.89 118.63 129.56 115.74"></path>
    <path stroke="#80ad90" vector-effect="non-scaling-stroke" d="   M 84.78 127.83   C 87.68 129.49 91.77 128.14 92.77 124.93   Q 93.53 122.47 95.85 113.62   A 0.73 0.73 0.0 0 0 95.49 112.78   Q 94.71 112.36 93.87 111.88   Q 93.03 111.40 92.27 110.95   A 0.73 0.73 0.0 0 0 91.37 111.06   Q 84.93 117.57 83.20 119.47   C 80.94 121.96 81.87 126.17 84.78 127.83"></path>
    <path stroke="#80ad90" vector-effect="non-scaling-stroke" d="   M 117.58 127.79   C 120.46 126.12 121.35 121.92 119.08 119.45   Q 117.35 117.56 110.89 111.12   A 0.73 0.73 0.0 0 0 109.99 111.01   Q 109.23 111.47 108.40 111.96   Q 107.56 112.44 106.79 112.87   A 0.73 0.73 0.0 0 0 106.44 113.70   Q 108.81 122.51 109.59 124.95   C 110.60 128.15 114.69 129.46 117.58 127.79"></path>
    <path stroke="#80ad90" vector-effect="non-scaling-stroke" d="   M 101.15 132.20   C 104.49 132.19 107.37 128.99 106.64 125.71   Q 106.08 123.20 103.69 114.37   A 0.73 0.73 0.0 0 0 102.97 113.83   Q 102.08 113.85 101.11 113.85   Q 100.15 113.85 99.26 113.84   A 0.73 0.73 0.0 0 0 98.53 114.38   Q 96.19 123.22 95.63 125.73   C 94.92 129.02 97.81 132.20 101.15 132.20"></path>
    <path stroke="#80ad90" vector-effect="non-scaling-stroke" d="   M 109.65 99.35   A 8.55 8.55 0.0 0 0 101.10 90.80   A 8.55 8.55 0.0 0 0 92.55 99.35   A 8.55 8.55 0.0 0 0 101.10 107.90   A 8.55 8.55 0.0 0 0 109.65 99.35"></path>
    <path stroke="#80ad90" vector-effect="non-scaling-stroke" d="   M 106.67 99.37   A 5.59 5.59 0.0 0 0 101.08 93.78   A 5.59 5.59 0.0 0 0 95.49 99.37   A 5.59 5.59 0.0 0 0 101.08 104.96   A 5.59 5.59 0.0 0 0 106.67 99.37"></path>
    <path stroke="#002e11" vector-effect="non-scaling-stroke" d="   M 27.95 218.99   Q 28.90 220.10 30.38 220.12   A 0.50 0.49 13.9 0 0 30.84 219.85   Q 31.14 219.26 31.00 219.08   A 0.49 0.47 59.0 0 0 30.44 218.93   Q 29.65 219.26 28.23 218.62   A 0.24 0.24 0.0 0 0 27.95 218.99"></path>
  </g>
  <path fill="#005b21" d="   M 162.50 37.97   Q 162.76 38.23 163.24 38.23   Q 174.23 38.24 193.96 38.23   A 1.03 1.02 0.3 0 1 194.99 39.26   Q 194.88 67.04 194.93 93.64   Q 194.94 96.19 192.80 96.15   Q 184.14 95.97 179.19 96.05   A 0.67 0.66 -0.4 0 0 178.53 96.71   L 178.53 101.96   A 0.73 0.72 0.8 0 0 179.24 102.68   Q 186.37 102.82 193.49 102.65   Q 194.12 102.64 194.62 103.36   Q 194.78 103.58 194.64 104.10   A 0.07 0.07 0.0 0 0 194.78 104.15   L 194.89 103.89   A 0.05 0.05 0.0 0 1 194.98 103.91   Q 194.92 114.68 194.82 159.60   A 1.00 1.00 0.0 0 1 193.82 160.60   L 162.88 160.60   A 0.65 0.64 90.0 0 0 162.24 161.25   L 162.24 192.73   A 0.34 0.33 0.0 0 1 161.90 193.06   L 105.17 193.06   A 0.74 0.73 -0.0 0 1 104.43 192.33   L 104.43 177.65   A 0.89 0.88 90.0 0 0 103.55 176.76   L 98.59 176.76   A 0.84 0.84 0.0 0 0 97.75 177.60   L 97.75 192.01   A 1.05 1.05 0.0 0 1 96.70 193.06   L 40.52 193.06   A 0.66 0.66 0.0 0 1 39.86 192.40   C 39.86 178.41 40.10 161.23 39.67 160.79   C 39.23 160.36 22.05 160.60 8.06 160.60   A 0.66 0.66 0.0 0 1 7.40 159.94   L 7.40 103.76   A 1.05 1.05 0.0 0 1 8.45 102.71   L 22.86 102.71   A 0.84 0.84 0.0 0 0 23.71 101.87   L 23.71 96.91   A 0.89 0.88 0.0 0 0 22.82 96.03   L 8.14 96.03   A 0.74 0.73 -90.0 0 1 7.41 95.29   L 7.41 38.56   A 0.34 0.33 -90.0 0 1 7.74 38.22   L 39.22 38.22   A 0.65 0.64 0.0 0 0 39.87 37.58   L 39.87 6.64   A 1.00 1.00 0.0 0 1 40.87 5.64   Q 85.79 5.54 96.56 5.48   A 0.05 0.05 0.0 0 1 96.58 5.57   L 96.32 5.68   A 0.07 0.07 0.0 0 0 96.37 5.82   Q 96.89 5.68 97.11 5.84   Q 97.83 6.35 97.82 6.97   Q 97.65 14.09 97.79 21.22   A 0.73 0.72 89.2 0 0 98.51 21.94   L 103.76 21.94   A 0.67 0.66 -89.6 0 0 104.42 21.28   Q 104.50 16.33 104.32 7.67   Q 104.28 5.53 106.83 5.54   Q 133.43 5.59 161.21 5.48   A 1.03 1.02 89.7 0 1 162.24 6.51   Q 162.23 26.24 162.24 37.23   Q 162.24 37.71 162.50 37.97   Z   M 43.05 41.33   Q 42.77 41.61 42.51 41.61   Q 26.73 41.69 11.86 41.62   A 0.76 0.75 -89.6 0 0 11.10 42.38   L 11.10 91.85   A 0.75 0.74 90.0 0 0 11.84 92.60   L 26.38 92.60   A 0.59 0.58 88.8 0 1 26.96 93.16   Q 26.99 94.02 26.99 99.39   Q 26.99 104.76 26.96 105.62   A 0.59 0.58 -88.8 0 1 26.38 106.18   L 11.84 106.18   A 0.75 0.74 90.0 0 0 11.10 106.93   L 11.11 156.40   A 0.76 0.75 89.6 0 0 11.87 157.16   Q 26.74 157.09 42.51 157.17   Q 42.78 157.17 43.06 157.45   Q 43.34 157.73 43.34 158.00   Q 43.42 173.77 43.35 188.64   A 0.76 0.75 0.4 0 0 44.11 189.40   L 93.58 189.40   A 0.75 0.74 0.0 0 0 94.33 188.66   L 94.33 174.12   A 0.59 0.58 -1.2 0 1 94.89 173.54   Q 95.75 173.51 101.12 173.51   Q 106.49 173.51 107.35 173.54   A 0.59 0.58 1.2 0 1 107.91 174.12   L 107.91 188.66   A 0.75 0.74 -0.0 0 0 108.66 189.40   L 158.13 189.40   A 0.76 0.75 -0.4 0 0 158.89 188.64   Q 158.82 173.77 158.90 157.99   Q 158.90 157.73 159.18 157.44   Q 159.46 157.16 159.73 157.16   Q 175.50 157.08 190.37 157.15   A 0.76 0.75 -89.6 0 0 191.13 156.39   L 191.13 106.92   A 0.75 0.74 90.0 0 0 190.39 106.17   L 175.85 106.17   A 0.59 0.58 88.8 0 1 175.27 105.61   Q 175.24 104.75 175.24 99.38   Q 175.24 94.02 175.27 93.16   A 0.59 0.58 -88.8 0 1 175.85 92.59   L 190.39 92.59   A 0.75 0.74 90.0 0 0 191.13 91.84   L 191.13 42.37   A 0.76 0.75 89.6 0 0 190.37 41.61   Q 175.50 41.68 159.72 41.61   Q 159.46 41.61 159.17 41.32   Q 158.89 41.04 158.89 40.78   Q 158.81 25.00 158.88 10.13   A 0.76 0.75 0.4 0 0 158.12 9.37   L 108.65 9.37   A 0.75 0.74 0.0 0 0 107.90 10.11   L 107.90 24.65   A 0.59 0.58 -1.2 0 1 107.34 25.23   Q 106.48 25.26 101.11 25.26   Q 95.75 25.26 94.89 25.23   A 0.59 0.58 1.2 0 1 94.32 24.65   L 94.32 10.11   A 0.75 0.74 -0.0 0 0 93.57 9.37   L 44.10 9.38   A 0.76 0.75 -0.4 0 0 43.34 10.14   Q 43.41 25.01 43.34 40.78   Q 43.34 41.05 43.05 41.33   Z   M 195.01 39.92   Q 194.94 39.64 194.88 39.61   A 0.28 0.27 75.2 0 0 194.62 40.09   Q 194.68 40.14 194.93 40.06   A 0.13 0.12 76.7 0 0 195.01 39.92   Z"></path>
  <path fill="#005b21" d="   M 95.15 28.01   L 109.63 28.01   A 0.80 0.80 0.0 0 0 110.43 27.21   L 110.43 12.78   A 0.80 0.80 0.0 0 1 111.23 11.98   L 123.12 11.98   A 0.80 0.80 0.0 0 1 123.92 12.78   L 123.92 40.83   A 0.80 0.80 0.0 0 1 123.12 41.63   L 108.64 41.63   A 0.80 0.80 0.0 0 0 107.84 42.43   L 107.84 56.85   A 0.80 0.80 0.0 0 1 107.04 57.65   L 95.15 57.65   A 0.80 0.80 0.0 0 1 94.35 56.85   L 94.35 28.81   A 0.80 0.80 0.0 0 1 95.15 28.01   Z"></path>
  <path fill="#005b21" d="   M 30.40 57.68   A 0.71 0.71 0.0 0 1 29.69 56.97   L 29.67 45.03   A 0.76 0.76 0.0 0 1 30.44 44.28   L 45.24 44.35   A 0.78 0.77 0.0 0 0 46.02 43.58   L 46.00 12.65   A 0.63 0.62 -90.0 0 1 46.62 12.02   L 74.87 12.04   A 0.69 0.68 0.0 0 1 75.56 12.72   L 75.57 56.83   A 0.86 0.86 0.0 0 1 74.71 57.69   L 62.86 57.69   A 0.88 0.87 89.7 0 1 61.98 56.81   L 61.99 26.34   A 1.10 1.10 0.0 0 0 60.84 25.24   L 60.49 25.25   A 1.02 1.01 -86.7 0 0 59.36 26.27   L 59.36 57.17   A 0.51 0.51 0.0 0 1 58.85 57.68   L 30.40 57.68   Z"></path>
  <rect fill="#005b21" x="78.27" y="11.98" width="13.40" height="45.74" rx="0.80"></rect>
  <path fill="#005b21" d="   M 140.18 34.79   Q 140.17 55.58 140.16 57.02   A 0.65 0.65 0.0 0 1 139.50 57.67   L 111.25 57.67   A 0.71 0.71 0.0 0 1 110.54 56.96   L 110.54 45.02   A 0.69 0.68 90.0 0 1 111.21 44.33   L 125.67 44.33   A 0.92 0.91 -0.0 0 0 126.59 43.42   Q 126.59 42.69 126.61 34.89   Q 126.60 14.09 126.62 12.66   A 0.65 0.65 0.0 0 1 127.27 12.01   L 155.53 12.00   A 0.71 0.71 0.0 0 1 156.24 12.71   L 156.24 24.65   A 0.69 0.68 90.0 0 1 155.56 25.34   L 141.10 25.34   A 0.92 0.91 -0.0 0 0 140.18 26.25   Q 140.18 26.99 140.18 34.79   Z"></path>
  <path fill="#005b21" d="   M 142.83 28.70   A 0.71 0.71 0.0 0 1 143.54 27.99   L 155.48 27.96   A 0.76 0.76 0.0 0 1 156.24 28.73   L 156.17 43.54   A 0.78 0.77 90.0 0 0 156.94 44.32   L 187.89 44.28   A 0.63 0.62 -0.0 0 1 188.52 44.90   L 188.51 73.17   A 0.69 0.68 90.0 0 1 187.83 73.86   L 143.70 73.89   A 0.86 0.86 0.0 0 1 142.84 73.03   L 142.83 61.17   A 0.88 0.87 -0.3 0 1 143.71 60.29   L 174.20 60.29   A 1.10 1.10 0.0 0 0 175.30 59.14   L 175.29 58.79   A 1.02 1.01 3.2 0 0 174.27 57.66   L 143.35 57.67   A 0.51 0.51 0.0 0 1 142.84 57.16   L 142.83 28.70   Z"></path>
  <path fill="#005b21" d="   M 36.48 60.31   Q 57.29 60.35 58.73 60.37   A 0.65 0.65 0.0 0 1 59.38 61.02   L 59.34 89.31   A 0.71 0.71 0.0 0 1 58.63 90.02   L 46.68 90.00   A 0.69 0.68 0.1 0 1 45.99 89.32   L 46.01 74.85   A 0.92 0.91 -90.0 0 0 45.10 73.93   Q 44.36 73.92 36.56 73.90   Q 15.74 73.87 14.30 73.85   A 0.65 0.65 0.0 0 1 13.65 73.20   L 13.69 44.91   A 0.71 0.71 0.0 0 1 14.40 44.20   L 26.36 44.22   A 0.69 0.68 0.1 0 1 27.04 44.90   L 27.02 59.37   A 0.92 0.91 -90.0 0 0 27.93 60.30   Q 28.67 60.30 36.48 60.31   Z"></path>
  <path fill="#005b21" d="   M 140.14 99.37   A 39.05 39.05 0.0 0 1 101.09 138.42   A 39.05 39.05 0.0 0 1 62.04 99.37   A 39.05 39.05 0.0 0 1 101.09 60.32   A 39.05 39.05 0.0 0 1 140.14 99.37   Z   M 92.89 68.84   C 92.73 68.89 92.76 68.89 92.67 68.83   C 89.68 66.77 86.37 66.59 83.19 68.43   C 80.02 70.27 78.52 73.23 78.82 76.85   C 78.83 76.96 78.84 76.93 78.73 77.05   C 78.61 77.17 78.64 77.15 78.53 77.14   C 74.91 76.86 71.96 78.36 70.13 81.54   C 68.29 84.72 68.48 88.03 70.55 91.02   C 70.61 91.11 70.61 91.08 70.57 91.24   C 70.52 91.39 70.54 91.37 70.44 91.42   C 67.16 92.98 65.36 95.75 65.36 99.43   C 65.37 103.10 67.18 105.87 70.47 107.42   C 70.57 107.47 70.55 107.44 70.59 107.60   C 70.63 107.76 70.64 107.73 70.57 107.82   C 68.51 110.81 68.34 114.12 70.18 117.30   C 72.02 120.48 74.98 121.97 78.60 121.67   C 78.71 121.66 78.68 121.65 78.79 121.77   C 78.91 121.88 78.90 121.85 78.89 121.96   C 78.60 125.58 80.10 128.54 83.29 130.37   C 86.47 132.20 89.78 132.01 92.76 129.95   C 92.85 129.88 92.82 129.89 92.98 129.93   C 93.14 129.97 93.11 129.95 93.16 130.05   C 94.72 133.33 97.50 135.14 101.17 135.13   C 104.84 135.13 107.62 133.31 109.17 130.03   C 109.21 129.93 109.19 129.95 109.35 129.91   C 109.51 129.86 109.48 129.86 109.57 129.92   C 112.56 131.98 115.87 132.16 119.04 130.32   C 122.22 128.48 123.72 125.52 123.42 121.90   C 123.41 121.79 123.39 121.82 123.51 121.70   C 123.63 121.58 123.60 121.60 123.71 121.60   C 127.33 121.89 130.28 120.39 132.11 117.21   C 133.94 114.03 133.76 110.72 131.69 107.73   C 131.63 107.64 131.63 107.67 131.67 107.51   C 131.72 107.36 131.70 107.38 131.80 107.33   C 135.08 105.77 136.88 102.99 136.88 99.32   C 136.87 95.65 135.06 92.88 131.77 91.33   C 131.67 91.28 131.69 91.30 131.65 91.15   C 131.61 90.99 131.60 91.02 131.67 90.93   C 133.73 87.94 133.90 84.63 132.06 81.45   C 130.22 78.27 127.26 76.78 123.64 77.08   C 123.53 77.09 123.56 77.10 123.45 76.98   C 123.33 76.87 123.34 76.90 123.35 76.79   C 123.64 73.17 122.14 70.21 118.95 68.38   C 115.77 66.55 112.46 66.74 109.48 68.80   C 109.39 68.87 109.42 68.86 109.26 68.82   C 109.10 68.78 109.12 68.80 109.08 68.70   C 107.52 65.42 104.74 63.61 101.07 63.62   C 97.39 63.62 94.62 65.44 93.07 68.72   C 93.02 68.82 93.05 68.80 92.89 68.84   Z"></path>
  <path fill="#ffffff" d="   M 101.07 63.62   C 104.74 63.61 107.52 65.42 109.08 68.70   C 109.12 68.80 109.10 68.78 109.26 68.82   C 109.42 68.86 109.39 68.87 109.48 68.80   C 112.46 66.74 115.77 66.55 118.95 68.38   C 122.14 70.21 123.64 73.17 123.35 76.79   C 123.34 76.90 123.33 76.87 123.45 76.98   C 123.56 77.10 123.53 77.09 123.64 77.08   C 127.26 76.78 130.22 78.27 132.06 81.45   C 133.90 84.63 133.73 87.94 131.67 90.93   C 131.60 91.02 131.61 90.99 131.65 91.15   C 131.69 91.30 131.67 91.28 131.77 91.33   C 135.06 92.88 136.87 95.65 136.88 99.32   C 136.88 102.99 135.08 105.77 131.80 107.33   C 131.70 107.38 131.72 107.36 131.67 107.51   C 131.63 107.67 131.63 107.64 131.69 107.73   C 133.76 110.72 133.94 114.03 132.11 117.21   C 130.28 120.39 127.33 121.89 123.71 121.60   C 123.60 121.60 123.63 121.58 123.51 121.70   C 123.39 121.82 123.41 121.79 123.42 121.90   C 123.72 125.52 122.22 128.48 119.04 130.32   C 115.87 132.16 112.56 131.98 109.57 129.92   C 109.48 129.86 109.51 129.86 109.35 129.91   C 109.19 129.95 109.21 129.93 109.17 130.03   C 107.62 133.31 104.84 135.13 101.17 135.13   C 97.50 135.14 94.72 133.33 93.16 130.05   C 93.11 129.95 93.14 129.97 92.98 129.93   C 92.82 129.89 92.85 129.88 92.76 129.95   C 89.78 132.01 86.47 132.20 83.29 130.37   C 80.10 128.54 78.60 125.58 78.89 121.96   C 78.90 121.85 78.91 121.88 78.79 121.77   C 78.68 121.65 78.71 121.66 78.60 121.67   C 74.98 121.97 72.02 120.48 70.18 117.30   C 68.34 114.12 68.51 110.81 70.57 107.82   C 70.64 107.73 70.63 107.76 70.59 107.60   C 70.55 107.44 70.57 107.47 70.47 107.42   C 67.18 105.87 65.37 103.10 65.36 99.43   C 65.36 95.75 67.16 92.98 70.44 91.42   C 70.54 91.37 70.52 91.39 70.57 91.24   C 70.61 91.08 70.61 91.11 70.55 91.02   C 68.48 88.03 68.29 84.72 70.13 81.54   C 71.96 78.36 74.91 76.86 78.53 77.14   C 78.64 77.15 78.61 77.17 78.73 77.05   C 78.84 76.93 78.83 76.96 78.82 76.85   C 78.52 73.23 80.02 70.27 83.19 68.43   C 86.37 66.59 89.68 66.77 92.67 68.83   C 92.76 68.89 92.73 68.89 92.89 68.84   C 93.05 68.80 93.02 68.82 93.07 68.72   C 94.62 65.44 97.39 63.62 101.07 63.62   Z   M 101.04 66.51   C 97.69 66.51 94.81 69.71 95.54 72.99   Q 96.10 75.50 98.48 84.34   A 0.73 0.73 0.0 0 0 99.20 84.88   Q 100.09 84.86 101.06 84.86   Q 102.02 84.86 102.91 84.88   A 0.73 0.73 0.0 0 0 103.64 84.33   Q 105.99 75.49 106.55 72.98   C 107.27 69.69 104.38 66.50 101.04 66.51   Z   M 84.63 71.01   C 81.73 72.69 80.84 76.90 83.12 79.37   Q 84.86 81.26 91.34 87.72   A 0.73 0.73 0.0 0 0 92.24 87.82   Q 93.00 87.36 93.84 86.88   Q 94.67 86.39 95.45 85.96   A 0.73 0.73 0.0 0 0 95.80 85.12   Q 93.41 76.30 92.63 73.85   C 91.61 70.64 87.51 69.33 84.63 71.01   Z   M 117.49 70.92   C 114.62 69.25 110.54 70.56 109.52 73.75   Q 108.75 76.19 106.37 84.98   A 0.73 0.73 0.0 0 0 106.73 85.81   Q 107.50 86.24 108.33 86.72   Q 109.16 87.20 109.92 87.66   A 0.73 0.73 0.0 0 0 110.81 87.55   Q 117.26 81.13 119.00 79.25   C 121.26 76.78 120.37 72.59 117.49 70.92   Z   M 72.62 83.05   C 70.95 85.95 72.30 90.05 75.52 91.06   Q 77.98 91.82 86.85 94.16   A 0.73 0.73 0.0 0 0 87.69 93.80   Q 88.11 93.02 88.59 92.18   Q 89.07 91.34 89.53 90.57   A 0.73 0.73 0.0 0 0 89.42 89.67   Q 82.90 83.21 81.00 81.48   C 78.50 79.21 74.28 80.13 72.62 83.05   Z   M 129.48 82.89   C 127.80 80.01 123.62 79.13 121.16 81.40   Q 119.28 83.14 112.88 89.60   A 0.73 0.73 0.0 0 0 112.77 90.50   Q 113.23 91.25 113.72 92.08   Q 114.20 92.91 114.63 93.68   A 0.73 0.73 0.0 0 0 115.46 94.03   Q 124.24 91.63 126.67 90.85   C 129.86 89.83 131.16 85.75 129.48 82.89   Z   M 112.70 99.37   A 11.61 11.61 0.0 0 0 101.09 87.76   A 11.61 11.61 0.0 0 0 89.48 99.37   A 11.61 11.61 0.0 0 0 101.09 110.98   A 11.61 11.61 0.0 0 0 112.70 99.37   Z   M 68.29 99.47   C 68.30 102.81 71.51 105.69 74.79 104.95   Q 77.30 104.38 86.14 101.98   A 0.73 0.73 0.0 0 0 86.69 101.25   Q 86.67 100.37 86.66 99.40   Q 86.66 98.43 86.67 97.54   A 0.73 0.73 0.0 0 0 86.13 96.82   Q 77.27 94.48 74.75 93.93   C 71.46 93.21 68.28 96.11 68.29 99.47   Z   M 133.94 99.31   C 133.94 95.99 130.76 93.12 127.50 93.84   Q 125.00 94.40 116.21 96.75   A 0.73 0.73 0.0 0 0 115.67 97.48   Q 115.68 98.36 115.68 99.32   Q 115.68 100.28 115.67 101.16   A 0.73 0.73 0.0 0 0 116.21 101.89   Q 125.00 104.24 127.50 104.79   C 130.77 105.52 133.94 102.65 133.94 99.31   Z   M 72.71 115.84   C 74.38 118.73 78.60 119.63 81.08 117.35   Q 82.98 115.61 89.46 109.12   A 0.73 0.73 0.0 0 0 89.56 108.21   Q 89.10 107.45 88.62 106.62   Q 88.13 105.78 87.70 105.00   A 0.73 0.73 0.0 0 0 86.86 104.64   Q 78.01 107.03 75.56 107.81   C 72.34 108.83 71.02 112.93 72.71 115.84   Z   M 129.56 115.74   C 131.21 112.86 129.89 108.79 126.70 107.79   Q 124.26 107.02 115.47 104.68   A 0.73 0.73 0.0 0 0 114.64 105.03   Q 114.21 105.81 113.73 106.64   Q 113.25 107.47 112.80 108.23   A 0.73 0.73 0.0 0 0 112.91 109.13   Q 119.35 115.55 121.24 117.28   C 123.71 119.53 127.89 118.63 129.56 115.74   Z   M 84.78 127.83   C 87.68 129.49 91.77 128.14 92.77 124.93   Q 93.53 122.47 95.85 113.62   A 0.73 0.73 0.0 0 0 95.49 112.78   Q 94.71 112.36 93.87 111.88   Q 93.03 111.40 92.27 110.95   A 0.73 0.73 0.0 0 0 91.37 111.06   Q 84.93 117.57 83.20 119.47   C 80.94 121.96 81.87 126.17 84.78 127.83   Z   M 117.58 127.79   C 120.46 126.12 121.35 121.92 119.08 119.45   Q 117.35 117.56 110.89 111.12   A 0.73 0.73 0.0 0 0 109.99 111.01   Q 109.23 111.47 108.40 111.96   Q 107.56 112.44 106.79 112.87   A 0.73 0.73 0.0 0 0 106.44 113.70   Q 108.81 122.51 109.59 124.95   C 110.60 128.15 114.69 129.46 117.58 127.79   Z   M 101.15 132.20   C 104.49 132.19 107.37 128.99 106.64 125.71   Q 106.08 123.20 103.69 114.37   A 0.73 0.73 0.0 0 0 102.97 113.83   Q 102.08 113.85 101.11 113.85   Q 100.15 113.85 99.26 113.84   A 0.73 0.73 0.0 0 0 98.53 114.38   Q 96.19 123.22 95.63 125.73   C 94.92 129.02 97.81 132.20 101.15 132.20   Z"></path>
  <path fill="#005b21" d="   M 101.04 66.51   C 104.38 66.50 107.27 69.69 106.55 72.98   Q 105.99 75.49 103.64 84.33   A 0.73 0.73 0.0 0 1 102.91 84.88   Q 102.02 84.86 101.06 84.86   Q 100.09 84.86 99.20 84.88   A 0.73 0.73 0.0 0 1 98.48 84.34   Q 96.10 75.50 95.54 72.99   C 94.81 69.71 97.69 66.51 101.04 66.51   Z"></path>
  <path fill="#005b21" d="   M 84.63 71.01   C 87.51 69.33 91.61 70.64 92.63 73.85   Q 93.41 76.30 95.80 85.12   A 0.73 0.73 0.0 0 1 95.45 85.96   Q 94.67 86.39 93.84 86.88   Q 93.00 87.36 92.24 87.82   A 0.73 0.73 0.0 0 1 91.34 87.72   Q 84.86 81.26 83.12 79.37   C 80.84 76.90 81.73 72.69 84.63 71.01   Z"></path>
  <path fill="#005b21" d="   M 117.49 70.92   C 120.37 72.59 121.26 76.78 119.00 79.25   Q 117.26 81.13 110.81 87.55   A 0.73 0.73 0.0 0 1 109.92 87.66   Q 109.16 87.20 108.33 86.72   Q 107.50 86.24 106.73 85.81   A 0.73 0.73 0.0 0 1 106.37 84.98   Q 108.75 76.19 109.52 73.75   C 110.54 70.56 114.62 69.25 117.49 70.92   Z"></path>
  <path fill="#005b21" d="   M 59.38 105.63   A 0.52 0.51 -0.0 0 1 58.86 106.14   L 30.63 106.18   A 0.94 0.94 0.0 0 1 29.68 105.24   L 29.69 90.81   A 0.77 0.76 -0.0 0 0 28.92 90.04   L 14.48 90.08   A 0.83 0.83 0.0 0 1 13.65 89.24   L 13.64 77.25   A 0.68 0.68 0.0 0 1 14.32 76.56   L 42.40 76.53   A 0.93 0.93 0.0 0 1 43.34 77.46   L 43.33 91.92   A 0.74 0.74 0.0 0 0 44.08 92.66   L 58.62 92.63   A 0.77 0.76 90.0 0 1 59.38 93.40   L 59.38 105.63   Z"></path>
  <rect fill="#005b21" x="142.85" y="76.57" width="45.70" height="13.48" rx="0.84"></rect>
  <path fill="#005b21" d="   M 88.59 92.18   Q 88.11 93.02 87.69 93.80   A 0.73 0.73 0.0 0 1 86.85 94.16   Q 77.98 91.82 75.52 91.06   C 72.30 90.05 70.95 85.95 72.62 83.05   C 74.28 80.13 78.50 79.21 81.00 81.48   Q 82.90 83.21 89.42 89.67   A 0.73 0.73 0.0 0 1 89.53 90.57   Q 89.07 91.34 88.59 92.18   Z"></path>
  <path fill="#005b21" d="   M 129.48 82.89   C 131.16 85.75 129.86 89.83 126.67 90.85   Q 124.24 91.63 115.46 94.03   A 0.73 0.73 0.0 0 1 114.63 93.68   Q 114.20 92.91 113.72 92.08   Q 113.23 91.25 112.77 90.50   A 0.73 0.73 0.0 0 1 112.88 89.60   Q 119.28 83.14 121.16 81.40   C 123.62 79.13 127.80 80.01 129.48 82.89   Z"></path>
  <path fill="#005b21" d="   M 112.70 99.37   A 11.61 11.61 0.0 0 1 101.09 110.98   A 11.61 11.61 0.0 0 1 89.48 99.37   A 11.61 11.61 0.0 0 1 101.09 87.76   A 11.61 11.61 0.0 0 1 112.70 99.37   Z   M 109.65 99.35   A 8.55 8.55 0.0 0 0 101.10 90.80   A 8.55 8.55 0.0 0 0 92.55 99.35   A 8.55 8.55 0.0 0 0 101.10 107.90   A 8.55 8.55 0.0 0 0 109.65 99.35   Z"></path>
  <path fill="#ffffff" d="   M 109.65 99.35   A 8.55 8.55 0.0 0 1 101.10 107.90   A 8.55 8.55 0.0 0 1 92.55 99.35   A 8.55 8.55 0.0 0 1 101.10 90.80   A 8.55 8.55 0.0 0 1 109.65 99.35   Z   M 106.67 99.37   A 5.59 5.59 0.0 0 0 101.08 93.78   A 5.59 5.59 0.0 0 0 95.49 99.37   A 5.59 5.59 0.0 0 0 101.08 104.96   A 5.59 5.59 0.0 0 0 106.67 99.37   Z"></path>
  <path fill="#005b21" d="   M 142.83 93.10   A 0.52 0.51 0.1 0 1 143.35 92.59   L 171.60 92.59   A 0.94 0.94 0.0 0 1 172.54 93.54   L 172.51 107.98   A 0.77 0.76 0.1 0 0 173.28 108.74   L 187.73 108.73   A 0.83 0.83 0.0 0 1 188.57 109.57   L 188.56 121.57   A 0.68 0.68 0.0 0 1 187.88 122.25   L 159.77 122.24   A 0.93 0.93 0.0 0 1 158.83 121.31   L 158.86 106.85   A 0.74 0.74 0.0 0 0 158.12 106.11   L 143.57 106.11   A 0.77 0.76 -89.9 0 1 142.81 105.34   L 142.83 93.10   Z"></path>
  <path fill="#005b21" d="   M 68.29 99.47   C 68.28 96.11 71.46 93.21 74.75 93.93   Q 77.27 94.48 86.13 96.82   A 0.73 0.73 0.0 0 1 86.67 97.54   Q 86.66 98.43 86.66 99.40   Q 86.67 100.37 86.69 101.25   A 0.73 0.73 0.0 0 1 86.14 101.98   Q 77.30 104.38 74.79 104.95   C 71.51 105.69 68.30 102.81 68.29 99.47   Z"></path>
  <circle fill="#005b21" cx="101.08" cy="99.37" r="5.59"></circle>
  <path fill="#005b21" d="   M 133.94 99.31   C 133.94 102.65 130.77 105.52 127.50 104.79   Q 125.00 104.24 116.21 101.89   A 0.73 0.73 0.0 0 1 115.67 101.16   Q 115.68 100.28 115.68 99.32   Q 115.68 98.36 115.67 97.48   A 0.73 0.73 0.0 0 1 116.21 96.75   Q 125.00 94.40 127.50 93.84   C 130.76 93.12 133.94 95.99 133.94 99.31   Z"></path>
  <path fill="#005b21" d="   M 72.71 115.84   C 71.02 112.93 72.34 108.83 75.56 107.81   Q 78.01 107.03 86.86 104.64   A 0.73 0.73 0.0 0 1 87.70 105.00   Q 88.13 105.78 88.62 106.62   Q 89.10 107.45 89.56 108.21   A 0.73 0.73 0.0 0 1 89.46 109.12   Q 82.98 115.61 81.08 117.35   C 78.60 119.63 74.38 118.73 72.71 115.84   Z"></path>
  <path fill="#005b21" d="   M 129.56 115.74   C 127.89 118.63 123.71 119.53 121.24 117.28   Q 119.35 115.55 112.91 109.13   A 0.73 0.73 0.0 0 1 112.80 108.23   Q 113.25 107.47 113.73 106.64   Q 114.21 105.81 114.64 105.03   A 0.73 0.73 0.0 0 1 115.47 104.68   Q 124.26 107.02 126.70 107.79   C 129.89 108.79 131.21 112.86 129.56 115.74   Z"></path>
  <rect fill="#005b21" x="13.65" y="108.78" width="45.72" height="13.44" rx="0.62"></rect>
  <path fill="#005b21" d="   M 165.75 138.44   Q 144.94 138.42 143.50 138.41   A 0.65 0.65 0.0 0 1 142.85 137.76   L 142.85 109.48   A 0.71 0.71 0.0 0 1 143.56 108.77   L 155.51 108.77   A 0.69 0.68 -0.0 0 1 156.20 109.45   L 156.20 123.92   A 0.92 0.91 90.0 0 0 157.11 124.84   Q 157.85 124.84 165.65 124.85   Q 186.46 124.85 187.90 124.87   A 0.65 0.65 0.0 0 1 188.55 125.52   L 188.55 153.80   A 0.71 0.71 0.0 0 1 187.84 154.51   L 175.89 154.51   A 0.69 0.68 0.0 0 1 175.20 153.83   L 175.20 139.36   A 0.92 0.91 90.0 0 0 174.29 138.44   Q 173.56 138.44 165.75 138.44   Z"></path>
  <path fill="#005b21" d="   M 84.78 127.83   C 81.87 126.17 80.94 121.96 83.20 119.47   Q 84.93 117.57 91.37 111.06   A 0.73 0.73 0.0 0 1 92.27 110.95   Q 93.03 111.40 93.87 111.88   Q 94.71 112.36 95.49 112.78   A 0.73 0.73 0.0 0 1 95.85 113.62   Q 93.53 122.47 92.77 124.93   C 91.77 128.14 87.68 129.49 84.78 127.83   Z"></path>
  <path fill="#005b21" d="   M 117.58 127.79   C 114.69 129.46 110.60 128.15 109.59 124.95   Q 108.81 122.51 106.44 113.70   A 0.73 0.73 0.0 0 1 106.79 112.87   Q 107.56 112.44 108.40 111.96   Q 109.23 111.47 109.99 111.01   A 0.73 0.73 0.0 0 1 110.89 111.12   Q 117.35 117.56 119.08 119.45   C 121.35 121.92 120.46 126.12 117.58 127.79   Z"></path>
  <path fill="#005b21" d="   M 101.15 132.20   C 97.81 132.20 94.92 129.02 95.63 125.73   Q 96.19 123.22 98.53 114.38   A 0.73 0.73 0.0 0 1 99.26 113.84   Q 100.15 113.85 101.11 113.85   Q 102.08 113.85 102.97 113.83   A 0.73 0.73 0.0 0 1 103.69 114.37   Q 106.08 123.20 106.64 125.71   C 107.37 128.99 104.49 132.19 101.15 132.20   Z"></path>
  <path fill="#005b21" d="   M 45.98 170.20   L 45.98 155.04   A 0.58 0.58 0.0 0 0 45.40 154.46   L 14.25 154.46   A 0.58 0.58 0.0 0 1 13.67 153.88   L 13.67 125.45   A 0.58 0.58 0.0 0 1 14.25 124.87   L 58.78 124.87   A 0.58 0.58 0.0 0 1 59.36 125.45   L 59.36 137.88   A 0.58 0.58 0.0 0 1 58.78 138.46   L 27.59 138.46   A 0.58 0.58 0.0 0 0 27.01 139.04   L 27.01 140.50   A 0.58 0.58 0.0 0 0 27.59 141.08   L 58.78 141.08   A 0.58 0.58 0.0 0 1 59.36 141.66   L 59.36 170.20   A 0.58 0.58 0.0 0 1 58.78 170.78   L 46.56 170.78   A 0.58 0.58 0.0 0 1 45.98 170.20   Z"></path>
  <path fill="#005b21" d="   M 75.55 163.89   Q 75.56 184.67 75.55 186.11   A 0.65 0.65 0.0 0 1 74.90 186.76   L 46.65 186.80   A 0.71 0.71 0.0 0 1 45.94 186.09   L 45.93 174.15   A 0.69 0.68 89.9 0 1 46.61 173.46   L 61.06 173.44   A 0.92 0.91 -0.1 0 0 61.98 172.54   Q 61.98 171.80 61.98 164.00   Q 61.95 143.22 61.97 141.78   A 0.65 0.65 0.0 0 1 62.62 141.13   L 90.86 141.10   A 0.71 0.71 0.0 0 1 91.57 141.80   L 91.59 153.74   A 0.69 0.68 89.9 0 1 90.91 154.43   L 76.46 154.45   A 0.92 0.91 -0.1 0 0 75.54 155.36   Q 75.54 156.09 75.55 163.89   Z"></path>
  <path fill="#005b21" d="   M 107.33 141.14   A 0.52 0.51 -89.9 0 1 107.84 141.66   L 107.83 169.86   A 0.94 0.94 0.0 0 1 106.89 170.80   L 92.48 170.76   A 0.77 0.76 -89.9 0 0 91.72 171.53   L 91.72 185.95   A 0.83 0.83 0.0 0 1 90.89 186.78   L 78.91 186.77   A 0.68 0.68 0.0 0 1 78.23 186.09   L 78.25 158.05   A 0.93 0.93 0.0 0 1 79.18 157.11   L 93.61 157.14   A 0.74 0.74 0.0 0 0 94.35 156.40   L 94.35 141.88   A 0.77 0.76 0.1 0 1 95.12 141.12   L 107.33 141.14   Z"></path>
  <rect fill="#005b21" x="110.53" y="141.09" width="13.34" height="45.72" rx="0.72"></rect>
  <path fill="#005b21" d="   M 171.83 141.11   A 0.71 0.71 0.0 0 1 172.54 141.82   L 172.55 153.77   A 0.76 0.76 0.0 0 1 171.78 154.53   L 156.97 154.45   A 0.78 0.77 0.0 0 0 156.19 155.22   L 156.19 186.19   A 0.63 0.62 -90.0 0 1 155.57 186.82   L 127.28 186.78   A 0.69 0.68 0.0 0 1 126.59 186.10   L 126.61 141.94   A 0.86 0.86 0.0 0 1 127.47 141.08   L 139.33 141.08   A 0.88 0.87 89.7 0 1 140.21 141.96   L 140.19 172.47   A 1.10 1.10 0.0 0 0 141.34 173.57   L 141.69 173.56   A 1.03 1.01 -86.7 0 0 142.82 172.54   L 142.83 141.60   A 0.51 0.51 0.0 0 1 143.34 141.10   L 171.83 141.11   Z"></path>
  <path fill="#000000" d="   M 24.64 237.93   Q 22.05 238.67 20.79 236.31   A 1.10 1.09 42.2 0 1 20.74 235.37   L 22.98 229.87   A 1.83 1.83 0.0 0 1 25.60 228.99   Q 28.17 230.51 27.76 234.26   A 0.54 0.54 0.0 0 0 28.44 234.84   Q 30.43 234.27 32.03 232.53   A 0.88 0.87 32.1 0 1 33.01 232.31   L 34.07 232.75   A 0.88 0.87 23.5 0 0 35.19 232.31   Q 35.86 230.88 37.19 231.64   A 0.72 0.72 0.0 0 0 38.17 231.39   Q 38.81 230.33 39.78 230.49   C 41.52 230.79 42.65 229.66 42.74 228.15   A 1.28 1.28 0.0 0 0 42.39 227.20   Q 40.73 225.41 38.91 224.63   A 0.79 0.79 0.0 0 1 38.46 223.67   Q 40.48 217.24 46.27 213.78   Q 56.53 207.65 59.95 205.22   Q 60.73 204.66 61.62 203.44   A 0.68 0.68 0.0 0 1 62.56 203.28   L 62.61 203.31   A 0.66 0.65 -60.2 0 1 62.82 204.12   Q 60.68 208.68 55.69 211.93   Q 50.21 215.50 41.94 220.65   A 0.78 0.77 44.8 0 0 41.95 221.97   C 46.79 224.93 44.15 229.97 41.48 233.21   Q 40.22 234.74 38.61 234.59   A 1.29 1.29 0.0 0 0 37.58 234.95   L 37.32 235.20   A 1.54 1.54 0.0 0 1 35.93 235.60   Q 34.75 235.34 33.90 236.11   A 1.11 1.09 -54.3 0 1 32.75 236.31   L 31.80 235.93   A 0.85 0.84 -56.8 0 0 30.87 236.13   Q 29.51 237.55 28.17 237.75   A 1.65 1.65 0.0 0 0 26.82 238.88   Q 26.08 241.16 24.49 243.21   C 23.21 244.85 19.71 245.75 17.51 246.70   A 0.62 0.61 -20.9 0 1 16.68 246.33   L 16.58 246.03   A 0.38 0.38 0.0 0 1 16.76 245.58   Q 21.46 243.05 25.11 238.65   A 0.45 0.45 0.0 0 0 24.64 237.93   Z"></path>
  <path fill="#000000" d="   M 29.63 222.79   Q 29.28 223.78 28.34 224.72   A 0.60 0.58 41.9 0 1 27.55 224.75   Q 25.97 223.45 24.45 222.88   A 0.56 0.56 0.0 0 1 24.13 222.13   Q 25.25 219.64 26.34 218.71   A 0.81 0.81 0.0 0 0 26.58 217.83   Q 25.83 215.72 28.34 213.36   A 0.95 0.95 0.0 0 1 29.55 213.28   L 31.91 214.97   A 0.97 0.96 -61.3 0 1 32.24 216.12   L 31.85 217.05   A 0.70 0.69 -73.1 0 0 32.35 217.99   Q 33.67 218.26 35.28 219.69   A 1.52 1.51 -51.7 0 1 35.51 221.71   L 33.99 223.83   A 0.99 0.98 35.6 0 1 32.62 224.05   L 30.48 222.52   A 0.56 0.55 27.1 0 0 29.63 222.79   Z   M 27.95 218.99   Q 28.90 220.10 30.38 220.12   A 0.50 0.49 13.9 0 0 30.84 219.85   Q 31.14 219.26 31.00 219.08   A 0.49 0.47 59.0 0 0 30.44 218.93   Q 29.65 219.26 28.23 218.62   A 0.24 0.24 0.0 0 0 27.95 218.99   Z"></path>
  <path fill="#000000" d="   M 64.34 214.29   C 68.42 218.32 65.82 224.61 63.68 228.92   A 0.98 0.97 -60.5 0 0 64.02 230.17   C 65.44 231.10 66.31 231.71 66.37 233.58   C 66.53 238.14 63.72 244.46 60.08 247.54   C 55.40 251.49 48.60 250.97 47.11 244.15   C 45.98 238.95 49.30 231.61 51.73 227.49   A 0.45 0.45 0.0 0 1 52.38 227.36   L 52.65 227.54   A 0.41 0.41 0.0 0 1 52.78 228.04   C 51.10 231.64 45.31 242.45 53.29 243.69   Q 59.93 244.72 63.72 239.30   A 1.89 1.88 -54.9 0 0 63.27 236.69   L 61.41 235.36   A 2.48 2.47 -61.1 0 1 60.56 232.40   L 63.65 224.84   A 2.12 2.10 43.9 0 0 63.61 223.15   L 62.04 219.78   A 1.09 1.06 42.4 0 1 61.99 218.97   L 63.52 214.48   A 0.50 0.50 0.0 0 1 64.34 214.29   Z"></path>
  <path fill="#000000" d="   M 47.64 222.64   A 0.79 0.79 0.0 0 1 47.14 221.58   L 48.38 218.53   A 0.90 0.90 0.0 0 1 49.55 218.04   L 52.94 219.42   A 0.41 0.41 0.0 0 0 53.49 219.13   Q 53.69 218.22 54.35 217.58   Q 54.89 217.07 55.99 217.72   Q 57.48 218.61 58.18 219.32   A 1.06 1.04 29.6 0 1 58.46 220.31   Q 58.05 221.99 56.63 223.59   A 0.74 0.73 -51.2 0 1 55.66 223.70   L 53.75 222.30   A 0.87 0.87 0.0 0 0 52.84 222.22   Q 52.03 222.63 51.51 223.80   A 0.90 0.89 32.0 0 1 50.11 224.12   Q 48.78 222.99 47.64 222.64   Z"></path>
  <path fill="#000000" d="   M 72.84 220.15   A 0.15 0.15 0.0 0 1 73.08 220.30   Q 71.37 228.07 71.21 234.20   Q 71.08 239.05 75.45 238.81   A 1.44 1.44 0.0 0 0 76.39 238.39   L 79.01 235.75   A 1.11 1.09 22.0 0 1 79.79 235.43   L 80.90 235.43   A 1.80 1.79 -84.5 0 0 82.66 233.97   Q 83.47 229.77 82.98 223.87   A 0.81 0.77 51.7 0 1 83.01 223.54   L 84.87 217.65   A 0.65 0.65 0.0 0 1 86.13 217.93   Q 85.30 224.12 85.34 228.99   C 85.35 231.31 83.72 239.21 80.17 238.84   C 78.07 238.62 77.06 240.61 76.00 242.15   C 73.35 245.99 70.13 244.57 68.89 240.71   Q 68.37 239.11 68.85 235.25   Q 69.50 230.05 69.96 226.74   C 70.22 224.85 70.80 223.44 71.35 221.75   A 2.05 2.01 80.3 0 1 72.02 220.78   L 72.84 220.15   Z"></path>
  <path fill="#005b21" d="   M 28.23 218.62   Q 29.65 219.26 30.44 218.93   A 0.49 0.47 59.0 0 1 31.00 219.08   Q 31.14 219.26 30.84 219.85   A 0.50 0.49 13.9 0 1 30.38 220.12   Q 28.90 220.10 27.95 218.99   A 0.24 0.24 0.0 0 1 28.23 218.62   Z"></path>
  <path fill="#000000" d="   M 90.87 220.23   A 0.29 0.28 67.8 0 1 91.38 220.45   Q 90.21 227.19 89.58 233.79   Q 89.37 236.07 90.56 238.06   A 0.86 0.85 38.3 0 0 92.11 237.88   L 92.57 236.42   A 0.88 0.88 0.0 0 1 94.27 236.50   Q 95.34 241.21 91.78 244.05   Q 90.73 244.88 89.52 244.12   Q 87.40 242.81 87.23 240.27   Q 87.01 237.09 88.48 226.53   Q 88.98 222.93 90.87 220.23   Z"></path>
  <path fill="#000000" d="   M 155.84 219.99   A 0.27 0.27 0.0 0 1 156.30 220.18   C 156.18 228.45 154.74 237.10 148.57 243.33   C 145.60 246.34 139.86 248.61 136.10 246.10   C 129.36 241.59 134.03 231.23 137.56 225.56   A 0.40 0.40 0.0 0 1 138.13 225.45   L 138.52 225.73   A 0.37 0.36 -59.1 0 1 138.63 226.20   Q 136.69 230.03 135.82 232.52   C 133.57 239.02 137.71 241.86 143.72 240.83   Q 150.26 239.72 152.85 232.62   A 5.89 5.33 -34.0 0 0 153.15 231.40   C 153.46 228.93 152.95 225.97 153.97 223.35   Q 154.93 220.87 155.84 219.99   Z"></path>
  <path fill="#000000" d="   M 160.96 220.16   A 0.29 0.28 68.0 0 1 161.47 220.38   Q 160.27 227.14 159.62 233.76   Q 159.40 236.05 160.58 238.05   A 0.86 0.86 0.0 0 0 162.14 237.87   L 162.61 236.41   A 0.89 0.88 47.7 0 1 164.31 236.50   Q 165.37 241.23 161.79 244.06   Q 160.73 244.89 159.52 244.13   Q 157.40 242.80 157.23 240.25   Q 157.03 237.06 158.54 226.47   Q 159.05 222.86 160.96 220.16   Z"></path>
  <rect fill="#000000" x="-2.60" y="-2.58" transform="translate(175.27,223.16) rotate(31.3)" width="5.20" height="5.16" rx="1.10"></rect>
  <path fill="#000000" d="   M 194.68 234.31   Q 194.66 234.32 194.54 234.31   A 0.25 0.25 0.0 0 0 194.31 234.47   C 193.19 237.64 191.51 237.86 189.78 239.82   A 1.02 1.01 23.1 0 1 188.92 240.16   C 187.97 240.06 187.17 240.09 186.53 240.92   C 184.90 242.98 182.45 246.04 179.86 243.42   Q 178.24 241.78 178.37 238.95   Q 178.80 230.02 180.21 224.20   Q 180.76 221.93 181.73 220.56   A 0.49 0.49 0.0 0 1 182.61 220.94   Q 181.47 226.37 180.83 233.24   C 180.34 238.57 183.37 241.05 187.79 237.18   A 1.54 1.51 23.9 0 1 188.80 236.80   L 189.78 236.80   A 1.27 1.26 -69.1 0 0 190.73 236.37   L 193.83 232.84   A 0.49 0.47 19.7 0 1 194.19 232.68   L 195.04 232.68   A 0.31 0.31 0.0 0 1 195.27 233.20   Q 194.96 233.53 195.00 233.78   A 0.49 0.47 77.3 0 1 194.68 234.31   Z"></path>
  <path fill="#000000" d="   M 125.12 242.87   Q 126.50 236.57 126.45 235.44   Q 126.15 228.18 128.66 221.54   A 0.49 0.49 0.0 0 1 129.60 221.73   Q 129.21 232.55 129.05 234.21   Q 128.79 236.84 126.59 242.55   A 0.93 0.89 0.2 0 1 126.03 243.08   L 125.53 243.24   A 0.32 0.32 0.0 0 1 125.12 242.87   Z"></path>
  <path fill="#000000" d="   M 115.75 230.42   A 0.40 0.39 -32.2 0 0 116.46 230.58   L 122.35 222.35   A 0.81 0.81 0.0 0 1 123.53 222.20   C 126.22 224.47 126.14 227.63 123.36 229.73   C 121.77 230.93 120.34 228.54 118.41 231.43   Q 116.16 234.80 115.01 237.41   C 114.29 239.05 113.49 239.92 112.26 241.63   A 2.18 2.18 0.0 0 1 111.19 242.41   L 105.07 244.42   A 0.60 0.60 0.0 0 1 104.61 243.31   Q 109.83 240.60 112.87 237.40   A 0.38 0.37 19.7 0 0 112.57 236.77   C 106.49 237.15 110.28 229.65 111.64 227.54   A 0.95 0.94 24.5 0 1 112.69 227.15   Q 115.29 227.89 115.75 230.42   Z"></path>
  <path fill="#000000" d="   M 145.20 225.06   Q 147.61 226.65 148.09 228.21   A 1.98 1.95 -46.6 0 1 148.11 229.24   Q 147.74 230.74 146.03 232.52   A 0.69 0.68 39.5 0 1 145.13 232.60   L 142.62 230.81   A 0.88 0.87 28.9 0 1 142.32 229.78   L 144.12 225.39   A 0.73 0.73 0.0 0 1 145.20 225.06   Z"></path>
  <path fill="#000000" d="   M 96.49 244.23   A 0.63 0.63 0.0 0 1 96.08 243.08   Q 100.27 240.29 102.43 237.30   Q 103.69 235.56 105.09 229.96   A 0.89 0.88 6.3 0 1 105.95 229.28   L 106.20 229.28   A 0.37 0.36 -87.1 0 1 106.56 229.68   Q 106.36 231.62 104.95 237.03   Q 103.26 243.58 96.49 244.23   Z"></path>
  <path fill="#000000" d="   M 166.79 244.22   A 0.63 0.63 0.0 0 1 166.38 243.08   Q 170.57 240.28 172.73 237.28   Q 173.98 235.55 175.37 229.94   A 0.89 0.88 6.2 0 1 176.23 229.26   L 176.49 229.26   A 0.37 0.36 -87.2 0 1 176.85 229.66   Q 176.65 231.60 175.25 237.01   Q 173.56 243.56 166.79 244.22   Z"></path>
  <path fill="#000000" d="   M 7.96 246.79   A 0.64 0.64 0.0 0 1 7.55 245.61   Q 11.89 242.78 14.14 239.73   Q 15.45 237.96 16.94 232.22   A 0.92 0.91 6.8 0 1 17.83 231.53   L 18.09 231.53   A 0.38 0.37 -86.6 0 1 18.46 231.95   Q 18.23 233.94 16.73 239.48   Q 14.92 246.19 7.96 246.79   Z"></path>
  <path fill="#000000" d="   M 68.44 251.65   A 0.79 0.78 -70.5 0 1 67.94 250.59   L 69.17 247.55   A 0.89 0.89 0.0 0 1 70.33 247.06   L 73.71 248.42   A 0.41 0.40 -72.5 0 0 74.26 248.13   Q 74.45 247.23 75.11 246.59   Q 75.65 246.08 76.74 246.72   Q 78.23 247.60 78.93 248.31   A 1.05 1.04 29.4 0 1 79.21 249.29   Q 78.81 250.97 77.40 252.57   A 0.73 0.72 -51.3 0 1 76.43 252.68   L 74.53 251.29   A 0.87 0.87 0.0 0 0 73.62 251.21   Q 72.81 251.62 72.30 252.79   A 0.89 0.89 0.0 0 1 70.90 253.11   Q 69.58 251.99 68.44 251.65   Z"></path>
</svg>
