<svg xmlns="http://www.w3.org/2000/svg" version="1.1" viewBox="80.37 1.35 637.11 770.32">   <path fill="#cf171f" d="   M 405.49 117.89   A 0.31 0.30 -15.7 0 0 405.74 117.45   C 402.90 111.60 400.00 106.38 397.79 100.40   C 388.82 76.09 386.61 50.46 395.41 25.93   Q 399.40 14.79 407.02 4.80   Q 407.75 3.84 410.83 1.54   A 0.95 0.94 -51.3 0 1 411.79 1.43   Q 413.69 2.27 414.40 4.57   Q 418.23 16.97 422.03 23.25   Q 424.78 27.80 428.34 33.89   A 5.90 5.53 -81.8 0 0 428.83 34.59   Q 430.48 36.58 431.11 38.12   A 3.51 3.48 -76.3 0 0 431.64 39.00   Q 433.94 41.70 435.72 44.25   Q 440.53 51.14 445.77 57.42   Q 458.11 72.18 458.13 72.21   A 3.19 3.02 4.2 0 0 458.76 72.90   Q 462.11 75.65 463.60 78.25   Q 463.71 78.44 464.05 78.63   Q 464.46 78.86 464.57 78.96   Q 467.92 82.29 476.26 92.20   C 479.36 95.88 482.40 101.48 484.77 105.42   C 486.05 107.54 486.52 109.53 487.75 110.98   A 2.73 2.50 -78.4 0 1 488.18 111.70   Q 491.51 119.93 493.31 124.90   Q 497.02 135.12 497.76 148.00   Q 498.51 160.88 494.90 171.94   C 493.24 177.00 490.09 183.83 486.58 188.58   C 481.49 195.46 475.69 202.06 468.39 206.56   A 4.01 4.01 0.0 0 1 466.28 207.16   L 334.42 207.16   A 4.08 4.06 63.1 0 1 332.00 206.36   C 330.28 205.10 326.98 202.76 325.06 200.83   Q 316.19 191.92 311.94 185.62   Q 306.62 177.73 303.85 170.72   Q 302.40 167.08 300.96 160.40   Q 299.82 155.17 299.93 149.75   Q 300.42 126.52 312.20 108.17   Q 313.10 106.76 317.79 101.10   Q 319.19 99.41 321.33 97.50   Q 322.94 96.06 325.18 93.99   A 1.14 0.73 -6.3 0 1 325.34 93.86   L 330.35 90.59   A 0.84 0.84 0.0 0 1 331.65 91.37   C 330.66 103.50 331.45 114.20 336.18 125.78   Q 336.49 126.53 336.91 127.14   A 1.21 0.05 54.4 0 1 337.45 127.96   Q 340.24 134.93 347.14 141.59   Q 347.49 141.92 347.58 142.39   A 0.82 0.81 1.2 0 0 348.20 143.03   C 350.35 143.50 350.66 146.10 353.19 145.90   A 0.48 0.48 0.0 0 0 353.60 145.23   C 349.03 134.23 346.76 123.62 345.61 112.06   C 344.42 100.14 345.48 88.80 348.69 78.13   C 350.78 71.18 354.43 63.27 359.10 57.16   Q 365.61 48.62 373.24 42.06   A 2.28 2.08 9.0 0 1 373.68 41.77   L 377.48 39.77   A 0.47 0.47 0.0 0 1 378.16 40.29   Q 375.99 50.30 375.53 60.01   Q 374.81 75.07 378.87 87.20   Q 380.43 91.87 384.28 98.65   Q 387.10 103.61 391.24 107.65   C 394.42 110.76 402.08 118.16 405.49 117.89   Z"></path>   <path fill="#0165b3" d="   M 398.94 219.90   Q 456.23 219.90 472.94 219.93   C 475.97 219.94 479.47 220.34 482.06 221.08   Q 485.04 221.93 487.22 224.10   Q 497.57 234.41 489.72 247.99   Q 488.69 249.77 484.24 252.48   Q 481.06 254.41 477.27 254.41   Q 431.93 254.41 398.94 254.41   Q 365.95 254.41 320.61 254.41   Q 316.82 254.41 313.64 252.48   Q 309.19 249.77 308.16 247.99   Q 300.31 234.41 310.66 224.10   Q 312.84 221.93 315.82 221.08   C 318.41 220.34 321.91 219.94 324.94 219.93   Q 341.65 219.90 398.94 219.90   Z"></path>   <path fill="#0165b3" d="   M 429.52 318.03   L 428.20 318.79   A 2.81 2.74 2.5 0 0 427.36 319.54   Q 418.78 331.31 412.33 344.31   Q 410.81 347.37 410.10 350.45   Q 410.03 350.74 409.76 351.01   Q 409.51 351.26 409.41 351.57   Q 406.89 359.12 405.41 366.64   Q 405.10 368.22 402.69 370.45   A 1.87 1.77 13.9 0 1 402.02 370.83   Q 398.53 371.87 395.13 370.83   A 1.43 1.39 76.3 0 1 394.51 370.44   L 392.74 368.60   A 1.63 1.62 -73.5 0 1 392.32 367.82   Q 389.13 354.28 387.96 351.50   Q 385.74 346.19 384.32 342.84   Q 382.13 337.71 380.28 334.81   Q 378.91 332.67 377.21 329.68   Q 375.61 326.84 373.99 324.64   C 367.73 316.11 360.67 307.95 352.31 301.68   Q 349.20 299.34 344.76 295.69   A 4.53 4.45 77.5 0 0 343.99 295.19   C 336.32 291.33 332.06 284.89 334.91 276.03   Q 336.38 271.48 341.17 269.05   Q 344.92 267.14 350.74 267.15   Q 399.53 267.21 447.27 267.14   Q 456.17 267.13 460.88 272.20   A 4.32 3.94 -84.0 0 1 461.47 273.00   Q 465.18 279.36 462.86 286.60   A 4.52 4.12 72.6 0 1 462.40 287.59   Q 459.40 292.42 453.57 295.33   A 3.69 3.40 9.5 0 0 452.82 295.82   Q 447.17 300.52 445.89 301.43   Q 441.30 304.75 439.00 307.03   Q 433.81 312.15 430.83 315.84   Q 430.08 316.76 429.93 317.46   A 0.83 0.82 -9.6 0 1 429.52 318.03   Z"></path>   <path fill="#0165b3" d="   M 298.47 534.02   C 299.64 527.93 300.60 521.61 299.15 515.90   Q 297.83 510.68 294.24 507.15   Q 290.66 503.62 284.81 502.10   Q 281.94 501.36 277.61 501.34   C 272.47 501.32 266.67 501.21 260.68 499.95   Q 255.18 498.80 250.64 498.41   A 1.10 0.97 -30.1 0 1 250.39 498.36   L 237.01 493.96   A 0.24 0.23 -88.3 0 1 236.85 493.78   L 236.78 493.42   A 0.10 0.09 -85.3 0 0 236.73 493.35   L 229.61 490.39   A 1.17 1.16 23.2 0 0 228.09 490.99   Q 227.23 492.88 224.81 497.33   Q 223.24 500.20 216.97 509.76   A 4.57 4.20 87.6 0 1 216.33 510.52   Q 215.59 511.25 212.68 514.43   Q 209.21 518.23 200.80 525.08   Q 199.33 526.28 198.27 526.76   Q 196.96 527.36 196.54 527.65   Q 191.57 531.14 184.33 533.18   A 3.65 3.62 -67.9 0 0 183.44 533.56   C 181.40 534.79 178.75 534.64 177.05 535.87   A 1.86 1.86 0.0 0 1 176.32 536.19   Q 163.96 538.64 161.75 538.80   Q 150.68 539.62 138.88 538.85   Q 136.47 538.69 127.52 536.26   Q 124.51 535.44 112.04 529.47   A 2.40 2.34 83.0 0 1 111.18 528.78   Q 110.22 527.56 108.84 527.07   A 4.41 4.28 -14.5 0 1 107.52 526.32   Q 97.56 518.08 92.24 510.78   Q 89.53 507.06 85.38 498.19   C 84.81 496.98 84.94 495.68 84.00 494.68   A 2.17 2.09 16.2 0 1 83.53 493.86   Q 77.75 474.34 82.55 454.55   Q 85.59 442.01 92.81 431.65   A 2.09 1.86 -6.1 0 1 93.20 431.22   Q 94.76 429.96 95.37 428.23   A 1.77 1.74 80.0 0 1 95.90 427.46   Q 96.81 426.70 99.36 423.87   Q 101.27 421.76 102.90 420.39   Q 104.00 419.47 107.84 416.56   A 3.62 3.42 -73.2 0 1 108.68 416.08   C 112.42 414.52 115.47 412.24 119.29 410.82   Q 122.97 409.46 124.67 408.92   Q 131.14 406.87 137.74 406.78   A 1.73 1.71 -61.9 0 0 138.71 406.48   Q 140.41 405.33 142.54 406.41   A 1.17 1.15 59.7 0 0 143.05 406.55   Q 149.24 406.81 151.70 407.55   Q 155.38 408.65 162.69 412.02   A 1.75 1.70 80.4 0 1 163.28 412.45   Q 163.79 413.01 164.24 413.28   Q 170.13 416.82 174.45 421.31   C 174.89 421.77 175.02 422.30 175.56 422.84   Q 178.62 425.99 179.43 427.82   Q 180.51 430.25 181.54 431.15   A 1.48 1.30 -86.3 0 1 181.88 431.59   Q 189.16 445.86 184.67 461.02   Q 183.29 465.70 180.83 469.46   Q 178.24 473.44 175.26 476.88   Q 173.58 478.83 170.83 480.92   Q 165.94 484.64 159.65 487.50   A 1.07 0.63 -59.4 0 0 159.45 487.61   Q 157.55 488.96 155.15 489.46   A 1.17 1.14 -75.2 0 0 154.50 489.85   Q 154.10 490.31 154.05 491.24   A 0.70 0.70 0.0 0 0 154.75 491.99   Q 171.96 491.93 185.42 482.98   Q 191.17 479.16 194.48 473.93   Q 198.08 468.23 199.85 462.22   Q 202.09 454.62 200.83 443.79   Q 200.51 441.09 198.08 434.39   Q 194.04 423.26 185.97 415.26   C 185.57 414.87 185.07 414.82 184.70 414.43   Q 180.96 410.44 175.60 408.15   Q 175.28 408.01 174.81 408.12   A 0.71 0.71 0.0 0 1 174.01 407.75   Q 173.67 407.06 172.44 406.79   Q 169.23 406.07 168.95 402.68   Q 166.97 378.36 176.31 356.75   Q 180.45 347.17 188.09 336.13   A 3.00 2.90 1.0 0 1 189.00 335.28   C 190.71 334.28 190.94 332.42 192.20 331.06   Q 197.62 325.24 202.58 320.44   C 204.08 318.99 205.74 318.77 207.09 317.18   Q 207.60 316.58 208.77 315.70   Q 217.37 309.19 226.45 304.40   Q 227.34 303.93 231.61 302.36   Q 231.96 302.23 236.76 300.29   Q 246.78 296.25 257.37 294.52   A 0.55 0.53 16.8 0 0 257.66 294.37   L 257.86 294.15   A 0.04 0.03 -75.1 0 1 257.89 294.13   Q 275.77 291.34 293.60 293.52   C 296.76 293.91 300.49 294.92 304.12 295.54   Q 306.27 295.90 308.05 296.60   Q 309.60 297.21 312.04 297.64   A 2.35 2.30 68.5 0 1 313.07 298.10   C 314.15 298.96 316.25 299.08 317.62 299.76   Q 321.87 301.90 324.54 302.72   Q 327.74 303.71 329.54 304.96   Q 331.72 306.48 334.43 307.63   Q 334.66 307.73 335.11 308.27   Q 335.33 308.54 335.56 308.67   Q 342.90 313.01 348.82 318.56   A 1.34 1.19 -8.6 0 0 349.19 318.80   Q 349.93 319.10 350.04 319.19   Q 356.66 324.68 364.16 334.54   A 2.35 2.31 -0.6 0 0 364.68 335.04   L 365.85 335.83   A 0.75 0.73 -79.3 0 1 366.17 336.31   Q 366.28 337.00 368.82 340.90   Q 377.17 353.76 381.40 368.03   Q 382.68 372.38 383.94 379.63   Q 384.91 385.26 386.92 391.12   Q 387.81 393.70 390.91 398.13   A 3.55 3.51 -89.6 0 0 391.70 398.94   Q 398.00 403.77 404.71 399.63   A 3.43 3.28 4.3 0 0 405.44 399.03   Q 411.18 392.75 412.07 384.45   A 0.97 0.93 75.9 0 1 412.44 383.80   L 412.44 383.75   A 0.89 0.83 -42.8 0 1 412.46 383.49   L 416.24 367.97   A 0.47 0.46 79.3 0 1 416.42 367.70   Q 416.51 367.63 416.67 367.61   Q 416.68 367.61 416.75 367.37   Q 418.69 360.71 419.62 358.62   Q 425.19 346.16 429.70 339.80   Q 430.91 338.10 431.62 336.38   C 432.05 335.33 433.12 335.26 433.86 334.26   Q 439.45 326.72 447.53 319.28   C 447.91 318.94 448.62 318.82 449.05 318.43   Q 458.96 309.63 471.47 303.34   A 3.27 3.16 24.2 0 1 472.25 303.06   Q 474.61 302.52 477.23 301.17   Q 479.69 299.90 481.98 299.09   Q 510.16 289.15 540.47 294.25   A 1.89 0.39 35.5 0 1 541.37 294.65   Q 541.65 294.81 542.02 294.86   Q 546.52 295.49 551.04 296.89   Q 553.75 297.73 560.73 299.96   A 1.01 0.92 74.1 0 1 561.12 300.20   Q 561.39 300.49 561.78 300.66   Q 566.16 302.57 570.26 303.72   A 1.31 1.27 77.6 0 1 570.91 304.15   Q 571.12 304.43 572.93 305.31   Q 577.64 307.61 584.85 312.63   Q 589.79 316.08 591.35 317.76   Q 592.18 318.65 593.44 319.13   Q 594.43 319.50 595.45 320.52   Q 601.53 326.61 606.12 331.63   A 3.36 3.25 -76.5 0 1 606.78 332.75   Q 607.41 334.65 609.34 335.49   Q 609.99 335.77 610.10 336.45   Q 610.18 336.94 610.57 337.50   Q 616.85 346.41 621.41 356.32   C 622.82 359.39 623.64 362.84 624.89 365.93   Q 625.86 368.31 626.15 369.79   Q 627.85 378.55 628.59 383.21   Q 629.38 388.30 629.10 401.34   C 628.99 406.44 626.37 406.08 622.95 407.75   Q 618.07 410.14 615.18 412.41   Q 614.36 413.05 614.11 413.57   A 1.21 1.21 0.0 0 1 613.48 414.20   Q 611.76 414.98 609.84 417.36   Q 603.65 425.04 602.66 427.91   Q 601.72 430.66 601.02 431.06   A 0.84 0.83 -14.7 0 0 600.59 431.79   Q 600.58 433.36 599.74 434.25   A 1.91 1.72 -15.5 0 0 599.34 434.88   Q 598.29 437.61 597.54 441.26   Q 593.71 459.81 603.78 474.62   Q 607.63 480.28 614.68 484.42   Q 627.14 491.74 641.94 491.97   A 1.25 1.25 0.0 0 0 642.45 489.57   Q 635.44 486.62 628.48 482.05   Q 627.09 481.14 626.19 480.21   Q 624.95 478.93 624.14 478.67   A 1.33 1.30 85.5 0 1 623.34 477.97   Q 622.59 476.40 620.73 474.70   A 4.37 3.07 81.5 0 1 620.33 474.28   Q 610.94 462.73 611.45 447.56   Q 611.58 443.65 612.85 439.57   Q 614.70 433.66 615.77 431.99   Q 618.32 428.02 619.71 425.78   Q 620.33 424.78 621.57 423.50   Q 622.04 423.02 623.50 421.26   Q 625.56 418.79 628.42 416.78   Q 632.18 414.14 633.91 412.99   Q 638.27 410.08 643.72 408.45   Q 644.07 408.34 644.28 408.21   A 1.23 0.15 -34.9 0 1 645.12 407.76   L 655.21 406.56   A 0.91 0.90 18.9 0 0 655.71 406.32   Q 656.40 405.63 657.10 406.23   A 1.65 1.65 0.0 0 0 658.12 406.63   Q 663.60 406.83 670.74 407.95   Q 670.88 407.97 671.19 408.23   A 2.11 2.09 -17.1 0 0 671.93 408.62   Q 678.91 410.68 680.96 411.83   C 685.05 414.13 688.98 416.09 693.08 418.92   Q 695.44 420.55 697.05 422.38   Q 700.60 426.41 701.56 427.30   Q 702.71 428.37 703.11 429.84   Q 703.28 430.45 703.57 430.57   Q 703.90 430.71 704.12 430.77   A 0.94 0.93 -9.5 0 1 704.63 431.13   Q 708.91 436.97 711.65 443.61   Q 721.91 468.49 714.11 494.27   Q 713.98 494.70 713.57 495.06   A 1.25 1.25 0.0 0 0 713.18 495.68   C 711.81 500.66 708.81 505.45 706.35 509.88   A 3.52 3.37 -6.9 0 1 705.61 510.78   Q 704.33 511.91 703.23 513.77   A 3.05 2.54 -13.3 0 1 702.93 514.17   Q 697.31 520.53 690.49 526.24   Q 689.49 527.07 688.23 527.40   A 1.86 1.84 -76.0 0 0 687.33 527.95   Q 685.90 529.55 685.13 529.91   Q 674.58 534.79 670.03 536.27   Q 667.82 536.99 663.49 538.03   Q 660.50 538.75 656.83 538.99   Q 637.65 540.23 621.99 536.20   Q 619.54 535.57 605.97 530.48   A 1.39 0.30 12.6 0 1 605.84 530.42   L 598.67 526.19   A 4.96 4.27 61.5 0 1 598.11 525.81   L 591.85 520.91   A 1.39 1.03 79.9 0 1 591.68 520.75   Q 589.40 517.91 585.27 514.85   A 2.11 2.04 4.9 0 1 584.67 514.16   Q 583.46 511.93 581.69 510.59   A 2.98 2.87 2.7 0 1 581.15 510.02   Q 574.66 500.88 569.49 490.72   A 0.73 0.73 0.0 0 0 568.63 490.34   Q 564.38 491.56 560.81 493.92   A 1.22 0.76 -58.3 0 1 560.59 494.03   L 547.22 498.39   A 0.93 0.50 16.8 0 1 547.02 498.43   Q 541.56 498.93 535.71 500.18   C 526.42 502.17 517.94 500.25 509.50 503.11   Q 509.17 503.22 509.01 503.65   A 0.63 0.61 -83.4 0 1 508.52 504.05   Q 506.25 504.39 503.56 507.11   Q 500.93 509.77 499.46 513.42   C 496.93 519.68 497.90 527.78 499.50 534.17   A 0.52 0.52 0.0 0 1 498.87 534.80   L 495.70 534.03   A 0.66 0.62 -11.9 0 1 495.37 533.83   Q 494.30 532.66 491.91 532.21   A 0.66 0.59 -21.7 0 1 491.69 532.13   L 488.75 530.43   A 1.95 1.63 76.7 0 1 488.43 530.19   L 484.07 525.98   A 0.16 0.08 26.6 0 0 484.04 525.94   Q 479.84 519.47 479.25 516.05   Q 478.90 513.96 478.82 507.54   Q 478.76 503.25 479.90 499.08   Q 482.17 490.77 486.52 484.04   C 487.44 482.63 489.18 481.15 489.59 479.94   Q 489.85 479.17 490.82 478.99   A 0.93 0.91 4.6 0 0 491.50 478.42   Q 491.76 477.76 492.24 477.30   A 2.02 1.90 -51.0 0 0 492.01 474.20   Q 491.95 474.16 491.89 473.61   C 491.74 472.04 490.72 469.30 489.56 465.45   Q 488.14 460.78 487.87 457.96   Q 486.95 448.65 488.22 441.70   Q 488.84 438.26 491.87 432.26   A 2.30 2.28 83.9 0 1 492.47 431.51   Q 493.74 430.43 495.02 428.14   A 3.15 2.90 84.3 0 1 495.53 427.46   Q 502.16 420.57 511.52 417.18   A 4.67 4.52 -57.2 0 1 512.46 416.96   C 516.86 416.47 520.70 414.77 525.00 414.67   C 527.15 414.62 529.28 413.70 531.92 413.89   A 0.64 0.63 18.6 0 1 532.41 414.87   Q 531.26 416.64 528.99 418.37   A 4.43 4.22 -1.1 0 0 528.15 419.20   Q 523.17 425.69 522.41 433.55   A 2.35 2.31 35.3 0 0 522.62 434.72   Q 522.63 434.74 522.71 434.86   A 2.02 1.96 -60.7 0 1 523.02 436.03   Q 522.87 438.64 524.22 440.80   Q 524.83 441.78 527.85 445.34   Q 528.43 446.02 532.64 447.98   C 537.26 450.13 544.50 449.83 549.24 448.96   Q 549.80 448.86 549.98 448.28   A 0.56 0.55 -81.5 0 1 550.51 447.88   Q 553.51 447.87 559.21 443.21   Q 567.37 436.54 571.09 430.83   Q 574.96 424.92 578.57 414.40   C 578.71 414.01 580.25 408.61 579.83 406.53   Q 579.71 405.93 580.12 405.58   A 1.05 1.03 71.8 0 0 580.47 404.87   Q 581.33 392.05 579.51 384.25   Q 578.36 379.37 574.73 371.08   Q 573.52 368.32 571.51 365.52   Q 568.66 361.57 567.76 360.27   C 566.01 357.74 563.31 354.98 561.42 353.33   Q 554.49 347.26 542.89 341.62   C 541.44 340.92 538.52 340.39 536.44 339.63   Q 533.36 338.49 529.03 338.17   Q 528.07 338.10 527.19 337.52   A 2.96 2.91 -28.1 0 0 525.53 337.03   L 512.81 337.23   A 3.41 3.20 -53.5 0 0 511.77 337.42   C 508.95 338.41 505.46 338.66 502.21 339.66   Q 496.12 341.53 492.02 343.45   Q 491.67 343.62 491.61 343.69   A 2.40 1.85 -77.6 0 1 490.93 344.26   Q 484.69 347.56 482.38 349.71   Q 480.99 351.00 479.99 351.21   A 0.77 0.70 16.1 0 0 479.66 351.37   Q 473.72 356.51 468.77 363.50   Q 463.76 370.55 461.50 377.62   Q 458.41 387.31 458.18 395.50   Q 458.07 399.84 457.71 401.63   Q 455.22 414.09 454.95 414.73   Q 453.83 417.41 452.06 420.59   Q 450.74 422.95 452.52 425.80   Q 453.58 427.49 455.93 430.43   Q 458.45 433.56 459.19 434.93   Q 459.88 436.22 461.69 439.18   A 6.71 6.49 20.8 0 1 462.29 440.46   Q 463.35 443.56 464.59 446.10   Q 466.10 449.20 466.74 451.82   Q 468.80 460.38 468.98 464.52   C 469.18 469.08 469.49 476.95 468.41 482.45   Q 466.86 490.39 465.61 493.36   Q 462.00 501.99 460.80 503.92   Q 460.39 504.59 460.03 505.21   Q 458.08 508.57 457.55 509.43   Q 456.37 511.35 454.57 513.29   Q 448.09 520.26 446.27 521.79   Q 438.68 528.15 435.09 530.09   Q 433.57 530.92 422.77 535.40   Q 422.50 535.51 422.27 535.73   Q 422.06 535.93 421.75 536.01   Q 419.19 536.65 414.86 537.60   A 0.39 0.38 -84.0 0 0 414.58 537.83   Q 414.45 538.10 414.21 538.13   Q 398.85 540.35 383.26 538.16   A 2.46 2.41 60.9 0 1 382.55 537.95   Q 381.20 537.31 378.03 536.44   Q 374.97 535.60 367.66 532.43   Q 362.42 530.16 357.94 526.91   Q 351.51 522.26 345.71 516.01   Q 340.09 509.94 336.31 502.67   Q 324.41 479.74 330.72 453.32   Q 331.76 448.94 333.31 445.80   Q 334.31 443.77 336.49 438.36   A 0.97 0.82 -22.0 0 1 336.60 438.15   L 340.91 431.48   A 1.32 1.13 85.6 0 1 341.02 431.33   C 343.99 427.99 347.18 424.51 345.50 420.44   C 344.19 417.27 342.80 414.99 342.09 411.75   C 341.20 407.70 340.24 403.09 339.93 399.36   C 339.35 392.46 339.23 388.19 337.92 382.94   Q 335.04 371.37 327.78 361.74   Q 326.99 360.69 326.33 360.19   A 1.92 1.81 4.0 0 1 325.84 359.66   Q 323.59 356.03 320.50 353.94   A 2.44 2.40 3.7 0 1 319.72 353.07   Q 318.99 351.71 317.18 350.92   A 3.74 3.60 74.7 0 1 316.36 350.43   Q 303.50 340.19 287.51 337.98   A 1.27 1.26 -18.6 0 1 286.82 337.64   Q 286.75 337.57 286.70 337.50   A 0.26 0.26 0.0 0 0 286.50 337.38   Q 278.69 336.72 271.00 337.32   Q 270.82 337.33 270.34 337.73   A 1.53 1.51 -68.2 0 1 269.51 338.09   Q 264.42 338.59 262.50 339.27   Q 259.60 340.29 257.66 340.77   Q 255.87 341.21 253.00 342.62   Q 245.81 346.17 242.20 348.96   Q 239.70 350.89 238.70 351.35   A 2.50 2.37 -77.5 0 0 238.08 351.77   Q 232.76 356.83 231.52 358.30   Q 230.19 359.87 223.75 369.31   A 2.78 2.76 -21.1 0 0 223.35 370.20   Q 222.84 372.34 221.20 375.51   Q 219.42 378.97 218.25 384.95   Q 214.09 406.25 223.77 425.75   Q 226.83 431.90 231.98 437.27   Q 237.00 442.50 243.00 446.46   A 3.23 3.00 -18.8 0 0 243.87 446.85   Q 245.90 447.43 247.18 448.42   A 2.31 2.25 -20.1 0 0 248.23 448.89   Q 255.52 450.24 263.02 448.82   A 0.62 0.46 -53.3 0 0 263.12 448.79   L 268.20 446.60   A 1.40 1.19 -71.3 0 0 268.52 446.41   Q 278.12 439.11 274.02 427.16   A 3.19 3.18 -75.5 0 0 273.38 426.07   Q 272.72 425.33 272.73 424.00   A 1.17 1.15 20.7 0 0 272.32 423.12   Q 271.19 422.16 270.96 420.84   A 0.97 0.96 -72.4 0 0 270.69 420.31   L 265.79 415.50   A 0.95 0.95 0.0 0 1 266.56 413.88   Q 275.97 414.82 281.58 416.07   Q 288.25 417.56 292.84 420.13   Q 298.11 423.08 302.35 427.46   A 5.63 5.33 -82.6 0 1 303.23 428.67   Q 304.30 430.67 305.00 431.18   A 2.74 2.67 3.1 0 1 305.72 431.96   Q 310.02 438.88 310.26 447.98   Q 310.61 461.12 306.22 471.75   Q 305.97 472.36 306.10 474.44   A 0.56 0.56 0.0 0 1 305.71 475.01   Q 305.56 475.05 305.53 475.07   A 1.21 1.20 54.9 0 0 305.22 476.90   C 307.47 479.57 309.86 481.75 311.83 485.02   Q 316.77 493.22 318.83 503.12   Q 319.15 504.65 318.97 513.71   A 2.54 2.48 52.4 0 1 318.90 514.30   L 317.85 518.62   A 1.02 0.81 72.1 0 1 317.76 518.86   L 313.87 526.10   A 2.00 1.90 85.9 0 1 313.37 526.71   L 307.56 531.48   A 2.71 2.68 18.7 0 1 306.45 532.02   Q 303.81 532.65 302.36 533.91   A 1.33 1.24 16.8 0 1 301.83 534.17   L 299.17 534.71   A 0.59 0.59 0.0 0 1 298.47 534.02   Z   M 413.83 489.96   Q 413.99 489.98 414.07 489.96   A 2.85 2.68 13.7 0 0 415.06 489.40   Q 419.94 485.13 422.59 478.93   A 3.12 3.09 55.7 0 0 422.84 477.57   Q 422.79 476.49 423.24 475.75   A 3.06 3.05 -26.4 0 0 423.68 474.45   Q 424.76 464.32 418.45 455.96   C 415.48 452.02 410.39 449.66 405.84 448.13   Q 397.17 445.20 388.80 449.22   A 2.48 2.44 8.6 0 0 388.11 449.72   Q 387.71 450.13 387.52 450.15   C 383.10 450.69 379.16 455.86 377.05 459.58   Q 372.86 466.98 374.45 475.65   A 4.73 4.24 32.4 0 0 374.65 476.36   C 375.24 477.83 375.00 479.01 375.71 480.33   Q 377.48 483.62 379.32 485.68   A 0.60 0.58 22.3 0 1 379.46 486.00   Q 379.47 486.09 379.48 486.13   A 1.27 1.24 -74.5 0 0 379.76 486.64   Q 383.05 490.21 387.62 492.67   Q 391.74 494.89 396.24 495.08   Q 400.97 495.28 405.28 494.54   Q 407.73 494.13 412.73 490.88   A 0.40 0.38 80.3 0 0 412.91 490.61   Q 412.92 490.54 412.93 490.51   A 0.84 0.84 0.0 0 1 413.83 489.96   Z"></path>   <path fill="#0165b3" d="   M 709.33 520.86   Q 708.02 526.26 704.83 531.33   Q 695.26 546.52 681.10 559.11   C 666.63 571.98 653.79 583.00 637.45 595.35   Q 623.43 605.94 610.23 616.47   A 1.77 1.74 -72.1 0 1 609.58 616.81   L 608.51 617.13   A 0.67 0.67 0.0 0 0 608.05 617.94   Q 608.51 619.74 607.90 627.13   Q 607.43 632.88 607.31 636.38   Q 606.76 652.07 606.21 664.25   C 605.66 676.21 603.02 686.23 595.00 696.00   C 593.90 697.33 591.57 700.14 589.20 699.63   C 578.01 697.23 573.43 706.15 567.68 714.68   C 565.59 717.78 562.28 720.39 558.88 722.52   Q 549.17 728.59 534.86 731.61   Q 506.21 737.66 477.19 734.39   C 469.78 733.55 463.85 729.41 462.96 721.83   C 462.19 715.19 462.77 705.52 465.24 697.25   A 0.83 0.83 0.0 0 1 466.85 697.32   L 468.22 703.97   A 3.59 3.12 30.7 0 0 468.49 704.79   Q 470.43 708.98 474.44 710.59   Q 482.18 713.70 491.96 713.89   Q 514.22 714.31 529.88 712.90   Q 548.63 711.21 565.35 703.87   C 568.62 702.43 572.75 699.51 575.18 695.96   C 579.47 689.70 584.51 684.35 592.78 686.88   A 2.44 2.43 -68.3 0 0 595.68 685.63   Q 597.24 682.48 597.71 678.98   Q 598.73 671.49 598.47 665.04   C 598.17 657.46 598.26 649.69 598.25 643.22   A 3.69 3.52 55.6 0 1 598.44 642.06   L 606.29 618.22   A 1.20 1.18 2.8 0 1 607.19 617.42   L 607.49 617.35   A 0.99 0.98 -86.3 0 0 608.24 616.68   Q 611.62 606.16 620.19 598.69   C 638.85 582.44 658.67 568.28 676.86 551.36   Q 694.69 534.79 708.81 520.57   A 0.31 0.31 0.0 0 1 709.33 520.86   Z"></path>   <path fill="#0165b3" d="   M 670.77 606.51   L 661.37 599.30   A 1.71 1.71 0.0 0 1 660.82 597.31   Q 664.04 589.15 668.78 581.77   A 1.81 1.80 24.9 0 1 670.84 581.02   C 677.34 583.04 682.19 589.51 679.04 596.56   Q 676.30 602.68 673.14 606.27   A 1.74 1.74 0.0 0 1 670.77 606.51   Z"></path>   <path fill="#0165b3" d="   M 670.57 620.30   Q 667.59 626.42 664.04 629.91   A 2.81 2.81 0.0 0 1 660.57 630.28   Q 657.20 628.16 652.17 624.08   C 650.48 622.71 651.40 621.51 652.31 619.66   Q 656.20 611.77 660.44 605.96   A 1.32 1.31 30.7 0 1 662.06 605.55   Q 667.82 608.22 671.15 613.07   A 0.45 0.45 0.0 0 0 671.89 613.06   L 678.36 602.99   A 1.47 1.47 0.0 0 1 679.17 602.37   Q 680.89 601.80 683.33 603.38   C 687.97 606.36 691.59 610.75 689.20 616.51   Q 687.30 621.11 682.95 625.94   C 680.45 628.71 678.97 626.63 676.86 625.16   A 0.57 0.21 20.3 0 1 676.79 625.10   L 671.56 620.12   A 0.62 0.62 0.0 0 0 670.57 620.30   Z"></path>   <path fill="#0165b3" d="   M 330.73 680.85   Q 331.80 680.15 333.39 678.64   Q 372.11 641.49 395.17 618.18   Q 403.06 610.20 408.98 603.20   A 0.85 0.85 0.0 0 1 410.46 603.58   C 410.97 606.12 408.10 612.10 406.57 615.40   Q 404.87 619.08 400.39 623.78   Q 391.71 632.87 384.04 640.29   Q 364.39 659.28 342.61 679.34   A 0.31 0.31 0.0 0 0 342.80 679.88   Q 344.26 679.98 347.47 680.17   C 355.94 680.66 358.77 687.33 358.21 695.00   Q 357.12 710.09 349.17 723.46   C 345.78 729.15 340.25 734.26 333.52 734.17   C 320.49 734.00 319.79 717.65 320.33 708.51   Q 321.37 690.88 325.12 668.05   Q 326.32 660.77 328.27 655.71   Q 330.19 650.74 333.02 643.83   A 0.71 0.71 0.0 0 1 334.31 643.77   Q 334.63 644.40 334.53 645.51   Q 333.09 660.56 330.37 680.62   A 0.24 0.23 77.3 0 0 330.73 680.85   Z   M 350.8540 705.6966   A 10.96 7.86 -1.9 0 0 339.6394 698.2043   A 10.96 7.86 -1.9 0 0 328.9460 706.4234   A 10.96 7.86 -1.9 0 0 340.1606 713.9157   A 10.96 7.86 -1.9 0 0 350.8540 705.6966   Z"></path>   <path fill="#0165b3" d="   M 387.63 621.13   Q 377.45 631.00 373.69 634.02   A 0.39 0.39 0.0 0 1 373.08 633.61   C 374.86 627.29 380.33 622.84 384.87 618.44   Q 395.05 608.57 398.81 605.55   A 0.39 0.39 0.0 0 1 399.43 605.96   C 397.64 612.28 392.17 616.73 387.63 621.13   Z"></path>   <path fill="#0165b3" d="   M 446.22 623.29   Q 446.22 623.84 446.20 623.99   C 443.53 638.91 441.29 649.99 441.87 660.69   C 442.10 665.08 444.73 670.32 449.53 670.97   A 0.70 0.69 14.5 0 0 450.27 670.54   C 451.55 667.38 452.28 663.74 454.18 660.63   A 0.90 0.89 -73.5 0 1 454.96 660.20   C 458.79 660.24 460.14 666.10 460.03 669.06   C 459.78 675.73 457.57 683.86 452.61 688.60   C 446.14 694.77 437.27 691.21 434.55 683.30   A 0.39 0.39 0.0 0 0 433.84 683.24   L 430.10 690.32   A 2.28 2.27 31.2 0 0 430.83 693.26   C 435.02 696.11 437.79 697.44 439.73 700.93   A 2.60 2.58 26.4 0 1 440.02 701.78   Q 440.68 705.75 440.69 707.27   Q 440.80 720.07 433.56 735.58   C 426.98 749.67 416.39 762.84 401.24 766.08   C 377.44 771.17 366.24 750.53 369.95 730.07   C 373.15 712.38 380.88 695.83 389.54 679.52   Q 390.08 678.50 391.01 677.66   A 0.86 0.86 0.0 0 1 392.45 678.25   Q 392.55 680.49 391.56 682.80   C 385.70 696.51 381.78 705.05 378.84 713.85   C 375.23 724.68 375.91 739.28 388.63 743.59   C 397.40 746.56 409.55 745.00 418.02 740.51   C 425.00 736.82 432.04 730.41 433.25 722.49   Q 433.67 719.80 431.79 718.73   Q 431.68 718.67 423.69 714.29   C 418.44 711.41 418.66 706.94 420.16 701.40   Q 421.20 697.59 423.30 693.53   Q 424.36 691.46 431.21 678.45   C 432.29 676.40 433.20 673.28 433.09 670.76   Q 432.84 664.98 434.92 650.47   Q 437.12 635.17 444.45 622.80   A 0.95 0.95 0.0 0 1 446.22 623.29   Z"></path>   <path fill="#0165b3" d="   M 313.58 653.92   L 304.23 647.91   A 2.33 2.32 24.8 0 1 303.26 645.28   Q 305.56 637.67 310.75 629.91   A 1.37 1.34 10.8 0 1 311.62 629.33   C 315.33 628.62 319.17 633.32 321.18 636.08   C 322.48 637.87 322.90 639.61 322.19 641.72   Q 320.03 648.09 315.35 653.66   A 1.35 1.35 0.0 0 1 313.58 653.92   Z"></path>   <path fill="#0165b3" d="   M 674.65 657.85   Q 677.31 653.47 677.86 652.86   Q 678.31 652.36 678.59 652.27   A 1.43 1.29 87.3 0 1 680.24 653.93   C 679.55 657.76 676.28 667.49 672.23 669.47   A 2.33 2.31 29.7 0 1 671.34 669.71   Q 663.37 670.18 659.81 675.85   C 654.97 683.57 651.88 689.44 647.41 694.35   C 644.49 697.55 640.26 697.16 635.52 696.80   A 7.79 7.70 42.3 0 0 633.81 696.87   Q 620.18 698.99 610.89 709.38   Q 608.04 712.57 600.13 723.66   C 587.89 740.81 573.16 756.46 553.05 764.05   Q 551.65 764.58 550.60 764.22   A 0.88 0.88 0.0 0 1 550.16 762.87   C 551.59 760.87 555.21 758.00 557.38 756.56   Q 572.57 746.46 583.59 732.91   Q 586.33 729.54 591.94 721.19   C 599.02 710.65 605.11 701.23 612.82 693.08   Q 620.90 684.54 632.26 679.26   C 637.96 676.62 644.24 676.25 650.57 676.56   A 1.90 1.89 33.0 0 0 651.48 676.37   Q 653.16 675.56 653.96 674.44   Q 660.16 665.81 662.97 662.73   C 666.10 659.28 669.46 658.97 673.74 658.43   A 1.24 1.22 12.0 0 0 674.65 657.85   Z"></path>   <path fill="#0165b3" d="   M 191.38 656.69   Q 189.96 672.27 189.81 691.98   Q 189.71 705.13 186.06 716.16   C 184.83 719.84 182.08 726.82 178.98 728.65   A 1.06 1.05 -7.9 0 1 177.42 727.48   C 180.76 714.91 180.49 703.67 180.19 689.01   C 179.94 677.37 183.93 666.05 189.55 656.12   A 0.98 0.98 0.0 0 1 191.38 656.69   Z"></path>   <path fill="#0165b3" d="   M 265.76 656.69   Q 264.34 672.27 264.20 691.99   Q 264.10 705.15 260.45 716.18   C 259.22 719.87 256.47 726.85 253.37 728.68   A 1.06 1.05 -7.9 0 1 251.81 727.51   C 255.15 714.93 254.88 703.69 254.57 689.02   C 254.32 677.38 258.31 666.05 263.93 656.12   A 0.98 0.98 0.0 0 1 265.76 656.69   Z"></path>   <path fill="#0165b3" d="   M 516.31 668.01   A 0.34 0.33 -46.4 0 0 516.86 667.99   L 523.16 658.19   A 1.59 1.58 18.5 0 1 524.61 657.47   C 527.57 657.71 530.67 661.21 532.32 663.70   Q 535.10 667.90 532.39 673.10   C 531.00 675.76 528.49 679.88 525.46 681.68   A 0.93 0.92 -46.1 0 1 524.53 681.70   C 521.40 680.00 519.10 677.05 516.49 674.95   A 0.51 0.50 31.1 0 0 515.71 675.14   Q 513.48 680.26 509.89 684.09   Q 507.96 686.14 505.50 684.13   Q 502.07 681.32 498.62 678.34   A 1.94 1.93 34.4 0 1 498.17 675.97   L 505.56 662.01   A 2.56 2.55 30.5 0 1 509.22 661.07   Q 513.13 663.62 516.31 668.01   Z"></path>   <path fill="#0165b3" d="   M 248.99 670.10   Q 249.45 671.32 249.07 672.78   Q 246.43 682.96 242.68 689.18   C 241.10 691.80 239.54 693.27 236.65 694.72   C 230.61 697.75 225.28 699.48 222.48 706.25   Q 216.48 720.74 215.92 721.88   C 213.04 727.73 208.76 730.65 201.96 732.33   Q 196.80 733.61 189.78 734.08   Q 187.60 734.23 187.18 733.12   Q 186.71 731.90 187.80 731.06   Q 193.62 726.60 206.22 718.47   C 209.22 716.53 213.48 712.92 215.25 709.02   Q 221.03 696.26 222.22 693.96   C 226.34 685.99 232.94 683.90 240.24 679.70   C 244.12 677.46 245.15 672.83 247.95 669.89   A 0.63 0.62 -33.5 0 1 248.99 670.10   Z"></path>   <path fill="#0165b3" d="   M 105.14 694.71   L 105.35 696.47   A 3.04 3.01 55.4 0 1 105.04 698.21   C 98.89 710.26 89.11 733.31 104.41 743.01   C 109.47 746.23 116.49 747.62 122.41 747.11   C 140.58 745.58 155.06 735.53 160.41 718.07   C 162.13 712.44 161.50 705.80 161.47 698.44   C 161.43 689.92 163.90 681.78 167.20 674.18   Q 168.06 672.21 169.65 670.37   A 0.57 0.57 0.0 0 1 170.64 670.62   Q 170.78 671.32 170.74 673.50   Q 170.58 681.28 170.01 694.77   Q 168.96 719.92 155.83 741.55   C 146.80 756.43 132.22 768.51 114.14 768.22   Q 109.66 768.14 106.12 766.95   C 88.15 760.87 86.70 742.22 90.45 725.92   Q 94.20 709.58 103.79 694.40   A 0.74 0.73 57.9 0 1 105.14 694.71   Z"></path>   <path fill="#0165b3" d="   M 272.12 733.11   C 271.95 731.49 274.46 729.42 275.83 728.56   Q 281.24 725.21 289.88 719.13   C 297.36 713.87 300.44 707.66 304.44 698.96   Q 308.08 691.05 311.63 682.36   A 1.62 1.62 0.0 0 1 314.61 682.31   Q 315.03 683.24 314.66 685.15   Q 312.22 697.66 305.53 714.04   Q 302.87 720.55 300.02 724.25   C 296.39 728.97 290.90 730.42 284.68 732.09   Q 278.98 733.62 273.62 734.20   A 1.38 1.23 -5.7 0 1 272.12 733.11   Z"></path>   <path fill="#0165b3" d="   M 130.92 691.94   L 138.69 698.81   A 1.81 1.75 5.3 0 1 139.00 699.17   C 142.08 703.94 140.65 708.46 138.15 713.11   Q 136.12 716.88 132.68 719.48   A 1.79 1.79 0.0 0 1 130.51 719.47   L 121.34 712.44   A 1.92 1.91 29.9 0 1 120.73 710.20   Q 124.50 700.97 130.16 692.05   A 0.51 0.50 -53.0 0 1 130.92 691.94   Z"></path>   <path fill="#0165b3" d="   M 225.09 754.57   A 0.34 0.33 -46.4 0 0 225.64 754.55   L 231.94 744.76   A 1.59 1.58 18.6 0 1 233.39 744.04   C 236.35 744.29 239.45 747.79 241.09 750.28   Q 243.87 754.48 241.16 759.67   C 239.76 762.33 237.25 766.44 234.22 768.24   A 0.93 0.92 -46.1 0 1 233.29 768.26   C 230.17 766.56 227.87 763.61 225.27 761.51   A 0.50 0.50 0.0 0 0 224.49 761.70   Q 222.25 766.81 218.66 770.63   Q 216.73 772.68 214.27 770.67   Q 210.85 767.86 207.40 764.88   A 1.94 1.93 34.4 0 1 206.96 762.51   L 214.35 748.57   A 2.56 2.55 30.6 0 1 218.01 747.63   Q 221.92 750.18 225.09 754.57   Z"></path> </svg>
