<svg xmlns="http://www.w3.org/2000/svg" version="1.1" viewBox="0.73 0.73 1198.52 1198.51">   <path fill="#007f3e" d="   M 351.64 0.86   Q 351.67 0.85 351.73 0.96   C 359.82 14.46 371.73 19.79 386.84 19.92   C 424.86 20.20 469.70 29.03 487.76 67.33   A 0.86 0.86 0.0 0 0 488.65 67.81   C 508.23 64.97 528.37 64.91 547.05 71.23   Q 582.18 83.12 599.51 118.56   Q 599.72 118.99 599.86 118.99   Q 600.01 118.99 600.22 118.56   Q 617.53 83.11 652.65 71.20   C 671.32 64.87 691.47 64.92 711.05 67.75   A 0.86 0.86 0.0 0 0 711.94 67.27   C 729.98 28.96 774.81 20.11 812.83 19.80   C 827.94 19.68 839.85 14.33 847.93 0.83   Q 848.00 0.72 848.02 0.73   Q 848.05 0.74 848.02 0.86   C 844.20 16.13 848.85 28.33 859.45 39.10   C 886.13 66.18 911.59 104.13 897.28 143.98   A 0.86 0.86 0.0 0 0 897.57 144.95   C 913.42 156.79 927.71 170.99 936.45 188.67   Q 952.88 221.91 940.07 259.23   Q 939.91 259.68 940.02 259.78   Q 940.12 259.89 940.57 259.73   Q 977.88 246.90 1011.13 263.31   C 1028.82 272.05 1043.02 286.33 1054.87 302.17   A 0.86 0.86 0.0 0 0 1055.84 302.46   C 1095.68 288.13 1133.65 313.57 1160.74 340.24   C 1171.52 350.83 1183.72 355.47 1198.98 351.64   Q 1199.10 351.61 1199.12 351.64   Q 1199.13 351.67 1199.02 351.73   C 1185.52 359.82 1180.18 371.73 1180.06 386.84   C 1179.78 424.86 1170.95 469.70 1132.65 487.75   A 0.86 0.86 0.0 0 0 1132.17 488.65   C 1135.00 508.23 1135.07 528.37 1128.75 547.05   Q 1116.86 582.17 1081.41 599.51   Q 1080.98 599.72 1080.98 599.86   Q 1080.98 600.01 1081.41 600.22   Q 1116.87 617.53 1128.77 652.65   C 1135.11 671.32 1135.05 691.47 1132.23 711.05   A 0.86 0.86 0.0 0 0 1132.71 711.94   C 1171.01 729.98 1179.87 774.81 1180.17 812.83   C 1180.30 827.94 1185.65 839.85 1199.15 847.93   Q 1199.26 848.00 1199.25 848.02   Q 1199.23 848.05 1199.11 848.02   C 1183.85 844.20 1171.65 848.85 1160.88 859.45   C 1133.80 886.13 1095.85 911.59 1056.00 897.28   A 0.86 0.86 0.0 0 0 1055.03 897.57   C 1043.19 913.42 1028.99 927.71 1011.31 936.45   Q 978.07 952.88 940.75 940.07   Q 940.30 939.91 940.19 940.01   Q 940.09 940.12 940.24 940.57   Q 953.07 977.88 936.66 1011.13   C 927.93 1028.81 913.65 1043.02 897.80 1054.87   A 0.86 0.86 0.0 0 0 897.52 1055.84   C 911.85 1095.68 886.41 1133.65 859.74 1160.74   C 849.15 1171.52 844.50 1183.72 848.34 1198.98   Q 848.37 1199.10 848.34 1199.11   Q 848.31 1199.13 848.25 1199.02   C 840.16 1185.52 828.24 1180.18 813.13 1180.06   C 775.12 1179.78 730.28 1170.95 712.22 1132.65   A 0.86 0.86 0.0 0 0 711.33 1132.17   C 691.75 1135.00 671.61 1135.07 652.92 1128.75   Q 617.80 1116.86 600.47 1081.41   Q 600.26 1080.98 600.11 1080.98   Q 599.97 1080.98 599.76 1081.41   Q 582.45 1116.87 547.33 1128.77   C 528.65 1135.10 508.51 1135.05 488.93 1132.23   A 0.86 0.86 0.0 0 0 488.04 1132.71   C 470.00 1171.01 425.16 1179.87 387.15 1180.17   C 372.04 1180.30 360.13 1185.64 352.05 1199.15   Q 351.98 1199.26 351.95 1199.24   Q 351.92 1199.23 351.95 1199.11   C 355.78 1183.85 351.13 1171.65 340.53 1160.88   C 313.85 1133.80 288.39 1095.85 302.70 1056.00   A 0.86 0.86 0.0 0 0 302.41 1055.03   C 286.56 1043.19 272.27 1028.99 263.53 1011.31   Q 247.10 978.07 259.91 940.75   Q 260.07 940.30 259.96 940.19   Q 259.86 940.09 259.41 940.24   Q 222.10 953.07 188.85 936.66   C 171.16 927.93 156.95 913.65 145.11 897.80   A 0.86 0.86 0.0 0 0 144.14 897.51   C 104.29 911.85 66.33 886.41 39.24 859.74   C 28.46 849.15 16.26 844.50 1.00 848.34   Q 0.87 848.37 0.86 848.34   Q 0.85 848.31 0.96 848.25   C 14.46 840.16 19.80 828.24 19.92 813.13   C 20.20 775.12 29.03 730.28 67.33 712.22   A 0.86 0.86 0.0 0 0 67.81 711.33   C 64.97 691.75 64.91 671.60 71.23 652.92   Q 83.12 617.80 118.57 600.47   Q 118.99 600.26 118.99 600.11   Q 118.99 599.97 118.57 599.76   Q 83.11 582.45 71.20 547.33   C 64.87 528.65 64.93 508.51 67.75 488.92   A 0.86 0.86 0.0 0 0 67.27 488.03   C 28.96 469.99 20.11 425.16 19.80 387.15   C 19.68 372.04 14.33 360.13 0.83 352.04   Q 0.72 351.98 0.73 351.95   Q 0.74 351.92 0.86 351.95   C 16.13 355.78 28.33 351.13 39.10 340.53   C 66.18 313.85 104.13 288.39 143.98 302.70   A 0.86 0.86 0.0 0 0 144.95 302.41   C 156.79 286.56 170.99 272.27 188.67 263.53   Q 221.91 247.10 259.23 259.91   Q 259.68 260.06 259.78 259.96   Q 259.89 259.86 259.73 259.41   Q 246.90 222.09 263.32 188.85   C 272.05 171.16 286.33 156.95 302.17 145.11   A 0.86 0.86 0.0 0 0 302.46 144.13   C 288.13 104.29 313.57 66.33 340.24 39.24   C 350.83 28.46 355.47 16.26 351.64 0.99   Q 351.61 0.87 351.64 0.86   Z   M 732.27 280.58   Q 732.49 280.68 732.54 280.66   Q 759.32 273.87 787.12 275.65   Q 793.42 276.05 804.82 277.73   C 817.12 279.53 831.58 281.67 845.24 281.91   C 866.82 282.30 883.03 276.00 893.45 256.76   C 913.39 219.98 893.92 193.14 862.45 174.19   C 854.04 169.12 850.25 166.53 842.02 161.31   A 0.66 0.65 28.6 0 1 841.77 160.48   Q 847.36 148.36 852.61 133.79   C 859.00 116.05 853.70 100.67 842.62 86.64   Q 833.91 75.62 822.36 63.88   Q 822.23 63.75 822.14 63.71   Q 822.03 63.66 821.85 63.66   Q 805.38 63.80 791.43 65.44   C 773.67 67.52 759.05 74.65 751.03 91.71   Q 744.44 105.73 739.82 118.25   A 0.66 0.65 16.4 0 1 739.05 118.66   C 729.54 116.53 725.03 115.68 715.50 113.32   C 679.85 104.47 647.10 109.68 635.19 149.79   C 628.96 170.76 635.96 186.67 651.50 201.66   C 661.33 211.15 673.07 219.86 683.04 227.28   Q 692.28 234.16 697.02 238.33   Q 717.94 256.73 732.07 280.47   Q 732.09 280.51 732.27 280.58   Z   M 467.68 280.60   Q 467.85 280.53 467.88 280.49   Q 482.01 256.75 502.93 238.35   Q 507.66 234.18 516.91 227.31   C 526.88 219.88 538.62 211.17 548.45 201.68   C 563.98 186.70 570.99 170.78 564.75 149.81   C 552.85 109.70 520.10 104.49 484.45 113.34   C 474.92 115.71 470.41 116.55 460.90 118.68   A 0.66 0.65 -16.4 0 1 460.13 118.27   Q 455.52 105.75 448.93 91.74   C 440.90 74.67 426.28 67.55 408.52 65.46   Q 394.57 63.83 378.11 63.69   Q 377.92 63.69 377.81 63.73   Q 377.72 63.77 377.59 63.90   Q 366.04 75.64 357.33 86.66   C 346.25 100.69 340.95 116.07 347.34 133.81   Q 352.59 148.38 358.18 160.50   A 0.66 0.65 -28.6 0 1 357.93 161.33   C 349.70 166.55 345.91 169.14 337.50 174.21   C 306.03 193.16 286.56 220.00 306.50 256.78   C 316.92 276.02 333.13 282.32 354.71 281.93   C 368.37 281.69 382.83 279.55 395.13 277.75   Q 406.53 276.07 412.83 275.67   Q 440.63 273.89 467.41 280.68   Q 467.46 280.70 467.68 280.60   Z   M 500.26 359.29   Q 500.20 359.31 500.16 359.25   C 483.41 326.88 442.44 317.28 408.96 320.59   Q 408.13 320.67 376.75 324.34   C 358.01 326.53 339.31 326.11 321.74 321.51   Q 321.53 321.45 321.46 321.53   Q 321.38 321.60 321.44 321.81   C 326.04 339.38 326.47 358.08 324.28 376.82   Q 320.62 408.20 320.54 409.03   C 317.24 442.51 326.86 483.48 359.23 500.22   Q 359.29 500.26 359.27 500.32   Q 359.24 500.38 359.17 500.36   C 324.44 489.31 288.68 511.50 267.35 537.51   Q 266.82 538.15 247.22 562.94   C 235.52 577.74 222.00 590.66 206.32 599.83   Q 206.14 599.94 206.14 600.05   Q 206.14 600.15 206.32 600.26   C 222.00 609.43 235.53 622.35 247.24 637.15   Q 266.84 661.92 267.37 662.57   C 288.71 688.58 324.47 710.75 359.20 699.70   Q 359.27 699.67 359.30 699.73   Q 359.32 699.79 359.26 699.83   C 326.89 716.58 317.29 757.55 320.60 791.03   Q 320.68 791.86 324.35 823.24   C 326.54 841.98 326.12 860.68 321.52 878.25   Q 321.47 878.46 321.54 878.53   Q 321.61 878.61 321.82 878.55   C 339.39 873.95 358.09 873.52 376.83 875.71   Q 408.21 879.37 409.04 879.45   C 442.52 882.75 483.49 873.13 500.23 840.76   Q 500.27 840.69 500.33 840.72   Q 500.39 840.74 500.37 840.82   C 489.32 875.55 511.51 911.31 537.52 932.64   Q 538.16 933.17 562.95 952.76   C 577.75 964.47 590.67 977.99 599.85 993.67   Q 599.95 993.85 600.06 993.85   Q 600.16 993.85 600.27 993.67   C 609.44 977.98 622.36 964.46 637.16 952.75   Q 661.93 933.15 662.58 932.62   C 688.59 911.28 710.76 875.52 699.71 840.79   Q 699.68 840.72 699.74 840.69   Q 699.80 840.67 699.84 840.73   C 716.59 873.10 757.56 882.70 791.04 879.39   Q 791.87 879.31 823.25 875.64   C 841.99 873.45 860.69 873.87 878.26 878.47   Q 878.47 878.52 878.54 878.45   Q 878.62 878.38 878.56 878.17   C 873.96 860.60 873.53 841.90 875.72 823.16   Q 879.38 791.78 879.46 790.95   C 882.76 757.47 873.14 716.50 840.77 699.76   Q 840.70 699.72 840.73 699.66   Q 840.76 699.60 840.83 699.62   C 875.56 710.67 911.32 688.48 932.65 662.47   Q 933.18 661.83 952.78 637.04   C 964.48 622.24 978.00 609.32 993.68 600.14   Q 993.86 600.04 993.86 599.93   Q 993.86 599.83 993.68 599.72   C 977.99 590.55 964.47 577.63 952.76 562.83   Q 933.16 538.06 932.63 537.41   C 911.29 511.40 875.53 489.23 840.80 500.28   Q 840.73 500.31 840.70 500.25   Q 840.68 500.19 840.74 500.15   C 873.11 483.40 882.71 442.43 879.40 408.95   Q 879.32 408.12 875.65 376.74   C 873.46 358.00 873.88 339.30 878.48 321.73   Q 878.53 321.52 878.46 321.45   Q 878.39 321.37 878.18 321.43   C 860.61 326.03 841.91 326.46 823.17 324.27   Q 791.79 320.61 790.96 320.53   C 757.48 317.23 716.51 326.85 699.77 359.22   Q 699.73 359.28 699.67 359.26   Q 699.61 359.23 699.63 359.16   C 710.68 324.43 688.49 288.67 662.48 267.34   Q 661.84 266.81 637.05 247.21   C 622.25 235.51 609.33 221.99 600.15 206.31   Q 600.05 206.13 599.94 206.13   Q 599.84 206.13 599.73 206.31   C 590.56 221.99 577.64 235.52 562.84 247.23   Q 538.07 266.83 537.42 267.36   C 511.41 288.70 489.24 324.46 500.29 359.19   Q 500.32 359.26 500.26 359.29   Z   M 280.59 467.71   Q 280.68 467.49 280.67 467.45   Q 273.87 440.66 275.65 412.86   Q 276.05 406.56 277.73 395.16   C 279.53 382.86 281.66 368.40 281.90 354.75   C 282.29 333.17 275.99 316.96 256.75 306.54   C 219.97 286.60 193.13 306.07 174.19 337.54   C 169.12 345.95 166.53 349.74 161.31 357.97   A 0.66 0.65 -61.4 0 1 160.48 358.22   Q 148.36 352.64 133.79 347.39   C 116.05 341.00 100.67 346.30 86.64 357.38   Q 75.62 366.09 63.88 377.64   Q 63.75 377.77 63.71 377.86   Q 63.67 377.97 63.67 378.15   Q 63.81 394.62 65.44 408.57   C 67.53 426.32 74.66 440.95 91.72 448.97   Q 105.73 455.56 118.26 460.18   A 0.66 0.65 -73.6 0 1 118.67 460.94   C 116.54 470.45 115.69 474.96 113.33 484.49   C 104.48 520.14 109.69 552.89 149.80 564.79   C 170.77 571.03 186.69 564.02 201.67 548.49   C 211.16 538.66 219.87 526.92 227.29 516.95   Q 234.16 507.70 238.34 502.96   Q 256.73 482.04 280.47 467.91   Q 280.51 467.89 280.59 467.71   Z   M 919.41 467.63   Q 919.48 467.81 919.52 467.83   Q 943.25 481.97 961.64 502.89   Q 965.81 507.63 972.68 516.88   C 980.10 526.85 988.80 538.59 998.29 548.42   C 1013.26 563.96 1029.17 570.97 1050.14 564.75   C 1090.25 552.86 1095.47 520.12 1086.63 484.47   C 1084.28 474.94 1083.43 470.42 1081.31 460.92   A 0.66 0.65 73.6 0 1 1081.72 460.15   Q 1094.24 455.54 1108.25 448.96   C 1125.32 440.94 1132.45 426.32 1134.54 408.57   Q 1136.18 394.62 1136.32 378.16   Q 1136.33 377.97 1136.28 377.86   Q 1136.24 377.77 1136.11 377.64   Q 1124.38 366.09 1113.36 357.38   C 1099.34 346.29 1083.96 340.99 1066.22 347.37   Q 1051.65 352.61 1039.53 358.20   A 0.66 0.65 61.4 0 1 1038.70 357.95   C 1033.49 349.72 1030.90 345.93 1025.83 337.52   C 1006.90 306.04 980.07 286.57 943.29 306.49   C 924.05 316.90 917.74 333.11 918.12 354.68   C 918.36 368.34 920.49 382.80 922.29 395.10   Q 923.96 406.50 924.36 412.79   Q 926.13 440.59 919.32 467.37   Q 919.31 467.41 919.41 467.63   Z   M 919.34 732.32   Q 919.25 732.54 919.26 732.58   Q 926.07 759.36 924.30 787.16   Q 923.90 793.46 922.22 804.86   C 920.43 817.16 918.29 831.61 918.06 845.27   C 917.68 866.85 923.98 883.05 943.22 893.47   C 980.01 913.39 1006.84 893.91 1025.77 862.44   C 1030.84 854.03 1033.43 850.24 1038.64 842.01   A 0.66 0.65 -61.4 0 1 1039.47 841.76   Q 1051.59 847.34 1066.16 852.58   C 1083.90 858.97 1099.28 853.66 1113.30 842.58   Q 1124.32 833.86 1136.05 822.32   Q 1136.18 822.19 1136.22 822.10   Q 1136.27 821.98 1136.27 821.80   Q 1136.12 805.34 1134.48 791.39   C 1132.39 773.64 1125.26 759.02 1108.20 751.00   Q 1094.18 744.41 1081.66 739.80   A 0.66 0.65 -73.6 0 1 1081.25 739.04   C 1083.37 729.53 1084.22 725.02 1086.58 715.49   C 1095.41 679.84 1090.19 647.10 1050.09 635.21   C 1029.11 628.98 1013.20 635.99 998.23 651.53   C 988.74 661.36 980.04 673.10 972.62 683.07   Q 965.75 692.32 961.58 697.06   Q 943.19 717.98 919.45 732.12   Q 919.42 732.14 919.34 732.32   Z   M 280.60 732.30   Q 280.53 732.13 280.49 732.11   Q 256.75 717.97 238.35 697.06   Q 234.18 692.32 227.30 683.07   C 219.88 673.10 211.17 661.36 201.68 651.53   C 186.69 636.00 170.78 628.99 149.81 635.23   C 109.70 647.14 104.49 679.88 113.34 715.54   C 115.70 725.07 116.55 729.58 118.68 739.09   A 0.66 0.65 73.6 0 1 118.27 739.85   Q 105.75 744.47 91.73 751.06   C 74.67 759.09 67.54 773.71 65.46 791.47   Q 63.83 805.42 63.69 821.88   Q 63.69 822.07 63.73 822.18   Q 63.77 822.27 63.90 822.40   Q 75.64 833.95 86.66 842.66   C 100.69 853.73 116.07 859.03 133.81 852.64   Q 148.38 847.39 160.50 841.80   A 0.66 0.65 61.4 0 1 161.33 842.05   C 166.55 850.28 169.14 854.07 174.21 862.48   C 193.16 893.95 220.00 913.42 256.78 893.48   C 276.02 883.06 282.32 866.85 281.93 845.27   C 281.69 831.61 279.55 817.15 277.75 804.85   Q 276.07 793.45 275.67 787.15   Q 273.89 759.35 280.68 732.57   Q 280.70 732.53 280.60 732.30   Z   M 467.68 919.34   Q 467.46 919.25 467.42 919.26   Q 440.64 926.06 412.84 924.30   Q 406.54 923.90 395.15 922.23   C 382.85 920.43 368.39 918.30 354.73 918.07   C 333.15 917.69 316.95 924.00 306.54 943.24   C 286.62 980.03 306.10 1006.85 337.58 1025.78   C 345.99 1030.85 349.78 1033.44 358.01 1038.65   A 0.66 0.65 28.6 0 1 358.26 1039.48   Q 352.68 1051.60 347.44 1066.17   C 341.06 1083.91 346.36 1099.29 357.45 1113.31   Q 366.16 1124.32 377.71 1136.06   Q 377.84 1136.19 377.93 1136.23   Q 378.04 1136.27 378.23 1136.27   Q 394.69 1136.12 408.64 1134.48   C 426.39 1132.39 441.01 1125.26 449.03 1108.19   Q 455.61 1094.18 460.22 1081.65   A 0.66 0.65 16.4 0 1 460.98 1081.24   C 470.49 1083.37 475.00 1084.21 484.54 1086.57   C 520.19 1095.40 552.93 1090.18 564.81 1050.07   C 571.04 1029.10 564.02 1013.18 548.48 998.21   C 538.65 988.73 526.91 980.02 516.94 972.60   Q 507.69 965.74 502.95 961.57   Q 482.02 943.18 467.88 919.45   Q 467.86 919.41 467.68 919.34   Z   M 732.39 919.39   Q 732.22 919.46 732.19 919.50   Q 718.05 943.23 697.13 961.62   Q 692.39 965.79 683.14 972.65   C 673.16 980.07 661.42 988.78 651.59 998.26   C 636.05 1013.23 629.03 1029.15 635.26 1050.12   C 647.15 1090.23 679.88 1095.45 715.54 1086.62   C 725.07 1084.26 729.58 1083.42 739.09 1081.29   A 0.66 0.65 -16.4 0 1 739.85 1081.70   Q 744.46 1094.23 751.05 1108.24   C 759.06 1125.31 773.68 1132.44 791.43 1134.54   Q 805.38 1136.18 821.84 1136.32   Q 822.03 1136.33 822.14 1136.28   Q 822.23 1136.24 822.36 1136.11   Q 833.91 1124.38 842.62 1113.36   C 853.71 1099.34 859.02 1083.96 852.64 1066.22   Q 847.40 1051.65 841.81 1039.53   A 0.66 0.65 -28.6 0 1 842.06 1038.70   C 850.30 1033.49 854.09 1030.90 862.50 1025.83   C 893.97 1006.90 913.45 980.08 893.54 943.29   C 883.13 924.05 866.92 917.74 845.35 918.12   C 831.69 918.35 817.23 920.49 804.93 922.28   Q 793.53 923.95 787.23 924.35   Q 759.43 926.12 732.66 919.31   Q 732.61 919.30 732.39 919.39   Z"></path>   <path fill="#007f3e" d="   M 592.42 712.78   Q 582.91 731.73 582.59 753.27   Q 582.57 754.62 583.53 757.95   C 584.84 762.50 587.99 765.59 592.87 765.34   Q 595.34 765.21 600.83 763.53   Q 610.49 760.58 619.73 753.59   Q 620.55 752.98 635.00 738.60   Q 651.43 722.25 663.71 710.47   Q 676.93 697.79 693.21 693.27   Q 695.73 692.57 699.17 691.46   A 0.51 0.51 0.0 0 0 699.49 690.82   C 692.43 669.28 710.45 653.70 727.93 646.14   A 3.59 3.57 88.5 0 0 729.88 644.07   C 734.69 630.97 740.16 615.14 752.07 606.87   Q 757.73 602.94 763.33 606.00   C 769.13 609.18 769.49 614.84 768.85 620.81   Q 768.62 623.06 767.94 624.39   A 2.21 2.21 0.0 0 1 765.42 625.54   Q 761.25 624.46 759.28 624.17   C 752.51 623.17 745.80 627.68 741.63 632.67   C 730.03 646.52 753.34 658.15 763.07 663.14   C 770.78 667.11 777.13 672.76 776.51 682.21   C 775.43 698.62 762.58 711.16 746.45 713.05   Q 742.46 713.52 734.60 712.25   Q 714.14 708.96 692.40 709.96   A 4.60 4.36 31.9 0 0 690.98 710.25   C 679.83 714.49 671.36 720.77 662.66 728.91   Q 647.29 743.29 631.65 759.07   Q 629.08 761.67 626.69 764.28   Q 616.70 775.17 602.06 778.66   A 4.76 4.64 38.6 0 1 600.84 778.78   C 588.59 778.36 578.99 768.79 577.73 756.74   Q 577.38 753.42 578.11 747.07   Q 580.86 723.04 594.02 703.11   A 2.31 2.29 -24.7 0 0 594.38 702.15   Q 595.23 695.24 595.12 690.99   Q 594.91 682.94 593.63 660.73   A 0.40 0.40 0.0 0 0 593.04 660.41   Q 586.87 663.90 580.07 665.57   A 4.57 4.42 -50.7 0 1 579.04 665.69   C 567.04 665.65 557.50 656.55 555.59 644.92   Q 555.04 641.55 555.72 634.99   Q 557.47 618.04 564.90 602.04   A 0.87 0.85 -50.1 0 0 564.83 601.17   Q 560.64 595.16 560.42 586.21   Q 560.01 569.62 564.96 555.07   Q 567.23 548.42 567.83 544.23   Q 569.41 533.16 569.08 526.99   Q 566.42 476.97 564.55 434.02   C 563.77 416.18 563.73 398.38 563.14 383.50   A 0.99 0.67 -67.7 0 0 563.09 383.26   L 560.56 376.57   A 1.50 1.42 -51.7 0 1 560.49 375.80   Q 561.86 367.69 565.67 360.56   A 0.38 0.38 0.0 0 1 566.20 360.42   Q 567.35 361.12 567.78 362.27   Q 572.65 375.31 576.84 385.88   C 578.44 389.94 579.53 393.95 580.08 398.00   Q 580.14 398.41 580.08 398.48   A 1.10 1.09 38.8 0 1 578.39 398.66   L 572.07 392.37   A 0.17 0.16 -59.7 0 0 571.79 392.45   Q 571.62 393.13 571.90 401.25   Q 572.03 404.93 576.05 478.74   Q 577.74 509.69 576.81 525.01   C 576.24 534.33 573.79 545.50 568.40 553.13   A 3.01 2.97 70.1 0 0 567.91 554.19   Q 566.33 560.54 565.01 569.22   Q 563.68 577.90 565.56 582.13   Q 568.34 588.38 576.00 589.78   A 4.57 4.48 -46.8 0 0 577.97 589.70   L 589.30 586.62   A 1.06 1.06 0.0 0 0 590.08 585.57   Q 589.68 563.50 589.27 547.48   Q 589.20 544.66 586.71 539.27   A 2.20 2.13 -53.5 0 1 586.55 538.05   Q 587.86 530.09 591.42 523.32   A 1.07 1.06 48.4 0 1 593.36 523.44   Q 598.60 537.01 603.42 549.55   Q 605.53 555.06 606.13 560.44   A 0.59 0.59 0.0 0 1 605.33 561.06   C 602.81 560.08 600.12 556.63 598.27 554.54   A 0.37 0.37 0.0 0 0 597.62 554.80   L 598.85 582.13   A 0.32 0.31 -13.8 0 0 599.30 582.40   Q 607.85 578.44 614.74 573.63   Q 623.01 567.86 626.19 565.85   Q 640.00 557.11 654.28 546.03   C 660.35 541.32 652.58 536.83 648.59 534.38   Q 639.84 529.01 629.75 524.54   Q 624.96 522.42 615.32 516.45   Q 605.60 510.42 594.55 496.45   C 592.87 494.33 588.71 493.47 588.47 489.50   Q 588.16 484.42 588.41 476.45   A 0.86 0.85 -87.1 0 1 589.32 475.62   Q 589.71 475.64 590.67 476.08   Q 602.35 481.44 610.84 485.65   Q 612.82 486.63 613.96 488.26   A 0.83 0.82 -30.6 0 1 613.64 489.48   C 611.24 490.63 608.32 490.39 604.87 490.41   A 0.30 0.30 0.0 0 0 604.67 490.94   Q 615.29 500.15 622.52 503.72   Q 633.20 508.99 639.07 511.70   Q 639.10 511.71 647.80 516.10   Q 657.27 520.88 660.08 530.91   C 661.70 536.71 660.64 544.32 659.18 550.43   C 657.51 557.45 653.52 561.12 647.45 565.71   Q 631.37 577.86 627.63 580.14   C 619.00 585.38 610.01 593.28 600.29 598.18   A 0.60 0.60 0.0 0 0 599.96 598.73   L 601.63 635.71   A 0.36 0.36 0.0 0 0 602.24 635.95   Q 615.71 622.46 641.38 597.38   Q 655.39 583.69 676.91 578.43   A 0.47 0.47 0.0 0 0 677.25 577.81   C 669.98 556.77 688.03 540.42 705.88 532.94   A 2.90 2.89 89.5 0 0 707.45 531.34   C 712.91 517.35 718.84 498.15 733.72 491.76   C 735.83 490.85 737.60 492.68 738.44 494.72   C 742.36 504.35 750.52 519.74 763.56 514.07   C 771.38 510.67 778.37 501.04 782.47 493.74   A 1.55 1.51 -86.0 0 1 783.21 493.08   C 784.83 492.42 785.76 493.28 785.96 494.98   C 786.55 500.14 788.01 507.40 793.61 509.20   Q 795.06 509.67 796.42 509.34   C 802.63 507.84 801.20 498.63 800.58 494.06   C 800.01 489.83 800.92 486.91 805.72 487.10   A 0.96 0.95 -13.3 0 1 806.52 487.59   C 812.35 498.17 812.79 511.49 805.11 521.13   C 797.87 530.22 785.63 532.37 778.22 521.88   A 1.06 1.06 0.0 0 0 776.58 521.78   C 771.67 527.21 764.82 532.76 758.01 534.25   C 742.88 537.57 735.54 523.96 732.28 511.17   A 0.49 0.48 -19.4 0 0 731.60 510.85   Q 725.09 513.82 720.46 518.61   C 706.75 532.80 731.16 545.25 741.14 550.11   Q 742.41 550.73 746.45 553.53   Q 755.28 559.68 754.39 569.67   C 752.94 585.89 740.40 598.21 724.24 600.05   Q 720.33 600.50 712.31 599.21   Q 691.79 595.90 670.07 596.90   A 3.92 3.91 33.2 0 0 668.87 597.15   C 657.85 601.38 649.67 607.30 641.17 615.18   Q 626.02 629.23 607.83 647.59   Q 605.97 649.47 603.11 652.77   A 2.04 2.02 -26.7 0 0 602.61 654.25   Q 603.69 670.81 602.78 687.74   Q 602.10 700.31 596.52 712.03   Q 595.55 714.07 593.88 715.60   A 0.57 0.57 0.0 0 1 592.92 715.21   L 592.82 712.86   A 0.21 0.21 0.0 0 0 592.42 712.78   Z   M 706.75 560.00   C 707.65 553.25 703.41 548.97 697.03 553.54   Q 690.24 558.40 686.41 565.92   C 684.42 569.84 682.98 575.82 688.77 577.31   C 698.97 579.93 705.60 568.65 706.75 560.00   Z   M 716.80 560.30   Q 713.14 571.53 705.70 580.46   A 0.40 0.40 0.0 0 0 705.86 581.08   C 714.39 584.53 723.43 584.36 732.25 581.93   C 734.89 581.20 746.91 577.08 744.39 572.90   Q 743.25 571.00 741.48 569.79   Q 730.16 562.02 717.71 559.75   A 0.82 0.81 -75.9 0 0 716.80 560.30   Z   M 590.49 602.85   L 579.16 606.68   A 4.99 4.85 -53.6 0 1 577.71 606.92   Q 572.86 606.93 568.58 604.54   A 0.56 0.55 -63.2 0 0 567.80 604.80   C 563.94 613.69 553.61 646.42 566.90 651.74   C 573.13 654.23 587.22 647.38 592.27 644.10   A 1.02 1.01 72.9 0 0 592.73 643.21   L 590.92 603.15   A 0.33 0.33 0.0 0 0 590.49 602.85   Z   M 729.01 673.03   C 729.92 666.29 725.68 662.01 719.31 666.57   Q 712.52 671.42 708.69 678.93   C 706.70 682.85 705.25 688.82 711.04 690.31   C 721.22 692.94 727.86 681.67 729.01 673.03   Z   M 739.06 673.33   Q 735.41 684.57 727.97 693.50   A 0.40 0.40 0.0 0 0 728.13 694.12   C 736.66 697.57 745.70 697.40 754.52 694.96   C 757.17 694.23 769.19 690.11 766.67 685.93   Q 765.52 684.03 763.75 682.82   Q 752.43 675.05 739.97 672.78   A 0.82 0.81 -76.0 0 0 739.06 673.33   Z"></path>   <path fill="#007f3e" d="   M 728.28 407.36   A 0.31 0.30 -60.3 0 1 728.75 407.23   Q 734.64 411.84 742.57 416.38   Q 744.04 417.23 745.51 419.50   A 1.64 1.57 32.4 0 1 745.76 420.51   Q 745.05 428.39 739.84 434.22   A 0.70 0.69 36.5 0 1 738.94 434.35   Q 732.78 430.50 725.92 426.08   Q 723.29 424.38 722.74 422.30   A 1.49 1.49 0.0 0 1 722.80 421.38   L 728.28 407.36   Z"></path>   <path fill="#007f3e" d="   M 722.96 429.94   A 0.56 0.55 -51.2 0 1 723.84 429.84   Q 728.12 434.38 735.25 439.44   Q 737.27 440.87 738.77 443.58   A 2.39 2.33 -57.5 0 1 739.06 444.96   Q 738.47 451.25 734.52 456.31   A 2.12 2.11 -56.6 0 1 731.84 456.87   Q 724.09 452.61 717.35 446.31   Q 715.56 444.64 716.44 442.67   Q 719.81 435.10 722.96 429.94   Z"></path>   <path fill="#007f3e" d="   M 755.05 454.33   A 0.78 0.78 0.0 0 1 754.05 454.51   Q 747.38 450.52 741.02 445.30   Q 739.83 444.33 739.29 442.84   A 1.45 1.41 45.8 0 1 739.29 441.83   Q 741.67 435.52 745.41 430.05   A 1.19 1.19 0.0 0 1 746.95 429.67   Q 753.75 433.34 759.25 437.49   Q 760.57 438.48 761.34 439.75   A 1.34 1.33 -54.5 0 1 761.50 440.74   Q 759.65 448.72 755.05 454.33   Z"></path>   <path fill="#007f3e" d="   M 406.30 494.99   C 406.64 500.02 401.89 507.29 400.10 511.80   C 396.24 521.58 394.07 533.03 394.78 542.79   C 395.97 558.96 407.71 572.44 423.97 574.96   Q 429.99 575.89 442.42 574.26   Q 455.24 572.57 467.05 568.28   Q 490.82 559.65 510.34 545.85   Q 517.07 541.09 521.22 537.23   Q 522.10 536.41 522.29 535.80   A 1.93 1.92 23.6 0 0 521.41 533.57   Q 517.65 531.40 512.08 530.23   C 499.41 527.55 494.11 526.80 484.74 523.78   C 478.38 521.73 471.95 517.66 470.93 510.56   Q 470.51 507.68 471.68 500.46   Q 474.88 480.72 487.28 465.26   C 492.89 458.27 499.91 450.40 508.00 445.76   C 513.97 442.33 523.59 440.46 526.13 449.42   C 527.44 454.07 528.52 465.59 521.83 466.85   A 0.97 0.96 76.3 0 1 520.73 466.17   C 519.86 463.27 519.10 460.28 515.76 459.72   C 505.13 457.95 495.55 470.27 489.26 477.29   C 483.39 483.86 479.40 490.71 477.13 498.75   A 0.95 0.94 -58.8 0 0 477.35 499.66   Q 482.99 505.73 490.92 508.34   C 495.05 509.71 500.42 510.22 505.51 511.45   Q 520.23 515.01 523.09 516.15   C 531.18 519.37 529.67 531.44 528.02 538.80   Q 526.93 543.64 525.20 545.95   Q 522.65 549.36 517.44 553.93   Q 497.83 571.13 469.88 583.64   Q 450.43 592.34 428.97 593.14   C 405.45 594.01 388.96 572.94 388.65 551.23   Q 388.27 523.76 401.47 499.75   Q 403.23 496.54 405.37 494.62   A 0.56 0.56 0.0 0 1 406.30 494.99   Z"></path>   <path fill="#007f3e" d="   M 409.98 593.85   A 1.08 1.08 0.0 0 1 410.83 595.42   Q 406.41 603.94 404.23 608.95   Q 398.98 621.02 397.44 633.78   C 396.52 641.43 394.92 655.23 406.16 656.53   A 3.64 3.50 42.3 0 0 407.19 656.50   Q 426.09 653.21 439.18 639.69   C 446.54 632.08 458.27 620.64 478.19 601.20   Q 494.20 585.58 515.89 582.46   Q 521.50 581.65 525.12 582.29   C 531.99 583.52 539.20 588.49 539.33 595.99   C 539.39 599.28 538.65 606.94 536.09 609.88   A 0.88 0.88 0.0 0 1 534.65 609.73   C 529.04 599.73 519.53 597.76 508.58 600.58   Q 495.42 603.96 486.89 611.18   Q 469.82 625.60 443.70 652.43   Q 435.33 661.04 431.34 663.50   Q 424.25 667.89 415.91 669.80   A 4.59 4.45 -49.2 0 1 414.68 669.91   C 403.59 669.34 394.65 661.36 392.27 650.60   Q 391.39 646.58 392.10 639.39   Q 394.45 615.78 407.56 595.00   A 2.51 2.49 18.8 0 1 409.92 593.85   L 409.98 593.85   Z"></path>   <path fill="#007f3e" d="   M 684.91 657.93   Q 678.24 653.94 671.87 648.72   Q 670.68 647.75 670.14 646.26   A 1.45 1.41 45.8 0 1 670.14 645.25   Q 672.52 638.93 676.25 633.46   A 1.19 1.19 0.0 0 1 677.79 633.08   Q 684.60 636.75 690.11 640.89   Q 691.43 641.88 692.20 643.15   A 1.34 1.33 -54.6 0 1 692.36 644.14   Q 690.51 652.13 685.91 657.75   A 0.78 0.78 0.0 0 1 684.91 657.93   Z"></path>   <path fill="#007f3e" d="   M 653.87 633.53   A 0.56 0.55 -51.2 0 1 654.75 633.43   Q 659.02 637.96 666.16 643.02   Q 668.18 644.45 669.68 647.16   A 2.39 2.33 -57.5 0 1 669.97 648.54   Q 669.39 654.83 665.44 659.89   A 2.12 2.11 -56.6 0 1 662.76 660.45   Q 655.01 656.20 648.26 649.90   Q 646.47 648.22 647.35 646.25   Q 650.71 638.69 653.87 633.53   Z"></path>   <path fill="#007f3e" d="   M 550.32 669.28   A 0.23 0.23 0.0 0 0 550.09 669.60   Q 554.98 680.07 558.30 687.20   C 563.78 698.98 564.55 710.11 560.03 722.41   Q 558.27 727.19 553.75 732.29   Q 540.29 747.45 526.05 757.05   Q 518.31 762.27 505.93 769.17   Q 489.36 778.41 468.36 782.20   Q 449.40 785.62 438.34 781.78   Q 423.94 776.78 416.34 761.96   C 408.20 746.10 407.57 728.72 410.22 710.74   C 410.76 707.13 411.90 700.38 413.96 698.34   A 0.69 0.69 0.0 0 1 415.09 698.59   Q 416.01 701.10 415.45 703.75   C 412.45 718.10 411.24 735.18 419.03 748.00   C 428.42 763.47 449.03 767.68 466.00 765.09   Q 489.12 761.56 508.74 750.14   Q 516.69 745.51 521.91 742.65   Q 541.67 731.82 556.43 713.68   A 1.04 1.03 57.5 0 0 556.63 712.75   Q 555.41 708.07 554.61 706.67   Q 544.99 689.77 539.21 670.43   A 2.56 2.56 0.0 0 0 538.55 669.34   L 537.85 668.63   A 0.93 0.91 29.1 0 1 537.60 667.78   L 541.06 652.10   A 0.47 0.47 0.0 0 1 541.85 651.87   Q 550.19 660.21 556.77 669.00   A 0.53 0.53 0.0 0 1 556.29 669.85   L 550.32 669.28   Z"></path>   <path fill="#007f3e" d="   M 473.46 683.31   Q 477.73 687.85 484.86 692.91   Q 486.88 694.34 488.38 697.05   A 2.38 2.33 -57.5 0 1 488.67 698.43   Q 488.08 704.72 484.13 709.78   A 2.12 2.11 -56.6 0 1 481.45 710.34   Q 473.70 706.08 466.96 699.78   Q 465.17 698.10 466.05 696.13   Q 469.42 688.57 472.58 683.41   A 0.56 0.55 -51.2 0 1 473.46 683.31   Z"></path> </svg>
